<svg xmlns="http://www.w3.org/2000/svg" width="65.432" height="65.175" viewBox="0 0 65.432 65.175"><g transform="translate(0 0)"><path d="M64.73,7.179h0c1.237-2.227.952-6.2-1.782-6.648a45.943,45.943,0,0,0-6.874-.2Q52.015.29,47.956.252,39.984.181,32.013.168,22.941.152,13.869.189C11.606.2,9.19-.142,6.912.069v0S1.512-.5.412,3.49A9.951,9.951,0,0,0,.4,9.087C.917,11.331,3.08,11.051,5,11.023c5.278-.078,10.565.052,15.845.072q16,.063,31.993-.077a25.707,25.707,0,0,0,6.117-.3c.173-.045.351-.1.528-.153l.876.008a6.2,6.2,0,0,0,4.355-3.357l.014-.027Zm-50.8-5.015q7.118-.019,14.236-.011,14.109.02,28.22.205c1.275.016,3.389-.273,4.3.831a4.731,4.731,0,0,1,.929,2.581c-.117.623-.757,2.412-4.238,2.459H6.4S4.566,8.37,3.9,5.711c-.032-.225-.059-.45-.08-.679,0-.915.436-2.492,3.283-2.9C9.376,2.2,11.653,2.171,13.931,2.164Z" transform="translate(65.431 25.806) rotate(180)" fill="#163a59"/><g transform="translate(2.701)"><path d="M39,8.675c-1.5-2.711-4.951-4.277-7.952-4.33A6.731,6.731,0,0,0,26.633,5.9,4.794,4.794,0,0,0,25.6,4.823,7.672,7.672,0,0,0,19.946,3.3a5.588,5.588,0,0,0-3.919,2.447,5.077,5.077,0,0,0-.694,2.55,6.6,6.6,0,0,0-5.017.52c-2.971,1.811-2.236,5.5-.314,7.762a2.665,2.665,0,0,0,1.405.993c.091.035.181.06.274.088q.195.056.379.091a3.268,3.268,0,0,0,.424.051c.025,0,.055.007.079.007H35.739A2.963,2.963,0,0,0,38.6,16.217,7.772,7.772,0,0,0,39,8.675Z" transform="translate(-2.654 -2.03)" fill="#a3be61"/><path d="M52.761,4.408a4.416,4.416,0,0,0-3.723-2,4.745,4.745,0,0,0-3.457,1.671,11.405,11.405,0,0,0-1.449,1.986c-.021-.13-.027-.263-.052-.393a6.5,6.5,0,0,0-1.349-3.343A3.706,3.706,0,0,0,39.714,1.3a3.11,3.11,0,0,0-2.1,1.405A21.913,21.913,0,0,0,35.1,6.76a35.285,35.285,0,0,0-2.479,8.907.927.927,0,0,0-.021.363c.125.919,1.456,1.543,2.266,1.568l13.444.41,1.9.058c.472.015,1.384.043,1.666-.475C54.026,13.657,55.409,8.479,52.761,4.408Z" transform="translate(0.463 -1.28)" fill="#a3be61"/><path d="M63.03,23.632a1.885,1.885,0,0,0-.129-.567,1.616,1.616,0,0,0-1.8-1.291q-27.586.245-55.17,0c-.954-.008-2.265.711-2.26,1.81.02,4.924-.134,9.844-.134,14.768,0,4.661-.386,9.378-.166,14.031.175,3.7.841,7.563,4.73,8.931,2.808.987,5.819.476,8.722.521,10.3.158,20.562.357,30.858.02q3.665-.12,7.328-.3a10.534,10.534,0,0,0,4.563-.867C62.6,59.059,62.34,55,62.459,52.061c.194-4.806.248-9.617.4-14.426C63,32.97,63.308,28.3,63.03,23.632ZM58.444,46.413c-.052,2.043-.115,4.084-.2,6.126a16.059,16.059,0,0,1-.455,4.6c-.133.375-.183.427-.232.464a.51.51,0,0,1-.139.058,8.418,8.418,0,0,1-.905.172c-1.983.212-4.024.192-6.017.267-9.43.36-18.868.4-28.3.2-3.322-.072-6.661.065-9.976-.041a5.618,5.618,0,0,1-3.186-.764c-1.134-.857-1.25-2.826-1.391-4.112a48.5,48.5,0,0,1,.009-6.9c.085-2.513.079-5.029.078-7.542,0-4.5.114-8.994.129-13.492q25.531.2,51.06,0C59.175,32.414,58.619,39.461,58.444,46.413Z" transform="translate(-3.299 3.134)" fill="#163a59"/><text transform="translate(13.299 49)" fill="#163a59" font-size="12" font-family="WorkSans-Bold, Work Sans" font-weight="700" letter-spacing="0.01em"><tspan x="0" y="0">SPUD</tspan></text></g></g></svg>