<svg xmlns="http://www.w3.org/2000/svg" width="71.823" height="66.879" viewBox="0 0 71.823 66.879"><path d="M27.745,47.506c-2.975.455-5.158,4.115-5.477,6.839C21.8,58.323,26,58.78,28.691,56.953s4.992-8.91.143-9.467A4.072,4.072,0,0,0,27.745,47.506Z" transform="translate(4.137 8.898)" fill="#163a59"/><path d="M49.322,47.506c-2.975.455-5.157,4.115-5.477,6.839-.467,3.979,3.734,4.435,6.424,2.609s4.991-8.91.142-9.467A4.073,4.073,0,0,0,49.322,47.506Z" transform="translate(8.741 8.898)" fill="#163a59"/><path d="M68.124,54c-2.9-.156-5.806-.191-8.707-.16-.133.017-.266.037-.4.043-.083,0-.166.007-.25.007-.175,0-.349-.017-.523-.034-4.909.082-9.816.342-14.725.559-3.914.173-7.829.449-11.745.516a8.3,8.3,0,0,1-3.147-.224c-1.553-.592-2-2.283-.525-3.325a8.136,8.136,0,0,1,2.866-1.21l20.8-4.237q-.086-.373-.163-.725c-.064-.288-.127-.575-.194-.86-.353-1.5-.653-2.905-.914-4.264l-14.5,2.955c-2.233.454-5.662.854-7.894,1.309-.112-.321-8.424-26-8.424-26l44.46.542v6.638c1.414.477,2.794,1,4.124,1.6V24.716c0-3.369.485-6.807-2.014-9.409-1.232-1.283-2.559-1.231-4.174-1.231h-42.4Q18.848,11.629,18,9.19C17.5,7.754,17,4.818,15.435,4.436c-1.615-.4-3.641.233-5.262.465-1.973.281-3.942.6-5.909.927-1.2.2-3.157,1.227-3.65,2.52-.536,1.409.944,1.33,1.807,1.186q2.29-.385,4.585-.711a16.575,16.575,0,0,1,3.875-.535,17.37,17.37,0,0,1,1.325,3.479q.761,2.168,1.495,4.348,1.753,5.19,3.428,10.409c2.078,6.439,4.125,12.893,6.047,19.389.311,1.047.619,2.095.908,3.15l.01.042c-2.239,1.542-3.818,4-2.752,6.9a4.58,4.58,0,0,0,3.778,2.779,38.438,38.438,0,0,0,7.393-.063c10.417-.484,20.9-1.394,31.328-.837a5.766,5.766,0,0,0,4.067-1.616C68.408,55.806,69.6,54.076,68.124,54ZM25.636,51.3h0Z" transform="translate(-0.5 -4.309)" fill="#163a59"/><path d="M62.039,27.328a23.552,23.552,0,0,0-4.182-2.047,47.744,47.744,0,0,0-10.09-2.944c-.889-.16-3.151-.956-3.867-.091-.807.977-.288,2.476-.1,3.583.254,1.46.473,2.925.713,4.389.362,2.2.84,4.361,1.389,6.522.449,1.762.734,3.61,1.9,5.1.8,1.03,2.406,1.222,3,.306a6.174,6.174,0,0,0,.506-2.7,34.9,34.9,0,0,1,.643-5.5c.017-.061.047-.1.067-.161L53.425,36.3q.739,1.32,1.48,2.64c.428.766,1.12,2.861,2.15,1.628l2.537-3.039a14.742,14.742,0,0,0,1.172-1.381c.986-1.528-1.574-2.021-2.574-2.475l-4.02-1.824a13.412,13.412,0,0,1,2.588-.4,23.776,23.776,0,0,0,4.694-.622c.78-.233,1.609-.615,1.7-1.529A2.287,2.287,0,0,0,62.039,27.328Z" transform="translate(8.666 1.462)" fill="#a3be61"/></svg>