<svg xmlns="http://www.w3.org/2000/svg" width="65.603" height="66.579" viewBox="0 0 65.603 66.579"><g transform="translate(0 0)"><path d="M66.47,12.339c0-.758-.007-1.533-.039-2.313l0-.08c-.016-.34-.037-.677-.065-1.015-.008-.1-.02-.194-.029-.292-.028-.274-.059-.548-.1-.82-.019-.132-.044-.262-.067-.394-.043-.242-.09-.482-.145-.719-.031-.131-.068-.259-.1-.388-.067-.243-.14-.482-.224-.717-.035-.1-.073-.191-.111-.285-.063-.158-.114-.321-.186-.475-.042-.087-.1-.152-.141-.234-.025-.047-.042-.1-.067-.146-.051-.091-.114-.161-.168-.247-.072-.107-.14-.22-.219-.318-1.477-2.018-3.969-2.491-6.355-2.609-4.339-.217-8.686-.218-13.029-.228C35.653,1.036,25.9.739,16.137.907c-2.3.04-4.6.088-6.9.162a12.367,12.367,0,0,0-3.883.578C1.569,3.032,1.212,7.034,1.285,10.63c0,.158,0,.316,0,.473.075,4.359-.137,8.715-.159,13.074s.022,8.733-.139,13.1C.926,39,.846,40.8.9,42.6a25.376,25.376,0,0,0,.795,7.415c.806,2.771,2.819,4.157,5.52,4.7,2.525.5,5.084.158,7.628.156,4.244,0,8.5.232,12.741.282,1.311.016,2.622.016,3.933.021V62.3q-8.042-.009-16.086,0c-1.338,0-2.675-.06-4.011-.057a10.829,10.829,0,0,0-2.673.1,1.3,1.3,0,0,0-.944.7A4.5,4.5,0,0,0,7.68,65.6c.111.692.249,1.536,1.269,1.674a31.575,31.575,0,0,0,4.038.093q11.842.076,23.713.064,5.931-.007,11.857-.034,2.961-.014,5.923-.033a26.665,26.665,0,0,0,3.4-.117c1.946-.269,2.12-3.463.976-4.426-.474-.4-1.989-.4-4.086-.416q-8.784-.062-17.569-.1c-.531,0-1.062,0-1.591,0V55.164q9.072-.046,18.14-.444c2.925-.131,6.536.217,9.2-1.3,2.218-1.264,2.471-3.791,2.624-6.143.275-4.239.371-8.492.444-12.744.036-1.9.066-3.8.1-5.7.007-.374.02-.748.029-1.124.035-1.644.073-3.288.135-4.931.118-3.124.232-6.245.193-9.373C66.472,13.058,66.471,12.7,66.47,12.339Zm-4.264,7.338c-.24,6.761-.351,13.524-.57,20.285-.059,1.831-.111,3.666-.222,5.495a10.014,10.014,0,0,1-.525,3.277,1.2,1.2,0,0,1-1.034.9,21.37,21.37,0,0,1-4.173.3q-11.534.544-23.084.529c-6.85-.01-13.715-.437-20.558-.212-1.759.059-4.5.309-5.688-1.345-.935-1.3-1.054-3.394-1.184-4.941a34.8,34.8,0,0,1-.077-3.655c.028-.692.057-1.379.081-2.044.083-2.338.107-4.675.114-7.013.013-2.189.011-4.378.022-6.569.024-4.513.257-9.025.156-13.538-.044-2.168-.384-6.064,2.343-6.667a16.351,16.351,0,0,1,3.017-.2q3.034-.084,6.066-.138c7.729-.132,15.449-.016,23.177.108,3.88.063,7.759.031,11.639.073,1.938.021,3.877.068,5.813.155a8.33,8.33,0,0,1,3.093.363,2.64,2.64,0,0,1,.394.409,8.958,8.958,0,0,1,1.237,4.977c0,.37.008.72.018,1.008.035,1.1.035,2.2.034,3.3,0,.359.007.719.007,1.078Q62.28,17.643,62.206,19.677Z" transform="translate(-0.881 -0.856)" fill="#163a59"/><path d="M43.505,48.848l-.083,0A2.856,2.856,0,0,1,41.1,47.523l-4.713-7.408a2.853,2.853,0,0,1,.874-3.939c1.336-.851,3.458-1.183,3.942.876s.942,3.565,2.458,3.86,2.885-2.865,5.41-6.356a73.012,73.012,0,0,0,4.69-7.606,2.855,2.855,0,0,1,4.627,3.346L45.817,47.666A2.857,2.857,0,0,1,43.505,48.848Z" transform="translate(-13.594 -9.818)" fill="#a3be61"/></g></svg>