<?xml version="1.0" encoding="utf-8"?>
<!-- Generator: Adobe Illustrator 23.1.1, SVG Export Plug-In . SVG Version: 6.00 Build 0)  -->
<svg version="1.1" id="Layer_1" xmlns="http://www.w3.org/2000/svg" xmlns:xlink="http://www.w3.org/1999/xlink" x="0px" y="0px"
	 viewBox="0 0 101.4 139.9" style="enable-background:new 0 0 101.4 139.9;" xml:space="preserve">
<style type="text/css">
	.st0{clip-path:url(#SVGID_2_);}
</style>
<title>Sustainability_Pillars</title>
<path d="M23,35.4c0.5,1,1.2,1.9,1.9,2.8c0.7,0.8,1.7,1.4,2.4,2.2s2.3-0.3,1.5-1.2c-0.8-0.7-1.6-1.4-2.3-2.2
	c-0.6-0.8-1.2-1.6-1.7-2.5C24.3,33.8,22.4,34.5,23,35.4L23,35.4z"/>
<path d="M24.4,35.1c1.1,1.6,2.2,3.1,3.5,4.5c0.6,0.7,2.4-0.1,1.8-0.9c-1.3-1.4-2.5-2.9-3.5-4.5C25.7,33.5,23.9,34.3,24.4,35.1
	L24.4,35.1z"/>
<path d="M21.6,34.1c-1.1-1.2-1.9-2.6-2.4-4.1c-0.7-1.4-1.3-2.9-1.9-4.3c-0.6-1.4-1-2.9-1.3-4.4c-0.2-1.1-1.1-4.2-0.2-5.1l-1,0.4
	c1.9-0.2,3.8-0.5,5.6-0.9c1.2-0.4,2.3-0.9,3.4-1.6C28.1,11.2,28.3,2.7,34.6,3c1.4,0,2.8,0.5,4,1.2c1.1,0.7,1.3,3,1.7,4.2
	c1,3.1,2,6.3,3.1,9.4c0.1,0.4,0.8,1.6,0.6,2s-0.6,0.1-0.9,0.1c-1.4,0-2.8,0-4.2,0.1c-2.2,0.1-4.4,0.8-6.3,2c-2,1.6-3.4,3.9-4,6.3
	C27.6,31.3,25.4,35,21.6,34.1c-0.4-0.1-2.1,0.6-1.6,0.7c2.5,0.6,5.5-0.4,7.5-1.9c2.8-2.1,2.9-5.7,4.6-8.5c1.3-2.3,3.8-3.7,6.4-3.6
	c1.7-0.1,3.3,0.1,5,0c0.6,0,2-0.2,2.3-0.8s-0.2-1.4-0.3-1.9l-1.3-3.9c-0.7-2.1-1.4-4.2-2-6.3l-1-3.1c-0.1-0.7-0.6-1.2-1.3-1.4
	c-2.6-1.3-5.7-1.4-8.5-0.3c-3.4,1.5-4.8,4.5-6.4,7.6c-1.2,2.5-3.6,4.3-6.3,4.9c-1.3,0.3-3.7-0.2-4.8,0.9s0,4.3,0.2,5.6
	c0.6,2.4,1.4,4.8,2.5,7c0.8,1.9,1.7,4.2,3.2,5.7C20.1,35.1,21.9,34.3,21.6,34.1z"/>
<path d="M17.7,20.9c0.5,1.9,1.1,3.8,1.9,5.6c0.4,1,0.7,2.7,1.9,2.9c1.9,0.3,3.8-1.9,4.7-3.3c0.4-0.6-1.1-0.6-1.4-0.1
	c-0.4,0.6-0.8,1.1-1.3,1.5c-0.2,0.2-0.8,0.9-1.1,0.8c-0.7-0.1-1-1.2-1.2-1.7c-0.8-2-1.5-4.1-2.1-6.2C19,19.9,17.6,20.3,17.7,20.9z"
	/>
<path d="M23,18.6c-0.7,1.4-0.7,4.3,0.6,5.4c1.1,1,2.9,0,3.4-1.1c0.6-1.5,0.3-3.2-0.8-4.4c-0.7-0.9-2-1-2.9-0.3
	c-0.1,0.1-0.2,0.2-0.3,0.3c-0.4,0.5,1.1,0.4,1.3,0c0.1-0.1,1.2,1.4,1.2,1.6c0.3,0.8,0.4,1.7,0.1,2.5c-0.3,0.9-0.9,1-1.3,0.1
	c-0.2-0.5-0.3-0.9-0.4-1.4c-0.2-1-0.1-2,0.3-2.9C24.7,18.1,23.3,18.2,23,18.6z"/>
<path d="M28.7,13.2c-2,0.6-2.3,2.7-1.6,4.5c0.3,0.8,1,1.4,1.8,1.6c1,0.2,2.1-0.2,2.7-1c0.3-0.5-1.1-0.3-1.3,0
	c-0.8,1.2-1.9-1.1-2-1.7s-0.4-2.5,0.5-2.9S29.6,12.9,28.7,13.2z"/>
<path d="M33.7,16.5c-0.1-0.6-1.3-4.7-0.6-4.9c0,0,1.7,4.9,1.8,5.3c0.2,0.7,1.7,0.3,1.4-0.4c-0.6-1.6-1.1-3.3-1.7-4.9
	c-0.3-0.9-0.7-1.9-1.9-1.5c-1,0.4-1.5,1.4-1.3,2.4c0.2,1.5,0.5,2.9,0.8,4.3C32.4,17.6,33.9,17.2,33.7,16.5z"/>
<path d="M33.2,14.7l1.2-0.4c0.3-0.1,0.7-0.3,0.6-0.7s-0.6-0.4-0.8-0.3l-1.2,0.4c-0.3,0.1-0.7,0.3-0.6,0.7S32.9,14.8,33.2,14.7z"/>
<path d="M35.7,8.4c0.8,2.2,1.3,4.6,1.5,6.9c0.2,1.8,1.8,0.9,3.1,0.5c0.8-0.2,0.7-0.8-0.2-0.5c-0.5,0.2-1.1,0.3-1.7,0.4l0.4,0.1
	c-0.6-0.9-0.4-2.6-0.6-3.7c-0.3-1.4-0.6-2.8-1.2-4.2C37,7.6,35.6,8,35.7,8.4L35.7,8.4z"/>
<path d="M41.5,88.1c-4.9-8.5-0.7-20.2,5.4-26.9c3.8-4.5,9.3-7.1,15.2-7.4c5.7-0.2,11.4,1.3,16.2,4.3c4.9,3.1,9.1,8.3,9.3,14.3
	c0,1.1,2,0.8,2-0.1c-0.3-12.3-13.9-19.5-24.8-19.9c-6.2-0.4-12.4,1.7-17.1,5.8c-4.6,4.1-7.9,9.5-9.4,15.5c-1.3,5-1.1,10.8,1.5,15.4
	C40.2,89.8,42,89,41.5,88.1L41.5,88.1z"/>
<path d="M59.3,53c-4.6-10.6-16.9-16.2-28.1-14.2c-12.2,2.2-20.7,13.7-19.8,26c0.3,5,1.1,10.9,5.1,14.3c0.6,0.5,2.4-0.3,1.8-0.8
	c-3.4-2.9-4.2-7.6-4.7-11.8c-0.7-4.9,0.1-10,2.2-14.5c2.6-5.6,7.5-9.8,13.4-11.6c5.2-1.4,10.7-1,15.6,1.1c5.6,2.2,10.1,6.5,12.6,12
	C57.7,54.2,59.6,53.6,59.3,53L59.3,53z"/>
<path d="M85.9,61l3.8,1.8c1.4,0.6,3.1,1.2,4.2,2.2c3.2,3,2.1,6.9-0.2,10.1c-1.8,2.5-4.7,5.3-4.4,8.7l1.9-0.5v-0.2l-1.9,0.5
	c0.2,1.6,0.9,2.9,0.6,4.6c-0.4,2.1-2.2,3.6-3.8,5c-0.6,0.6-1.3,1.2-2,1.7c-0.3,0.3-0.9,0.9-1.3,1s-0.9-0.2-1.2-0.3
	c-1-0.4-2.1-0.7-3.2-0.9c-2.8-0.2-4.7,3-6.4,4.8c-2.3,2.4-5.3,5.8-8.8,6.2s-7.1-1.2-10.2-2.6c-3.4-1.6-6.9-3.2-10.3-4.7
	c-7.4-3.2-15-5.9-22.5-8.9c-3-1.2-6-2.5-9-3.7c-2.6-1-5.3-2.4-5.7-5.4l-1.9,0.5l0.1,0.2c0.2,0.7,2.1,0.2,1.9-0.5
	c-0.7-2.8-1-7.9,1.4-10c1.6-1.4,3.6-1.5,5.5-1.7c1-0.1,1.6-1.3,0.2-1.1c-2.4,0.2-5,0.6-7,2.2c-3.1,2.4-3,7.8-2.2,11.2l1.9-0.5
	l-0.1-0.2c-0.2-0.7-2-0.2-1.9,0.5c0.3,2.6,2.3,4.1,4.5,5.2c2.7,1.3,5.6,2.3,8.3,3.5c8,3.4,16.2,6.2,24.2,9.6c4,1.7,8,3.7,12,5.4
	c3.1,1.5,6.5,2.2,9.9,2.3c2.9-0.1,5.6-1.9,7.7-3.6c1.5-1.3,2.9-2.7,4.3-4.2c0.7-0.8,1.4-1.5,2.2-2.2c1.2-1,1.9-0.8,3.2-0.3
	s2.5,1.1,3.9,0.3c1.6-1,3.1-2.2,4.4-3.7c1.4-1.3,3.1-2.8,3.6-4.7s-0.2-3.6-0.5-5.4c-0.1-0.7-2-0.2-1.9,0.5v0.2
	c0.1,0.7,2,0.2,1.9-0.5c-0.4-3.8,3.9-7,5.6-10.1s1.5-6.3-1.1-8.8c-1.2-0.9-2.6-1.7-4.1-2.2l-4.2-2C86.7,59.6,85,60.5,85.9,61
	L85.9,61z"/>
<path d="M94,74.8c-0.6,5.8-0.6,11.7-0.7,17.6c-0.1,5.1,0.1,10.3-0.8,15.3c-0.4,2.3-1.2,4.5-2.4,6.5c-1.7,2.3-3.5,4.5-5.6,6.5
	c-3.7,4-7.7,7.8-12,11.2c-2.3,1.9-4.4,3.6-7.5,3.9c-2.9,0.2-5.7-0.2-8.4-1.3c-5.5-1.9-10.8-4.4-16.1-6.7s-10.7-4.8-16.2-6.4
	c-4.8-1.4-10.4-2.4-14.5-5.5c-4.9-3.7-4.3-9.4-4-14.8c0.4-6.5,0-13.2,0-19.7c0-0.4-1.9-0.1-1.9,0.5c-0.1,6.4,0.3,12.8,0,19.2
	c-0.2,4.9-1.1,10.3,2.7,14.2c3.5,3.6,9.1,4.9,13.7,6.2c6,1.8,11.9,4.1,17.7,6.7c5.7,2.4,11.4,5.2,17.2,7.2c4.7,1.6,10,2,14.5-0.4
	c2-1.2,3.8-2.5,5.5-4.1c2.3-1.9,4.5-3.9,6.6-5.9s4.2-4.2,6.2-6.4c1.8-1.8,3.4-3.9,4.7-6.1c2.6-5.2,2.3-11.2,2.5-16.8
	c0.2-7.1,0.1-14.3,0.8-21.4C95.8,74,94,74.2,94,74.8L94,74.8z"/>
<path d="M18.4,99.8c-0.1-3.5-6.1-3.1-6.7-0.1c-0.2,0.8,0.4,1.3,1,1.7c1.1,0.7,2,0.9,2.3,2.3c0.2,0.9-0.2,3.3-1.1,3.8
	c-1.6,1-2-2-2-2.9c0-0.4-1.9-0.1-1.9,0.5c0,1.8,0.8,3.6,2.8,3.6c1.3,0,2.5-0.6,3.2-1.7c1-1.4,1.5-3.6,0.4-5.1
	c-0.6-0.8-1.6-0.8-2.3-1.5c-1.3-1.2,0.4-2.3,1.6-1.8c0.6,0.2,0.8,1.2,0.8,1.8C16.4,100.8,18.4,100.5,18.4,99.8L18.4,99.8z"/>
<path d="M20.4,101.1c-1.3,2.8-2.5,5.8-3.5,8.7c-0.2,0.7,1.7,0.4,1.9-0.2c0.9-2.9,2.1-5.7,3.4-8.4C22.6,100.3,20.7,100.5,20.4,101.1z
	"/>
<path d="M22.1,101.7c0.2-0.2,0.9,0.9,1,1c0.3,0.5,0.3,1.1,0.1,1.6c-0.7,1.3-2.2,1.1-3.4,0.8c-0.5-0.1-0.9,0-1.3,0.2
	c-0.2,0.1-0.7,0.5-0.2,0.6c1.4,0.4,3,0.4,4.4,0c1.2-0.3,2.2-1.2,2.6-2.3c0.6-2.8-3.5-3.8-4.9-1.8c-0.4,0.6,1.4,0.4,1.8,0L22.1,101.7
	z"/>
<path d="M27,105.1L27,105.1c0.3-0.1,0.6-0.5,0.5-0.8v-0.1c-0.2-0.7-1.2-0.4-1.6-0.2c-1.4,0.9-2.1,3.8-2.3,5.3s0.2,3.1,1.9,3.4
	c3.9,0.5,5.2-5.3,5.8-8c0.2-0.9-1.8-0.7-2,0.2c-0.2,1.1-0.5,2.1-0.9,3.2c-0.3,0.9-0.9,2.7-1.9,3c-0.5,0.5-0.9,0.3-1-0.6
	c-0.1-0.3-0.1-0.7,0-1c0.1-0.6,0.2-1.1,0.4-1.6c0.2-0.7,0.7-2.5,1.3-2.9l-1.6-0.2v0.1l0.5-0.8l0,0C24.9,104.4,26,105.5,27,105.1
	L27,105.1z"/>
<path d="M32.3,105.7c-0.9,2.8-2.3,5.4-3.1,8.3c-0.2,0.7,1.7,0.5,1.9-0.2c0.9-2.8,2.2-5.4,3.1-8.2C34.4,104.8,32.5,105,32.3,105.7z"
	/>
<path d="M32.5,106.2c1,0.3,2.2,0.2,3.1,0.9c0.8,0.7,1.2,1.7,1.1,2.7c-0.2,2.8-3.2,4.2-5.8,3.8c-0.7-0.1-2.3,0.9-1.2,1.1
	c3.1,0.6,7-0.5,8.4-3.6c0.6-1.2,0.6-2.6-0.1-3.8c-1-1.8-2.7-1.6-4.4-2.1C33,105,31.4,105.9,32.5,106.2z"/>
<path d="M38.5,116c-0.2-0.2-0.5-0.2-0.8-0.2c-0.5,0-0.9,0.2-1.3,0.4c-0.3,0.2-0.6,0.7-0.2,1c0.3,0.2,0.7,0.3,1,0.2
	c0.5-0.1,0.9-0.3,1.2-0.6c0.2-0.1,0.2-0.3,0.2-0.5c-0.1-0.3-0.5-0.4-0.8-0.3c-0.3,0-0.5,0.1-0.8,0.2c-0.2,0.1-0.4,0.2-0.5,0.3
	c-0.2,0.3,0.2,0.4,0.5,0.4c-0.4,0-0.4-0.2-0.3,0l-0.1-0.1c0,0.1,0,0.1,0,0.2v-0.1c0,0,0,0,0,0.1l0,0c-0.2,0.1,0.3-0.2,0.1-0.1
	l0.5-0.2c0.2-0.1,0.5-0.1,0.7,0l0,0c0,0-0.1-0.1-0.1-0.1l0.1,0.1c0-0.1-0.1-0.1-0.1-0.2v0.1c0,0,0-0.1,0-0.1l0,0c0,0,0,0.1-0.1,0.1
	l-0.9,0.3c-0.1,0-0.1,0-0.2,0c0.1,0-0.1-0.1,0,0c0.2,0.1,0.3,0.1,0.5,0.1c0.3,0,0.5-0.1,0.8-0.2C38,116.7,38.7,116.3,38.5,116
	L38.5,116z"/>
<path d="M47,111.6L47,111.6l1.3-0.3c0.7,0.2-0.4-1.1-0.8-1.2c-0.7-0.2-1.5-0.1-2.2,0.3c-1.7,1-3,2.5-3.7,4.4
	c-0.7,1.7-1.1,3.9,0.6,5.2c1.3,0.9,3.1,0.6,4.1-0.6c0.8-0.9-1.1-1-1.6-0.5c-1.3,1.6-1.8-2.2-1.8-2.5c0.1-0.8,0.4-1.5,0.8-2.2
	c0.2-0.4,2.8-4.1,2.9-2c0,0.2,0.3,0.3,0.4,0.3h0.1c0.5,0.1,1,0,1.4-0.4l0.1-0.1C49.3,111.1,47.5,111,47,111.6L47,111.6z"/>
<path d="M49.2,121.8l1.9-3.8c0.3-0.6,0.6-1.3,1-1.8c0.8-1,2.2-1.5,2.8-0.2c0.8,2.1-0.7,5.4-1.4,7.4c-0.2,0.5,1.7,0.3,1.9-0.3
	c0.8-2.2,3.5-9.1-1-9.2c-4.1-0.1-5.7,5.1-7.2,8.1C47,122.6,48.9,122.4,49.2,121.8L49.2,121.8z"/>
<path d="M48.4,117.7l6.5,2c0.8,0.2,2.3-0.9,1.1-1.3l-6.5-2C48.7,116.2,47.2,117.3,48.4,117.7L48.4,117.7z"/>
<path d="M79.3,92.5c1.1,0,2.3,0.7,3.4,0.4c1-0.3,1.8-1,2.4-1.8c0.9-0.9,1.7-1.9,2.4-3c0.6-1.1,0.6-2.4,0-3.5
	c-0.3-0.8-2.2-0.2-1.9,0.5c0.4,0.7,0.5,1.6,0.3,2.4c-0.4,0.9-1,1.8-1.8,2.5c-0.5,0.5-1.1,1.5-1.9,1.5s-1.5-0.3-2.2-0.4
	S78,92.4,79.3,92.5L79.3,92.5z"/>
<path d="M9.8,72.4c-1.2,2.7,1.4,4.4,3.6,5.4c3.9,1.8,8,3.3,11.9,5c8,3.4,16,6.9,24,10.5c3.2,1.5,6.9,3.9,10.5,3.9
	c2.6,0,4.9-1.6,6.9-3.1c3-2.2,5.4-5,8.1-7.6c3.1-3.1,6.2-6.1,9.4-9.1c1.6-1.5,3.3-2.9,4.8-4.5c0.8-0.8,1.4-1.7,1.8-2.8
	c0.7-2.4-1-3.4-2.7-4.5c-0.6-0.4-2.3,0.4-1.5,1c1.4,1,2.9,1.7,2.3,3.7c-0.4,1-1,1.8-1.8,2.5c-1.3,1.3-2.7,2.5-4,3.7
	c-5.1,4.8-9.9,9.9-15,14.7c-1.1,1.1-2.3,2.1-3.6,2.9c-0.9,0.7-1.9,1.2-3,1.7c-2,0.5-3.9-0.5-5.7-1.2l-5.3-2.4
	c-6.6-3-13.2-5.9-19.8-8.7c-3.8-1.6-7.5-3.2-11.3-4.8c-2-0.9-9.2-2.7-7.7-6.1C12,71.6,10.1,71.7,9.8,72.4L9.8,72.4z"/>
<path d="M62.7,106.1l1.1,26.3l0.1,3.8c0,0.5,1,0.4,1-0.1l-1-26.3l-0.1-3.8C63.7,105.6,62.7,105.7,62.7,106.1L62.7,106.1z"/>
<g>
	<defs>
		<path id="SVGID_1_" d="M64.3,136.3l-1.2-30.2c2.8-0.7,5.4-2.2,7.4-4.3c2.1-2,4.1-4.2,6.1-6.2c0.9-0.9,3.4,0.1,4.5,0.5
			c0.5,0.3,1,0.4,1.6,0.4c0.4-0.1,0.8-0.3,1.1-0.6c1.8-1.4,3.5-3,5.1-4.7c0.5-0.5,1-1.1,1.4-1.8c0.5-1,0.7-2.1,0.6-3.2
			c0-0.6-0.1-1.1-0.3-1.7c-0.2-0.5-0.3-0.9-0.4-1.4v0.2c-0.3-1.5,0.6-3.1,1.4-4.3s1.9-2.6,2.8-3.8l0.5-0.7c-0.7,7-0.6,14.1-0.8,21.1
			c-0.2,7.4,0.3,14.8-4.9,20.6c-5.7,6.6-12.1,12.7-19.1,17.9l-0.2,0.2C68.2,135.5,66.3,136.1,64.3,136.3L64.3,136.3z"/>
	</defs>
	<clipPath id="SVGID_2_">
		<use xlink:href="#SVGID_1_"  style="overflow:visible;"/>
	</clipPath>
	<g class="st0">
		<path d="M80,91c-5.4,12.1-11,24.2-16.9,36.1l0.9-0.1c3.9-11.2,9.8-21.5,15.6-31.8c0.1-0.3-0.8-0.1-0.9,0.1
			c-7.3,8.3-9.7,19.4-15.4,28.6l0.9-0.1c2.7-10.9,7.2-21.3,13.3-30.7l-0.9,0.1c-3.5,9.5-7.6,18.8-12.4,27.7l0.9-0.1
			c1.6-9,6.2-16.9,10.8-24.7l-0.9,0.1c-3.1,6.9-6.5,13.7-10.2,20.3l1-0.1c1.4-5.8,3.7-11.4,6.8-16.5l-0.9,0.1
			c-1.8,5.5-4.4,10.7-7.6,15.5l0.9-0.1c1-5.2,2.9-10.2,5.5-14.8l-0.9,0.1c-1.3,4.3-3.1,8.4-5.5,12.2l0.9-0.1c0.4-3,1.2-5.9,2.3-8.7
			c0.1-0.3-0.8-0.1-1,0.1l-3.3,8.1l1-0.1c0.4-2.2,1-4.4,1.7-6.6c0.1-0.3-0.8-0.1-0.9,0.1l-1.7,2.9c-0.2,0.3,0.7,0.2,0.9,0l1.7-2.9
			l-0.9,0.1c-0.7,2.1-1.3,4.3-1.7,6.6c-0.1,0.3,0.9,0.1,1-0.1l3.4-8.1l-1,0.1c-1.1,2.8-1.8,5.7-2.3,8.7c0,0.3,0.8,0.1,0.9-0.1
			c2.4-3.8,4.2-8,5.5-12.3c0.1-0.3-0.8-0.1-0.9,0.1c-2.7,4.6-4.6,9.7-5.6,14.9c-0.1,0.3,0.8,0.1,0.9-0.1c3.3-4.8,5.8-10.1,7.7-15.6
			c0.1-0.3-0.8-0.1-0.9,0.1c-3.1,5.1-5.4,10.7-6.8,16.6c-0.1,0.3,0.8,0.1,1-0.1c3.8-6.6,7.2-13.4,10.2-20.3c0.1-0.3-0.8-0.1-0.9,0.1
			c-4.6,7.8-9.3,15.8-10.9,24.8c-0.1,0.4,0.8,0.1,0.9-0.1c4.7-9,8.9-18.2,12.4-27.7c0.1-0.3-0.8-0.1-0.9,0.1
			c-6.1,9.5-10.7,19.9-13.4,30.8c-0.1,0.3,0.8,0.1,0.9-0.1c5.7-9.2,8.1-20.4,15.4-28.7l-0.9,0.1c-6,10.2-11.9,20.5-15.8,31.8
			c-0.1,0.3,0.8,0.1,0.9-0.1C69.9,115,75.5,103,80.9,90.9C81,90.6,80.1,90.7,80,91L80,91z"/>
		<path d="M84.9,90.7l-8.2,22.7l-4,11.2c-1.2,3.6-2.8,7.1-4.7,10.3h0.9c-0.3-3.5,1.1-6.8,2.3-10.1c1-2.9,2.1-5.7,3.3-8.6
			c2.4-5.8,4.9-11.5,7.4-17.2c0.2-0.5-0.7-0.5-0.9-0.1l-15.5,31.2l0.9,0.1c3.5-10.1,8.1-19.8,12.8-29.5c0.2-0.5-0.7-0.5-0.9-0.1
			l-14.6,29.8l0.9,0.1c3.2-11.6,7.2-23.1,13.8-33.3l-0.9-0.2l-13.1,25.7c-0.3,0.5,0.7,0.5,0.9,0.1l13.1-25.7
			c0.2-0.5-0.7-0.5-0.9-0.2c-6.6,10.2-10.6,21.8-13.9,33.4c-0.2,0.6,0.7,0.5,0.9,0.1L79,100.7l-0.9-0.1c-4.6,9.7-9.2,19.4-12.8,29.5
			c-0.2,0.5,0.7,0.5,0.9,0.1l15.5-31.2l-0.9-0.1c-2.7,6.1-5.4,12.2-7.8,18.4c-1.2,3-2.4,6.1-3.5,9.2c-1,2.8-1.9,5.6-1.7,8.6
			c0,0.4,0.7,0.2,0.9,0c4-6.3,6-14,8.6-21l8.4-23.3C86,90.3,85,90.3,84.9,90.7L84.9,90.7z"/>
		<path d="M81.8,91.5c-8.2,16.3-11.7,34.5-20.5,50.6l0.9-0.1c4.8-16.8,12.4-32.7,22.4-47h-0.9c-7.5,11.8-11.9,25-16.3,38.2l1-0.1
			c3.6-12.5,8.7-24.5,13.7-36.5c0.1-0.2-0.8-0.1-1,0.1l-15.6,35.2l1-0.2c-0.4-3.3,0.8-6.5,1.9-9.6s2.2-6,3.4-8.9
			c2.4-5.8,5.1-11.4,8.1-16.9c0.1-0.2-0.8-0.1-0.9,0.1c-6.8,10.4-11.3,22-15.8,33.6l1-0.2c-0.7-2.7,0.8-5.5,1.8-7.9s2.1-4.9,3.3-7.3
			c2.4-4.9,5.2-9.5,8.3-14c0.2-0.3-0.7-0.2-0.9,0c-3.1,4.5-5.9,9.2-8.3,14.1c-1.2,2.5-2.4,5-3.4,7.6s-2.3,5.1-1.7,7.8
			c0.1,0.3,0.9,0,1-0.2c4.4-11.5,9-23.1,15.7-33.5l-0.9,0.1c-3.2,5.6-6,11.5-8.5,17.4c-1.2,2.9-2.4,5.9-3.4,8.9
			c-1,2.9-2,5.9-1.6,9.1c0,0.3,0.9,0,1-0.2l15.6-35.2l-1,0.1c-5,12-10.1,24-13.7,36.5c-0.1,0.3,0.9,0.1,1-0.1
			c4.4-13.1,8.8-26.3,16.2-38.1c0.2-0.3-0.7-0.2-0.9,0c-10.1,14.4-17.7,30.3-22.6,47.2c-0.1,0.3,0.8,0.1,0.9-0.1
			c8.8-16,12.2-34.3,20.5-50.6C82.9,91.1,81.9,91.2,81.8,91.5L81.8,91.5z"/>
		<path d="M66.8,133.1c-0.6,1.3-1,2.6-1.1,4c0,0.4,0.9,0.2,1-0.1c0.9-4.2,2.4-8.2,4.2-12h-0.9c-0.4,3.8-1.6,7.4-3.6,10.7h0.9
			c1.6-8.3,5.9-15.6,10.1-22.8h-0.9c-1.4,5.6-3.3,11-5.5,16.3l1-0.1c1.6-8.3,4.1-16.4,7.6-24.1c0.1-0.3-0.8-0.2-1,0.1
			c-3.5,7.7-6,15.8-7.6,24.1c-0.1,0.4,0.9,0.1,1-0.1c2.2-5.3,4.1-10.8,5.5-16.3c0.1-0.4-0.8-0.2-0.9,0c-4.2,7.2-8.5,14.6-10.1,22.9
			c-0.1,0.4,0.8,0.1,0.9,0c2-3.3,3.2-7,3.6-10.8c0-0.4-0.8-0.2-0.9,0.1c-1.9,3.9-3.3,7.9-4.3,12.1l1-0.1c0.1-1.3,0.5-2.6,1.1-3.9
			c0.2-0.4-0.8-0.3-0.9,0L66.8,133.1z"/>
		<path d="M79.1,127.1L96.2,84h-0.9L81,124.8c-0.1,0.4,0.8,0.3,0.9,0l14.2-35h-0.9l-11.1,32.9l1-0.1c2.7-8.2,5.4-16.4,9.4-24.2h-0.9
			l-6.2,18.9c-0.1,0.4,0.8,0.3,0.9,0c1.9-5,4.1-10,6.5-14.8h-0.9c-1.2,4.1-2.5,8.1-4.1,12c-0.2,0.5,0.7,0.4,0.9,0.1l3.3-6.5
			c0.2-0.5-0.7-0.4-0.9-0.1l-3.3,6.5l0.9,0.1c1.6-4,2.9-8,4.1-12.1c0.1-0.4-0.8-0.2-0.9,0c-2.4,4.8-4.6,9.8-6.5,14.8h0.9l6.2-18.9
			c0.1-0.4-0.8-0.2-0.9,0c-4,7.8-6.7,16-9.4,24.3c-0.1,0.4,0.8,0.3,1-0.1l11.1-32.9c0.1-0.4-0.8-0.3-0.9,0l-14.2,35H82l14.2-40.8
			c0.1-0.4-0.8-0.3-0.9,0L78.2,127C78,127.5,78.9,127.4,79.1,127.1L79.1,127.1z"/>
		<path d="M75,128.1c6.6-16,13.3-31.9,21.4-47.2l-0.9,0.1l-22.9,53.7l1-0.1c3-7.5,6.3-15,9.6-22.3c1.7-3.6,3.3-7.2,5-10.7
			c1.7-3.6,3.1-7.9,5.9-10.7h-0.9c-5.2,12.7-11,25.2-17.1,37.5c-0.2,0.4,0.8,0.3,0.9,0c6.2-12.3,12-24.9,17.2-37.7
			c0.1-0.3-0.8-0.1-0.9,0c-2.5,2.4-3.7,5.9-5.2,8.9c-1.8,3.9-3.7,7.7-5.5,11.6c-3.6,7.7-7,15.6-10.2,23.5c-0.1,0.3,0.8,0.2,1-0.1
			l22.9-53.7c0.1-0.3-0.8-0.2-0.9,0.1c-8,15.3-14.8,31.3-21.4,47.3C73.9,128.5,74.9,128.4,75,128.1L75,128.1z"/>
		<path d="M70.5,134.2c5.3-15.7,11.4-31.2,18.3-46.3l-0.9,0.2C82.2,103.4,74.9,118.2,70.5,134.2c-0.1,0.1,0.8-0.1,0.9-0.3
			c5-15.5,11.2-30.6,18.6-45.2L89,88.9c-5.5,14.5-10.8,29.1-15.8,43.8l0.9-0.2c4.1-15.9,10.4-31.1,18.6-45.4l-0.9,0.2
			C85.2,103,78,118.5,70.4,133.7l0.9-0.2c2.5-7.3,5.2-14.6,8.3-21.7l-0.9,0.2l-6.4,21.8c0,0.1,0.9,0.1,0.9-0.2l6.4-21.8
			c0-0.2-0.9,0-0.9,0.2c-3.1,7.1-5.8,14.4-8.3,21.7c-0.1,0.1,0.8,0,0.9-0.2c7.6-15.2,14.8-30.7,21.4-46.4c0.1-0.1-0.8,0-0.9,0.2
			c-8.2,14.2-14.4,29.5-18.6,45.4c0,0.2,0.9,0,0.9-0.2c5-14.7,10.3-29.3,15.8-43.8c0.1-0.1-0.8,0-0.9,0.2
			C81.7,103.4,75.4,118.6,70.5,134.2l0.9-0.3c4.4-15.8,11.8-30.6,17.4-46c0.1-0.1-0.9,0-0.9,0.2c-6.9,15.1-13,30.5-18.3,46.3
			C69.5,134.5,70.4,134.4,70.5,134.2L70.5,134.2z"/>
		<path d="M89.1,89.2c1.7-5,3.4-10,5.3-15l-1,0.2c-1,3.6-2.4,7.2-4,10.6l1-0.2c1.6-3.8,3.1-7.5,5.7-10.7l-0.9,0.1
			c-1.8,5-3.7,10-5.7,14.9l1-0.2c1.2-3.5,2.7-6.9,4.7-10l-1,0.2c-1.1,3.4-2.4,6.8-4,10c-0.1,0.2,0.8,0.1,1-0.2
			c0.7-1.4,1.6-2.7,2.6-4l-0.9,0.1l-2,7.3c-0.1,0.2,0.9,0.1,0.9-0.2l2.1-7.3c0.1-0.3-0.8,0-0.9,0.1c-1,1.3-2,2.8-2.7,4.3l1-0.2
			c1.6-3.2,2.9-6.6,4-10c0.1-0.3-0.8,0-1,0.2c-1.9,3.1-3.5,6.5-4.7,10c-0.1,0.2,0.9,0.1,1-0.2c2-4.9,3.9-9.9,5.7-14.9
			c0.1-0.3-0.8,0-0.9,0.1c-2.6,3.2-4.2,7-5.8,10.8c-0.1,0.2,0.8,0.1,1-0.2c1.6-3.4,3-7,4-10.6c0.1-0.3-0.9-0.1-1,0.2
			c-1.9,5-3.6,10-5.3,15c-0.1,0.2,0.9,0.1,1-0.2L89.1,89.2z"/>
		<path d="M93.4,76.7L76,133.4c-0.1,0.2,0.9,0.1,0.9-0.2L94,88.1L93,88.2l-11.9,34.5c-0.1,0.2,0.9,0.1,0.9-0.1
			c3.8-9.2,7.5-18.4,12.2-27.2l-0.9,0.2c-2.9,8.4-5.9,16.8-9.1,25.1l1-0.1c2.2-6.3,4.5-12.7,8.9-17.8l-0.9,0.1
			c-1.7,5.1-3.6,10.2-5.6,15.2c-0.1,0.2,0.9,0.1,1-0.2c2-5,3.9-10.1,5.6-15.2c0.1-0.3-0.8,0-0.9,0.1c-4.5,5.2-6.8,11.6-9,17.9
			c-0.1,0.2,0.9,0.1,1-0.1c3.1-8.3,6.1-16.7,9-25.1c0.1-0.2-0.8-0.1-0.9,0.2c-4.6,8.8-8.4,18-12.2,27.2l0.9-0.1L94,88.1
			c0.1-0.2-0.9-0.1-0.9,0.2L76,133.4l0.9-0.2l17.4-56.7C94.4,76.3,93.5,76.4,93.4,76.7L93.4,76.7z"/>
		<path d="M70.3,132.2l11.4-32c0.1-0.2-0.9,0-0.9,0.2l-14.1,34.4l1-0.2c2.6-9.1,4.8-18.3,6.4-27.7c0-0.2-0.9,0.1-0.9,0.2
			c-4.8,6-5.6,14.1-10.7,19.9l1-0.2c1-6.2,3.1-12.2,6.1-17.7l-0.9,0.2c-1.2,4.1-3,8-5.3,11.7l0.9-0.2c0.4-4,1.6-7.8,3.5-11.3l-1,0.2
			c-1.2,3.2-2.8,6.2-4.7,9l0.9-0.2c0.8-3.5,1.9-6.8,3.2-10.1c0.1-0.1-0.8,0-0.9,0.2c-0.6,1.4-1.5,2.6-2.5,3.7l0.9-0.1
			c0.3-1.3,0.7-2.6,1.3-3.9c0-0.1-0.8-0.1-1,0.2c-0.6,1.2-1,2.5-1.3,3.9c0,0.2,0.8,0,0.9-0.1c1-1.1,1.9-2.4,2.6-3.8l-0.9,0.2
			c-1.4,3.3-2.5,6.6-3.2,10.1c-0.1,0.2,0.8,0,0.9-0.2c1.9-2.8,3.5-5.8,4.7-9c0.1-0.2-0.8,0-1,0.2c-1.9,3.5-3.1,7.4-3.5,11.4
			c0,0.2,0.9-0.1,1-0.2c2.3-3.6,4.1-7.6,5.4-11.7c0.1-0.2-0.8,0-0.9,0.2c-3.1,5.5-5.2,11.5-6.2,17.8c0,0.2,0.9-0.1,0.9-0.2
			c5.1-5.8,6-13.9,10.7-19.9l-0.9,0.2c-1.6,9.3-3.8,18.5-6.4,27.6c0,0.2,0.9,0,1-0.2l14.1-34.4l-0.9,0.2l-11.4,32
			C69.4,132.5,70.3,132.4,70.3,132.2L70.3,132.2z"/>
		<path d="M63.2,110.1c1.6-2.9,3.4-5.6,5.4-8.3c0.9-1.2,1.8-2.4,2.8-3.6c1.1-1.3,2.3-3.3,4.2-3.5l-0.4-0.3
			c-0.3,4.9-1.4,9.7-3.2,14.2h0.9c1.1-4.7,3.2-9,6.3-12.7l-0.9-0.1c-0.7,5.1-1.9,10.2-3.4,15.2c-0.1,0.4,0.8,0.3,0.9,0
			c1.3-3.2,2.8-6.4,4.5-9.5c0.4-0.8,0.9-1.5,1.4-2.2c0.5-0.9,1.1-1.7,1.8-2.4c0.4-0.3,1.5-0.7,2-0.2c0.2,0.2-0.2,1.3-0.2,1.5
			c-0.2,0.9-0.4,1.9-0.6,2.8l-5.2,23c-0.1,0.4,0.8,0.3,1,0c1.8-5.4,3.6-10.8,5.7-16c2-4.9,4.2-10.7,8.4-14.3l-0.8-0.2
			c-2.2,8.2-4.9,16.2-7.9,24.1l0.9,0.1c1.9-5.2,3.8-10.6,7.6-14.8l-0.9-0.1c-0.7,4.5-1.8,9-3.2,13.3c-0.1,0.4,0.9,0.3,1-0.1
			c1.4-4.4,2.4-8.8,3.2-13.3c0.1-0.4-0.7-0.3-0.9-0.1c-3.8,4.3-5.8,9.7-7.7,15c-0.2,0.5,0.8,0.5,0.9,0.1c3.1-8,5.7-16.1,8-24.3
			c0.1-0.4-0.6-0.3-0.8-0.2c-4,3.4-6.2,8.7-8.2,13.4c-2.4,5.6-4.3,11.4-6.2,17.2h1l3.3-14.7l1.6-7c0.5-2.2,1.3-4.6,1.1-6.9
			c0-0.1-0.2-0.2-0.3-0.2c-2.9-0.3-4.6,3-5.9,5.1c-2.1,3.4-3.9,6.9-5.5,10.6h1c1.5-5,2.6-10,3.4-15.2c0.1-0.4-0.7-0.3-0.9-0.1
			c-3.2,3.8-5.4,8.2-6.5,13c-0.1,0.4,0.8,0.3,0.9,0c1.9-4.6,3-9.4,3.3-14.4c0-0.2-0.2-0.3-0.4-0.3c-3.1,0.3-5.1,3.8-6.8,6
			c-2.4,3.2-4.6,6.5-6.6,9.9C62.1,110.4,63,110.4,63.2,110.1L63.2,110.1z"/>
		<path d="M68.2,123.7c-1.3,4.7-3,9.4-5.1,13.8l1-0.2c-0.8-2.7,0.1-5.4,1.1-7.9l-1,0.1c-0.3,2.4-0.9,4.8-1.6,7.2
			c-0.1,0.3,0.9,0.2,1-0.1c0.3-1.1,0.7-2.1,1.2-3.2c0.4-0.9,1.1-3.2,2.2-3.4l-0.4-0.1c0.1,1.8-0.3,4.3,0.6,5.9
			c0.1,0.3,0.8,0.1,0.9-0.1l3.6-5.6c0.2-0.4-0.7-0.3-0.9,0l-3.6,5.6l0.9-0.1c-0.8-1.6-0.5-4.1-0.6-5.8c0-0.1-0.3-0.1-0.4-0.1
			c-2.8,0.5-3.8,4.9-4.5,7.2l1-0.1c0.7-2.4,1.3-4.8,1.6-7.2c0.1-0.4-0.9-0.1-1,0.1c-1,2.6-1.9,5.3-1.1,8c0.1,0.4,0.9,0,1-0.2
			c2.1-4.5,3.8-9.1,5.1-13.9C69.3,123.2,68.3,123.4,68.2,123.7L68.2,123.7z"/>
		<path d="M74.4,101.2c0.5-1.4,1-2.7,1.6-4c0.5-1.1,1-3,2.2-3.5l-0.7-0.1c0.2,2.9-0.7,5.6-1.6,8.3c-0.1,0.4,0.8,0.3,0.9,0l2.2-5.4
			h-0.9c-0.6,2.8-1.4,5.5-2.5,8.2l0.9,0.1c1-2.4,1.9-5,2.5-7.5c0.1-0.4-0.7-0.2-0.9-0.1c-0.6,0.7-1.3,1.4-2,2l0.9,0.1
			c0-1.1,0.3-2.1,0.7-3.1h-0.9l-1.6,4.7c-0.1,0.4,0.8,0.3,0.9,0c0.6-1.3,1.4-2.6,2.3-3.7l-0.9-0.1c-1,4.8-2.1,9.7-3.2,14.5
			c-0.1,0.4,0.9,0.3,1-0.1c1.1-4.8,2.2-9.7,3.2-14.5c0.1-0.4-0.7-0.2-0.9-0.1c-1,1.2-1.8,2.5-2.4,3.9H76l1.6-4.7
			c0.1-0.4-0.8-0.3-0.9,0c-0.5,1-0.7,2.1-0.8,3.3c0,0.5,0.7,0.2,0.9,0.1c0.7-0.6,1.4-1.3,2-2l-0.9-0.1c-0.6,2.5-1.4,5-2.4,7.4
			c-0.2,0.5,0.8,0.4,0.9,0.1c1.1-2.7,2-5.5,2.6-8.3c0.1-0.4-0.8-0.3-0.9,0l-2.1,5.4h0.9c1.1-2.7,1.6-5.6,1.6-8.5
			c0-0.3-0.6-0.2-0.7-0.1c-1.2,0.5-1.7,1.6-2.2,2.8c-0.8,1.7-1.5,3.5-2.1,5.3C73.4,101.7,74.3,101.6,74.4,101.2L74.4,101.2z"/>
		<path d="M81.6,95.4c-1.6,4.5-3,9.2-4,13.9c-0.1,0.5,0.8,0.3,0.9,0l3.1-6.9l1.5-3.3c0.5-1.1,1-2.6,2.1-3.3l-0.7-0.2
			c-0.3,4.3-0.7,8.5-1.4,12.7c-0.1,0.5,0.8,0.3,0.9,0c1-2.2,2-4.4,3.2-6.6s2.3-4.9,4.5-6l-0.7-0.2c-0.4,3.3-1.1,6.6-2,9.8
			c-0.1,0.4,0.8,0.3,1,0c1.9-3.8,2.8-8,4.9-11.7h-1c-1.2,5.2-2.8,10.3-4.8,15.2c-0.2,0.5,0.8,0.5,0.9,0.1c2-5,3.6-10.2,4.8-15.4
			c0.1-0.5-0.8-0.3-0.9,0c-2.2,3.7-3,7.9-4.9,11.7H90c0.9-3.2,1.6-6.5,2-9.8c0-0.3-0.5-0.3-0.7-0.2c-2,1-3.1,3-4.2,4.9
			c-1.5,2.7-2.8,5.4-4,8.2h0.9c0.7-4.2,1.1-8.4,1.4-12.7c0-0.3-0.5-0.3-0.7-0.2c-1.9,1-2.5,3.4-3.3,5.2l-3.9,8.7h0.9
			c1-4.7,2.4-9.2,4-13.7C82.8,95,81.8,95,81.6,95.4L81.6,95.4z"/>
		<path d="M78.1,110c0.5-5.2,2.4-10,4.3-14.8c0.2-0.5-0.8-0.5-0.9-0.1l-3.6,8.7h0.9c0.4-2.6,1.3-5.1,2.6-7.4l-0.9-0.1
			c-0.7,1.4-1.5,2.8-2.4,4.2l0.9,0.1c0.8-1.8,1.7-3.6,2.6-5.4c0.3-0.5-0.7-0.5-0.9-0.1c-0.9,1.8-1.8,3.6-2.6,5.4
			c-0.2,0.5,0.7,0.4,0.9,0.1c0.9-1.3,1.6-2.7,2.4-4.2c0.2-0.5-0.7-0.5-0.9-0.1c-1.3,2.4-2.2,4.9-2.6,7.6c-0.1,0.5,0.8,0.3,1,0
			l3.6-8.7L81.5,95c-1.9,4.8-3.8,9.7-4.4,15C77.2,110.5,78.1,110.4,78.1,110L78.1,110z"/>
		<path d="M77.8,116.3c1.1-5,2.3-10.1,5.8-13.9l-0.9,0.1c-1.2,5.8-2.7,11.6-4.4,17.2l1-0.1c0.9-4.4,1.9-9,4.6-12.7l-0.9,0.1
			c-1.2,5.7-2.6,11.4-4.5,17l0.9-0.1c0.6-2.2,1.3-4.4,3-6.1l-0.9,0.1c-0.2,2.9-0.6,5.9-1.3,8.7l0.9-0.1c0.7-4,1.9-7.8,3.8-11.4
			l-1,0.2c-0.1,3.3-0.6,6.6-1.7,9.8l1-0.1c1.2-4.3,2.4-8.6,4.9-12.3l-0.9,0.1c0,2.5-0.4,4.9-1.4,7.1l1-0.1c0.6-2.5,1.2-4.9,2.9-6.9
			l-0.9,0.1v3.1c0,0.3,0.8,0,0.9-0.1c0.4-0.6,0.7-1.2,1-1.9c0.1-0.3-0.8-0.2-0.9,0.1c-0.3,0.6-0.6,1.2-1,1.8l0.9-0.1v-3.1
			c0-0.3-0.8,0-0.9,0.1c-1.7,2-2.4,4.5-3,7c-0.1,0.3,0.9,0.1,1-0.1c1-2.3,1.5-4.8,1.4-7.3c0-0.3-0.8,0-0.9,0.1
			c-2.5,3.8-3.8,8.1-5,12.4c-0.1,0.3,0.9,0.1,1-0.1c1-3.2,1.6-6.6,1.7-9.9c0-0.3-0.9,0-1,0.2c-1.8,3.6-3.1,7.4-3.8,11.4
			c-0.1,0.3,0.9,0.1,0.9-0.1c0.7-2.9,1.1-5.8,1.3-8.7c0-0.4-0.8,0-0.9,0.1c-1.7,1.7-2.4,4-3,6.2c-0.1,0.3,0.9,0.1,0.9-0.1
			c1.8-5.6,3.3-11.3,4.5-17c0.1-0.3-0.8-0.1-0.9,0.1c-2.7,3.8-3.7,8.3-4.6,12.8c-0.1,0.3,0.9,0.1,1-0.1c1.7-5.7,3.2-11.4,4.4-17.2
			c0.1-0.4-0.8,0-0.9,0.1c-3.6,3.9-4.8,9-5.9,14c-0.1,0.3,0.9,0.2,1-0.1L77.8,116.3z"/>
		<path d="M90.2,100.6c-0.2,0.6-0.5,1.2-0.9,1.8h0.9c0.5-3.6,1.8-7,3.9-10.1h-0.9L92,98.2c-0.1,0.4,0.8,0.1,0.9,0l0.9-1.2
			c0.3-0.3-0.7-0.3-0.9,0L92,98.2h0.9l1.2-5.9c0.1-0.4-0.8-0.1-0.9,0c-2.1,3.1-3.4,6.6-3.9,10.2c-0.1,0.4,0.8,0.1,0.9,0
			c0.4-0.6,0.7-1.2,1-1.9c0.1-0.3-0.8-0.2-1,0.1L90.2,100.6z"/>
	</g>
</g>
<path d="M61.6,135.7c2.3-4,3.2-8.7,2.5-13.3c-0.3-2.5-0.8-5.1-1.1-7.6s-1-6.3,0.6-8.5c0.4-0.5-0.5-0.7-0.8-0.3
	c-1.2,1.7-1,3.8-0.9,5.8c0.1,2.6,0.4,5.2,0.8,7.7c0.9,5.6,1,11-2,16C60.4,136,61.4,136.1,61.6,135.7L61.6,135.7z"/>
<path d="M63.4,106.3c0.1,2.2-0.2,4.4-0.9,6.5l1-0.2c-0.2-2.1-0.1-4.2,0.4-6.2l-1,0.2c0.3,1.7,0.1,3.7,0.2,5.5l0.5,6.2l1-0.3
	c-0.5-1.6-0.8-3.3-0.9-5l-1,0.3c0.8,2.8,1.3,5.7,1.4,8.7l1-0.2c-0.5-1.3-0.7-2.6-0.8-4c0-0.2-1-0.1-1,0.3c0,1.4,0.3,2.7,0.8,4
	c0.1,0.3,1,0,1-0.2c-0.1-2.9-0.5-5.9-1.4-8.7c-0.1-0.3-1,0-1,0.3c0.1,1.7,0.5,3.4,0.9,5c0.1,0.3,1,0,1-0.3l-0.5-6.2
	c-0.1-1.8,0.2-3.8-0.2-5.5c0-0.3-0.9,0-1,0.2c-0.5,2.1-0.7,4.2-0.4,6.3c0,0.3,0.9,0,1-0.2c0.6-2.2,0.9-4.4,0.9-6.6
	C64.4,105.8,63.4,105.9,63.4,106.3L63.4,106.3z"/>
<path d="M62.1,136.1c0.1-2.5,2-4.4,2.3-6.9c0.4-2.7-0.4-5.6,0.9-8.1h-0.9c-0.2,4.9,0.1,10.5-2.6,14.9l0.9,0.1c0.8-2,1.8-3.9,3.1-5.6
	h-0.9c-0.5,1.7-1.2,3.3-2.1,4.8c-0.1,0.1,0,0.2,0.1,0.3c0,0,0,0,0,0c0.8,0.5,1.8,0.4,2.6-0.2l-0.7-0.3c-0.3,0.3-2.1,2-0.3,0.3
	c0.2-0.2,0.4-0.4,0.6-0.6c0.4-0.4,0.6-1,0.7-1.6c0.1-0.4-0.7-0.2-0.9-0.1c-0.3,0.2-0.5,0.4-0.6,0.7l0.9,0.1c1.2-2.1,2.3-4.4,3.1-6.7
	c0.1-0.4-0.8-0.2-0.9,0c-0.5,0.8-1,1.7-1.3,2.7c-0.1,0.4,0.8,0.3,0.9,0c0.4-1,0.7-1.9,1-2.9c0.1-0.4-0.7-0.2-0.9-0.1l-0.4,0.5h0.9
	c-0.3-0.9-0.4-1.9-0.3-2.9l-1,0.2c0.1,0.7,0.1,1.3,0,2l1-0.2l-0.1-1.7c0-0.3-0.6-0.2-0.7-0.1c-0.5,0.2-0.9,0.5-1.2,0.9l0.9,0.1
	c0.8-2.1,1.7-4.1,2.7-6c0.2-0.4-0.7-0.4-0.9-0.1c-1,1.9-1.9,3.9-2.7,5.9c-0.2,0.5,0.7,0.4,0.9,0.1l0.8-0.7l-0.7-0.1l0.1,1.7
	c0,0.4,0.9,0.1,1-0.2c0.1-0.7,0.1-1.4,0-2.1c-0.1-0.4-0.9-0.1-1,0.2c-0.1,1,0,2,0.3,3c0.1,0.3,0.7,0.2,0.9,0l0.4-0.5l-0.9-0.1
	c-0.2,0.9-0.6,1.9-0.9,2.8h0.9c0.3-0.9,0.7-1.7,1.2-2.5h-0.9c-0.8,2.3-1.8,4.4-3,6.5c-0.2,0.4,0.7,0.4,0.9,0.1l0.5-0.6l-0.9-0.1
	c-0.2,1.4-1.3,1.5-1.7,2.5c-0.1,0.3-0.2,0.6,0.1,0.9c0.8,0.5,2-1,2.4-1.4s-0.5-0.5-0.7-0.3l-0.8-0.2c0.1-0.2,0.3-0.5,0.4-0.8
	c0.2-0.4,0.4-0.9,0.6-1.4c0.3-0.8,0.6-1.5,0.8-2.3c0.1-0.5-0.8-0.2-0.9,0c-1.3,1.7-2.3,3.6-3.1,5.6c-0.2,0.5,0.7,0.4,0.9,0.1
	c2.8-4.4,2.4-10,2.7-15c0-0.4-0.8-0.3-0.9,0c-1.2,2.5-0.6,5.1-0.9,7.8s-2.2,4.8-2.4,7.4C61.2,136.6,62.2,136.4,62.1,136.1
	L62.1,136.1z"/>
<path d="M53.6,46c0.2-1.5,0.6-2.9,1.2-4.3c0.5-1.1,1.1-2,1.9-2.9c0.5-0.7,1.1-1.4,1.8-2c0.8-0.6,1.7-0.9,2.6-1.4
	c2.1-1.4,4.5-2,7-1.7c0.9,0.1,1.7,0.3,2.5,0.6c0.4,0.1,0.8,0.3,1.2,0.5c0.2,0.1,0.9,0.7,1.1,0.7c-0.6,0-1.2-0.1-1.7-0.1
	c-1,0-2.1,0.3-3,0.8c-0.5,0.3-1,0.7-1.6,0.8c-0.9,0.1-1.8,0.1-2.7,0.1c-3.5,0.1-6.7,2.2-8.2,5.4c-0.2,0.3-0.2,0.7-0.2,1
	c1.2-1.9,2.9-3.5,4.8-4.7c0.7-0.5,1.6-0.7,2.5-0.6c0.9,0.1,1.6,0.7,1.9,1.5c0.1,0.4,0,0.7-0.3,1c-0.4,0.3-1,0.1-1.5-0.1
	c-1.1-0.3-2.2-0.2-3.3,0.2c-1,0.5-2,1.1-2.7,2c-0.4,0.4-0.7,0.9-0.8,1.4c0,0.1,0,0.1,0,0.2c0.1,0.2,0.3,0.1,0.5,0
	c1.1-0.8,1.8-2.1,3.1-2.7c1.2-0.6,2.6-0.3,3.6,0.6c0.4,0.4,0.7,0.8,0.9,1.3c0.5,1.2,0.9,2.4,1.1,3.6c0.1,0.1,0,0.3-0.1,0.4
	c0,0-0.1,0-0.1,0c-0.8,0-1.6-0.1-2.3-0.4c-0.8-0.1-1.6,0.2-2.3,0.6c-0.7,0.5-1.2,1-1.7,1.7c-0.3-2.3,1.4-4.5,3.7-4.8
	c0.4,0,0.8,0,1.1,0c-1.8-1.8-4.7-1.9-6.5-0.1c-0.5,0.5-1,1.1-1.3,1.8c-0.1,0.2-0.2,0.5-0.2,0.8"/>
<path d="M53.9,46c0.3-2,1-4,2.1-5.8c0.5-0.8,1.1-1.5,1.7-2.2c1-1,2.1-1.8,3.4-2.4c2.1-1.3,4.5-2,7-1.8c1.1,0.1,2.1,0.4,3.1,0.8
	c0.6,0.3,1.1,0.7,1.7,1l0.3-0.3c-1.7-0.2-3.4,0.1-5,0.8c-2,1.1-4.1,0.5-6.3,1.1c-2.6,0.7-6.5,3.3-6.5,6.3c0,0.2,0.4,0,0.5-0.1
	c1.1-1.7,2.6-3.2,4.3-4.3c1-0.6,3.2-1.1,4-0.1c0.3,0.4,0.3,1.1-0.2,1.4c-0.1,0.1-0.3,0.2-0.5,0.2c-0.5,0.1-1.6-0.3-2.1-0.3
	c-1.9,0.1-5.5,1.9-5.4,4.1c0,0,0,0,0,0.1c0.7,0.3,1.3-0.4,1.7-0.8s0.6-0.7,1-1c0.3-0.3,0.5-0.5,0.8-0.7l2.9-0.1
	c1.3,0.5,1.9,2.1,2.2,3.3c0.1,0.4,0.5,1.3,0.4,1.6c-0.3,0.8-1.2,0.5-1.7,0.4c-0.5-0.1-1-0.1-1.4,0c-1.3,0.4-2.5,1.2-3.2,2.4h0.5
	c-0.3-2.2,1.3-4.3,3.5-4.6c0.3,0,0.7,0,1,0c0.1,0,0.4-0.1,0.3-0.2c-2-1.9-5.1-1.9-7.1,0.1c-0.7,0.7-1.1,1.6-1.3,2.6
	c0,0.2,0.4,0.1,0.5-0.1c0.5-2.4,2.8-4,5.2-3.6c0.8,0.2,1.6,0.6,2.2,1.1l0.3-0.2c-2.5-0.3-4.8,1.4-5.2,3.9c0,0.3-0.1,0.7,0,1.1
	c0,0.2,0.4,0,0.5-0.1c0.4-0.6,1-1.2,1.6-1.7c1.9-1.1,2.3-0.3,3.7-0.2c0.3,0.1,0.7,0,1-0.1c0,0,0.1-0.1,0.1-0.1
	c0-1.8-0.6-3.5-1.6-4.9c-0.8-1-2-1.5-3.3-1.3c-1.4,0.2-2.2,1.2-3.2,2.1c-0.2,0.2-0.4,0.4-0.7,0.6v-0.8c0.5-0.7,1.2-1.3,2-1.8
	c1.2-0.7,2.6-1,4-0.7c0.3,0.1,0.6,0.2,0.9,0.2c2.4,0.1,1.1-2.8-0.7-3c-3.2-0.4-5.9,3.2-7.6,5.4l0.5-0.1c0-1.8,1.7-3.6,3-4.5
	c1.6-1.2,3.5-1.8,5.5-1.7c0.9,0.1,1.9,0.1,2.8-0.2c0.7-0.3,1.3-0.8,2.1-1.1c1.2-0.3,2.4-0.4,3.6-0.3c0.1,0,0.5-0.2,0.3-0.3
	c-1-0.3-1.8-1-2.8-1.4c-0.9-0.3-1.8-0.4-2.7-0.5c-2-0.1-3.9,0.3-5.7,1.2c-4.7,2-7.9,6.3-8.6,11.3C53.4,46.3,53.8,46.2,53.9,46
	L53.9,46z"/>
<path d="M55.9,31.3c0.1,1.1,0.9,2.1,1.9,2.5c1.2,0.3,2.5,0.2,3.7-0.3c1.2-0.5,2.4-0.7,3.7-0.5c-0.6-0.9-1.3-1.6-2.1-2.2
	c-0.8-0.6-1.9-0.7-2.9-0.3c-0.5,0.2-0.9,0.7-1.3,0.9c-0.9,0.5-2.1,0.4-2.8-0.3"/>
<path d="M55.7,31.4c1,5,6.5,1.3,9.4,1.8c0.1,0,0.5-0.1,0.4-0.2c-0.9-1.2-2-2.6-3.6-2.8c-2-0.2-3.6,2.3-5.6,0.8
	c-0.1-0.1-0.6,0.1-0.4,0.2c0.8,0.6,1.8,0.8,2.7,0.5c1.2-0.4,2-1.4,3.4-1.2c1.2,0.2,2.2,1.7,2.9,2.6l0.4-0.2c-3-0.5-8.3,3.1-9.2-1.6
	C56.1,31.1,55.6,31.2,55.7,31.4z"/>
<path d="M66.5,46.1c-0.3-0.4-0.5-0.9-0.6-1.4c-0.1-0.6-0.2-1.2-0.1-1.8c0-1.1,0.4-2.3,1-3.2c0.5-0.6,1-1.1,1.7-1.5
	c1-0.7,2.2-1.2,3.4-1.4c1.2-0.2,2.5,0,3.6,0.6c1.3,0.8,2.2,2,2.7,3.3c0.3,0.8,0.5,1.6,0.6,2.4c0.1,1,0.2,2,0.1,2.9
	c0.1,1.9-0.2,3.8-0.7,5.6c0,0.1-0.1,0.2-0.1,0.2c-0.1,0.1-0.2,0.1-0.3,0.1c-2.3,0.1-4.6-0.4-6.6-1.5c-0.8-0.4-1.6-1-2.2-1.8
	c-0.6-0.7-0.9-1.7-0.8-2.6c0.1-0.8,0.5-1.5,1.1-2.1c0.6-0.9,1.6-1.5,2.6-1.8c1.1-0.2,2.2,0.2,2.8,1.1c-0.7,0.1-1.3,0.6-1.5,1.2
	c-0.2,0.6,0.2,1.3,0.8,1.5c0,0,0.1,0,0.1,0c0.6,0,1.2-0.4,1.4-1c0.4-0.8,0.3-1.8-0.1-2.6c-0.4-0.6-0.8-1.1-1.4-1.5
	c-0.5-0.4-1.1-0.7-1.8-0.8c-1.5-0.2-2.9,0.4-3.9,1.6c-1.1,1.2-1.6,2.7-1.7,4.3"/>
<path d="M66.7,46c-1.9-3.3,0-7,3.2-8.5c3.7-1.6,7,0.2,8.2,3.9c0.8,2.9,0.9,6,0.2,8.9c-0.4,1.9-2.2,1.5-3.8,1.2
	c-1.6-0.3-3.2-1.1-4.5-2.1c-1.1-0.8-1.7-2.1-1.6-3.4c0.2-0.7,0.5-1.4,1-2c0.3-0.4,0.6-0.7,1-0.9c0.7-0.4,2.8-0.8,3.4-0.2
	s0,0.6-0.5,1c-0.4,0.4-0.6,1-0.4,1.6c0.5,1.1,1.8,0.9,2.4,0.1c1.3-1.6,0.2-3.6-1.2-4.6c-3.8-2.7-7.6,1.2-7.8,5.1
	c0,0.2,0.5,0.1,0.5,0c0.1-2.7,2.2-6.7,5.6-5.5c1.1,0.4,2.1,1.1,2.6,2.2c0.2,0.5,0.6,1.5,0.3,2l-1.7,1c-0.6-1-0.2-1.7,1-2.1
	c0.1,0,0.3-0.1,0.2-0.2c-2-2.8-5.8-0.3-6.7,2.1c-1.5,4.1,4.5,6.3,7.5,6.7c1.4,0.2,2.5,0.5,2.9-0.9c0.6-2.4,0.8-4.9,0.5-7.4
	c-0.4-4.2-3.3-7.9-7.8-6.9c-4.2,0.9-7.5,5.2-5.1,9.4c0.1,0.1,0.5,0,0.4-0.2L66.7,46z"/>
<path d="M66.6,88.7c-3.7-1.4-7.6-2.5-11.5-1.3c-1.2,0.2-2.3,1-2.8,2.2c-0.7,1.8,0.4,3.9,1.2,5.4c0.3,0.5,2.1-0.1,1.9-0.5
	c-1.2-2.2-2.9-6,1-6.6c3-0.5,5.9,0.6,8.7,1.7C65.5,89.7,67.2,88.9,66.6,88.7L66.6,88.7z"/>
<path d="M52.4,82.9c-0.4-0.2-0.7-0.5-0.9-0.8c-0.3-0.2-0.6-0.4-0.7-0.8l-0.1-0.4c-0.6,0.1-0.7,0.2-0.3,0.1s0.5-0.1,0.7-0.2
	c0.3-0.1,0.6-0.3,0.8-0.5c1.3-1.2-0.1-3.2-0.9-4.3l-1.3,0.5c1.6,0.4,2.6,1.2,4.2,0.6c0.4-0.1,0.8-0.4,1.1-0.7
	c0.5-0.7-0.1-1.9,0.5-2.4l-1.2,0.3c0.8,0.1,1.7,2,2.2,2.5c0.5,0.7,1.1,1.2,1.7,1.8c0.6,0.5,1.5,0.6,2.2,0.2c1.1-0.7,0.5-2.9,0.4-4
	c-0.2-2.2-0.7-4.3-1.5-6.4l-1.4,0.4c1,1.7,2.3,2.6,4.2,1.7c2.5-1.2,2.3-4.3,3.1-6.6l-1.4,0.3c0.5,1.3,0.9,2.6,1.5,3.9
	c0.3,0.8,0.6,1.2,1.5,1.4c1.7,0.1,3.4-0.3,4.8-1.3l-1.2,0.1c-0.3,1.5-0.8,3-1.1,4.5c-0.2,1.3-0.6,3.7,0.3,4.9
	c1.1,1.4,3.9-0.3,4.9-1.1c0.3-0.2-1-0.1-1.3,0.1c-3.1,2.3-2.7-2.5-2.5-3.7c0.2-1.7,0.8-3.3,1.1-5c0.1-0.3-1.1,0.1-1.2,0.1
	c-0.9,0.6-2.6,1.3-3.4,0.3c-0.2-0.4-0.4-0.8-0.5-1.2c-0.4-1.1-0.8-2.2-1.3-3.3c-0.1-0.3-1.3,0.1-1.4,0.3c-0.5,1.4-0.6,2.9-1.1,4.2
	c-0.3,0.8-0.8,2-1.9,1.7c-0.6-0.1-1.1-1.2-1.4-1.7c-0.2-0.3-1.5,0.1-1.4,0.4c0.6,1.6,1,3.2,1.3,4.9c0.2,0.9,1,4.5,0.1,5.1l1.1-0.3
	c-1.3,0-2.8-2.6-3.5-3.6c-0.5-0.7-0.8-1.3-1.7-1.1c-0.5,0-1,0.4-1.2,0.9c-0.2,0.6,0.4,1.8-0.6,2c-0.6,0.1-1.8-0.7-2.4-0.8
	c-0.2,0-1.5,0.2-1.3,0.5c0.6,0.7,1,1.6,1.3,2.4c0.3,0.6,0.1,1.4-0.6,1.8c-0.2,0.1-0.5,0-0.6,0.2c-1,0.9,0.6,2.2,1.4,2.6
	C51.4,83.5,52.6,82.9,52.4,82.9L52.4,82.9z"/>
<path d="M51.5,77.6c0.5,1.9,0.9,3.8,1.2,5.7l1.4-0.4c-0.5-0.6-0.8-1.3-0.8-2l-1.4,0.4c0.9,0.9,0.7,2.1,2.1,2.5
	c1.6,0.4,3.3,0.5,4.9,0.6c0.2,0,1.1-0.1,1.2-0.4c0.2-1.7-1-3.2-2-4.5c-0.4-0.5-0.8-1-1.2-1.6c-0.6-0.7-0.9-1.6-0.8-2.5l-1.4,0.4
	c0.3,0.6,3.6,6.8,3.4,7l1.1-0.2c-1.3-0.4-2.6-1.8-3.5-2.8c-1.1-1-2.1-2.2-2.9-3.4c-0.2-0.3-1.4,0.1-1.4,0.4c0,1.1,2,2.3,2.6,3.1
	c0.9,1.1,1.5,2.4,2.8,3.1l1.3-0.6c-1.4-0.5-3.9-0.8-4.2-2.6l-1.4,0.4c0.5,1.5,1.6,3.4,3.3,3.8c0.5,0.1,1,0.1,1.5-0.1
	c0.5-0.2,0.8-0.7,1.2-0.9l-0.8,0.1l0.3,0.1c0.2,0.1,1.6-0.3,1.3-0.6c-1.6-1.2-3.3-2.3-5-3.3c-0.1,0-1.1-0.6-0.6-0.4
	c0.4,0.1,0.7,0.4,0.9,0.7c0.5,0.6,1,1.2,1.4,1.9c0.2,0.3,1.4-0.1,1.4-0.4c0.1-1-0.2-1.9-0.8-2.7c-0.6-0.8-1.6-1-2.1-1.8l-1.3,0.5
	l0.4,0.2c0.3,0.2,1.7-0.4,1.2-0.6l-0.4-0.2c-0.2-0.1-1.5,0.2-1.3,0.5c0.5,0.7,1.2,0.9,1.8,1.4c0.8,0.8,1.3,1.9,1.3,3l1.4-0.4
	c-1.5-2-3.2-4.2-5.7-2.2c0,0-0.3,0.2-0.1,0.3c2.2,1.2,4.3,2.5,6.3,4l1.3-0.6c-0.7-0.3-1.1,0-1.8,0.3s0.1,0.3-0.7,0.2
	c-0.5-0.1-0.9-0.3-1.2-0.7c-0.7-0.7-1.2-1.6-1.5-2.6c-0.1-0.4-1.5,0-1.4,0.4c0.3,2,2.9,2.3,4.4,2.8c0.3,0.1,1.6-0.4,1.3-0.6
	c-1.1-0.6-1.7-1.7-2.4-2.7s-2.9-2.4-2.9-3.4l-1.4,0.4c1.4,1.9,3.1,3.7,5,5.2c0.9,0.7,1.9,1.6,2.9,0.7c0.1-0.1,0.2-0.1,0.2-0.2
	c-0.4-1.2-0.9-2.3-1.5-3.4c-0.6-1.3-1.2-2.5-1.9-3.8c-0.2-0.4-1.5,0-1.4,0.4c0.1,1.2,0.6,2.3,1.4,3.2c1,1.3,2.8,3.3,2.6,5.1l1.2-0.4
	c-1.5,0-3-0.2-4.5-0.5c-1.4-0.4-1.2-1.6-2.1-2.5c-0.2-0.2-1.4,0-1.4,0.4c0.1,0.8,0.4,1.5,0.9,2.2c0.2,0.3,1.5-0.1,1.4-0.4
	c-0.3-1.9-0.7-3.8-1.2-5.7C52.9,76.8,51.4,77.2,51.5,77.6L51.5,77.6z"/>
<path d="M58.3,84c0.1,0.6,0.8,0.6,1.3,0.4c0.3-0.1,0.6-0.3,0.8-0.5c0.8-0.7,1.7-1.2,2.7-1.5c3.3-1,8-1.8,10.9,0.7
	c0.3,0.3,1.6-0.3,1.4-0.5c-2.2-2-5.4-1.9-8.1-1.6c-1.6,0.2-3.3,0.5-4.9,1c-0.6,0.2-1.2,0.4-1.8,0.7c-0.6,0.4-1.1,0.8-1.6,1.3l1-0.3
	l-0.2-0.3C59.6,83.2,58.2,83.6,58.3,84L58.3,84z"/>
<path d="M75.7,83.4c-1.3-1-2.6-2-4-2.9c-1.4-0.7-2.8-1.6-4-2.6c-1.1-1.1-2-2.5-3.1-3.6c-1.2-1.2-2.5-2.2-3.9-3.1
	c-0.2-0.1-1.5,0.2-1.4,0.4c0.7,1.5,1.2,3.1,1.5,4.7c0.1,0.6,0.4,1.7,0.1,2.2c-0.7,1.2-2-0.2-2.5-0.7c-0.2-0.2-1.5,0.2-1.4,0.4
	c0.4,0.9,1,1.7,1.6,2.5c0.6,0.8,0.8,1.8,1.3,2.7c0.2,0.3,1.3-0.1,1.4-0.3c0.3-0.4,0.5-0.9,0.4-1.4c0-0.3-0.9-1.9-0.7-2L59.8,80
	c0.5,0.2,0.5,1,0.8,1.4c0.4,0.5,0.9,0.7,1.4,0.8c0.3,0,1.3-0.1,1.3-0.5c0.1-0.8-0.4-1.4-0.6-2.2c-0.3-0.9-0.3-1.9-0.1-2.8L61.3,77
	c0.4,1,0.8,2.1,1.2,3.1c0.2,0.6,0.4,1.4,0.9,1.8c0.3,0.2,1-0.1,1.2-0.2c1.1-0.6,0.1-2.5-0.2-3.3c-0.6-1.9-1.3-3.8-2-5.6L61,73.2
	c2.9,1.5,3.6,5.3,4.6,8.2c0,0.2,0.5,0.1,0.6,0.1c1.5-0.3,1.2-1.4,1.2-2.8L66,79c0.9,0.6,1.3,1.6,2.1,2.2s2.3,0.7,3.3,1
	c0.3,0.1,1.6-0.4,1.2-0.5c-1.2-0.3-2.6-0.5-3.5-1.4c-0.5-0.6-1.1-1.2-1.7-1.7c-0.2-0.2-1.4,0.1-1.4,0.4c0,0.8,0,1.5-0.2,2.3l0.9-0.4
	h-0.2L67,81c-1-2.9-1.7-6.8-4.7-8.3c-0.2-0.1-1.5,0.1-1.4,0.4c0.3,0.9,3.4,8.1,2.5,8.6l1.2-0.2c-0.6-0.4-0.8-1.7-1-2.3
	c-0.3-0.8-0.6-1.7-1-2.6c-0.1-0.3-1.4,0.1-1.4,0.3c-0.2,0.8-0.2,1.6-0.1,2.4c0.2,1,0.8,1.8,0.8,2.8l1.3-0.5c-1-0.2-1.1-0.7-1.6-1.5
	c-0.2-0.3,0-0.5-0.5-0.7c-0.5-0.1-1,0-1.3,0.3L59.7,80c0,0-0.1,0.1-0.1,0.1c0.3,1.2,1.3,2.1,0.4,3.3l1.4-0.3
	c-0.5-0.9-0.7-1.8-1.3-2.7c-0.6-0.8-1.2-1.6-1.6-2.5L57,78.3c1.2,1.4,3.2,1.7,4.7,0.6c0.7-0.6,0.9-1.6,0.6-2.5
	c-0.3-1.8-0.8-3.6-1.6-5.3l-1.4,0.4c1.4,0.8,2.6,1.8,3.7,2.9c1.2,1.2,2.1,2.7,3.3,3.8c1.1,1,2.4,1.8,3.7,2.5c1.5,0.9,2.9,1.9,4.2,3
	C74.6,84.1,75.9,83.5,75.7,83.4L75.7,83.4z"/>
<path d="M67.9,80.7c-0.6,0-1.1-0.2-1.6-0.3c-0.6,0-1.1,0.1-1.6,0.2l0.6,0.1c-0.2-0.3-0.1-0.9-0.1-1.2c0-0.4,0-0.8-0.1-1.2
	c-0.1-0.9-0.3-1.7-0.7-2.5c-0.2-0.4-1.6,0-1.4,0.4c0.3,0.7,0.5,1.5,0.7,2.3c0,0.8,0,1.6,0.1,2.4c0.1,0.4,0.4,0.4,0.8,0.3
	c0.5-0.1,1.1-0.2,1.6-0.1c0.3,0.1,0.6,0.1,0.9,0.2c0.4,0,0.7-0.1,1-0.3C68.1,80.9,68.2,80.7,67.9,80.7L67.9,80.7z"/>
<path d="M68.5,79.7c-1.3-4.2-3.2-8.8-3.3-13.2c0-0.8-1.3-0.5-1.5,0.1c-0.3,1.3-0.7,2.6-1.3,3.8c-0.6,1-1.2,2-1.7,3
	c-0.3,0.8,1.2,0.8,1.4,0.2c0.6-1.2,1.2-2.4,1.9-3.5c0.5-1.2,0.9-2.4,1.1-3.6l-1.5,0.1c0.1,4.5,2,9.2,3.3,13.5
	C67.3,80.7,68.8,80.3,68.5,79.7L68.5,79.7z"/>
<path d="M60.5,71.6c1.4,0,2.8-0.2,4.1-0.7l-1-0.2c-0.1,1.4-0.3,3,0.5,4.2c0.3,0.4,1.4,0,1.4-0.5c-0.3-1.4-1.1-2.6-2.3-3.4
	c-0.3-0.2-1.3-0.1-1.4,0.4c-0.4,2.6,3.1,3,4,4.9c0.2,0.5,1.6,0,1.4-0.4c-0.4-0.8-1-1.5-1.8-1.9c-1-0.6-2.4-1.4-2.1-2.8l-1.4,0.4
	c1.2,0.7,2,1.9,2.2,3.2l1.4-0.5c-0.7-1-0.5-2.6-0.4-3.8c0-0.5-0.8-0.3-1-0.2c-1,0.3-2,0.5-3,0.5C60.6,70.8,59.6,71.6,60.5,71.6
	L60.5,71.6z"/>
<path d="M65.2,68.7c1.5,3.5,3.2,7.1,4.2,10.8c0.1,0.5,1.6,0.1,1.4-0.4c-0.9-3.7-2.7-7.2-4.2-10.8C66.4,67.8,65,68.3,65.2,68.7z"/>
<path d="M69.5,79.1c-1.4-2.8-3.4-5.9-3-9.2l-1.4,0.4c0.6,1.1,1.2,2.2,1.6,3.4c0.8,1.2,1.4,2.5,1.9,3.8c0.1,0.3,1.5,0,1.4-0.4
	c-0.5-1.3-1.1-2.6-1.9-3.8c-0.4-1.2-1-2.3-1.6-3.4c-0.2-0.3-1.4,0-1.4,0.4c-0.4,3.3,1.6,6.4,3,9.2C68.2,79.9,69.6,79.4,69.5,79.1z"
	/>
<path d="M69.1,74.3c-0.4-2,1-4,1.8-5.7c0.2-0.3-1.2,0.1-1.3,0.1c-0.8,0.5-1.4,1.2-2.3,1.5c-0.1,0-0.7,0.2-0.7,0.4s0.5,0.5,0.8,0.7
	c0.6,0.4,1.1,0.9,1.5,1.4c0.3,0.3,1.5-0.3,1.4-0.4c-0.3-0.4-0.6-0.8-1-1.1C69,71,68.1,70.6,68,70.2l-0.7,0.4
	c0.6-0.1,1.1-0.3,1.6-0.5c0.6-0.4,1.1-0.9,1.7-1.3l-1.3,0.1c-0.8,1.8-2.2,3.8-1.8,5.8C67.7,75,69.1,74.7,69.1,74.3L69.1,74.3z"/>
<path d="M63.4,67c0.1,2.2-2.6,2.5-4.1,1.5c-0.4-0.3-1.7,0.3-1.1,0.7c2.2,1.5,6.8,0.6,6.6-2.6C64.8,66.2,63.3,66.5,63.4,67L63.4,67z"
	/>
<path d="M78.6,77.4c-1.2,0.2-2-1.2-2.6-2c-0.2-0.3-1.2-0.1-1.3,0.3c-0.3,0.7-0.7,1.4-1.1,2c-0.2,0.3-0.4,0.6-0.7,0.9
	c-0.2,0.3-0.5,0.5-0.9,0.4c-0.7,0.2-0.8,0.2-0.3,0c1.3-0.3,2.5-0.8,3.7-1.5c0.1-0.1,0.4-0.3,0.2-0.5c-1.6-1.6-4.7,2.7-2.4,3.8
	c0.9,0.3,2-0.1,2.5-0.9c0.3-0.4,2.2-2.6,0.9-2.8c-0.4,0-1,0-1.2,0.5c-0.2,0.7-0.3,1.4-0.3,2.1c0,0.5,1.3,0.1,1.4-0.3
	c0.2-0.6,0.3-1.3,0.1-2c-0.1-0.2-0.3-0.2-0.4-0.2c-0.7-0.1-1.4,0.3-1.7,1c-0.3,0.4-0.5,0.9-0.7,1.4c0,0.8,0,1.6-0.1,2.4h1.2
	c-0.4-1.1-0.9-2.1-1.5-3c-0.2-0.4-1.3,0-1.4,0.4c-0.1,0.7-0.1,1.4,0,2.1l1.4-0.5c-0.7-0.6-1.3-1.3-1.7-2.2l-1.3,0.6
	c1.1,0.4,2.3,0.5,3.4,0.1c0.9-0.3,0.7-1-0.2-0.7l-2.1-0.1c-0.2-0.1-1.5,0-1.3,0.6c0.4,0.9,1,1.7,1.8,2.4c0.3,0.3,1.5,0.1,1.4-0.5
	c-0.1-0.6-0.1-1.3,0-1.9L72,79.6c0.6,0.9,1.1,1.9,1.4,3c0.1,0.4,0.9,0.2,1.2,0c0.4-0.2,0.7-0.7,0.7-1.2c0.1-0.5-0.2-1.1-0.1-1.7
	c0.2-0.8,0.5-1.4,1.1-2l-0.9,0.3h0.2l-0.4-0.2c0.2,0.6,0.1,1.2-0.1,1.7l1.4-0.3c0-0.6,0.1-1.3,0.3-1.9l-1.2,0.5
	c-0.5-0.1-0.7,1.9-1.5,1.8c-1.2-0.2,0.5-2.2,0.9-2.5l-0.9,0.3v0.1l0.2-0.5c-0.9,0.6-1.9,1-3,1.2c-0.5,0.1-1,0.3-1.4,0.5
	c-0.6,0.5-0.8,1.1,0,1.4c0.9,0.4,2.4-0.2,3.1-0.8c1.2-1,2.2-2.3,2.8-3.8L74.6,76c1.1,1.5,2.2,2.6,4.1,2.2
	C79.7,77.9,79.5,77.2,78.6,77.4L78.6,77.4z"/>
<path d="M50.4,81.2c0.5,1,1.3,1.8,2.2,2.5l0.4-0.8c-0.4,0.1-0.2-2.2-0.4-2.1l-0.8-0.3c0.3,1.2,0.5,2.5,1.7,3.1
	c1.3,0.5,2.7,0.4,4-0.2c0.6-0.3,1.3-0.8,0.7-1.4s-1.9-0.3-2.4,0c-0.1,0.1-0.3,0.3-0.2,0.5c0.6,1.7,2.4,2.5,4.1,2
	c1.3-0.5,0.4-2-0.7-2.1c-0.4,0-0.9,0.1-1,0.6c-0.6,2.2,1.7,2.3,3,1.5c0.3-0.2,0.6-0.4,0.8-0.7c0.2-0.2-0.1-0.1,0.1-0.3
	c0.1,0,0.4,0,0.5-0.1c1-0.5,2-1.1,2.8-1.8c0.8-0.6-0.4-1-0.9-0.6c-0.9,0.7-1.9,1.2-2.9,1.6c-0.3,0.1-0.5,0.3-0.8,0.6
	c-0.1,0.1-0.8,1-1,0.9s-0.3-1-0.2-1.2l-1,0.6l0.5,0.7l0.6-0.5c-1.1,0.2-2.1-0.4-2.4-1.4l-0.2,0.5c-0.4,0.2,1.1-0.3-0.3,0.2
	c-0.8,0.3-1.7,0.1-2.3-0.4c-0.4-0.7-0.7-1.4-0.8-2.2c-0.1-0.3-0.6-0.3-0.8-0.3c-1.3,0.4-1.2,2-1,3.1c0.2,1,1,1,1.9,0.8
	c0.3-0.1,1-0.6,0.4-0.8c-0.9-0.4-1.4-1.6-2-2.3C51.3,80.2,50,80.6,50.4,81.2L50.4,81.2z"/>
<path d="M66.7,80.4c-0.2-0.5-0.3-1.1-0.3-1.7c0-0.3-0.3-0.5-0.7-0.4s-0.8,0.2-0.8,0.6c0,0.7,0.1,1.3,0.3,2
	C65.4,81.5,66.8,81.1,66.7,80.4L66.7,80.4z"/>
<path d="M63.5,69.9c-0.4,1-0.7,2.1-0.9,3.2c0,0.7,1.4,0.5,1.5-0.1c0.1-1.1,0.4-2.2,0.9-3.3C65.2,69.2,63.7,69.4,63.5,69.9z"/>
<path d="M80.9,79.1c-0.4-0.5-0.7-1.1-1-1.7c-0.2-0.3-0.6-0.5-0.9-0.3c-0.2,0.1-0.7,0.3-0.6,0.7c0.3,0.7,0.7,1.3,1.2,1.9
	C79.9,80.2,81.3,79.6,80.9,79.1L80.9,79.1z"/>
<path d="M52.1,84c-0.3-0.3-3-2.4-2.8-2.8c-0.1,0.3,1.1-0.4,1.2-0.5c1.6-1.6-0.3-3.8-0.7-5.4L49,75.7c1.4,0.3,3.3,1.6,4.7,0.5
	c0.6-0.5,0.8-1.3,0.8-2.1c-0.1-0.5-0.1-1.1,0-1.6c-0.5,0.6,0.5,1.2,0.8,1.6c1.1,1.3,2.4,4.3,4.4,4.3c1.8,0,1.4-2,1.4-3.2
	c0-0.3-1-0.1-1,0.3c0,0.8,0.5,2.6-1.1,1.8c-0.3-0.2-0.5-0.4-0.7-0.7c-0.6-0.7-1.2-1.5-1.7-2.2c-0.5-0.7-1.4-2.2-2.4-2.2
	c-0.7,0-0.8,0.5-0.8,1.1c-0.1,1.5,0.4,3.1-1.8,2.6c-0.7-0.2-1.4-0.4-2.1-0.6c-0.2-0.1-0.8,0.1-0.8,0.4c0.3,1.1,1,2,1.3,3.1
	s0,1.6-1.1,2.2c-0.1,0-0.4,0-0.5,0.2c-0.1,0.3-0.2,0.2-0.2,0.5s1,1,1.2,1.2c0.5,0.5,1.1,1,1.7,1.5C51.4,84.6,52.3,84.2,52.1,84
	L52.1,84z"/>
<path d="M54,73.3c0.3,1.2,0.4,2.5,0.5,3.7c0,0.2,1,0,1-0.3c-0.1-1.2-0.2-2.5-0.5-3.7C54.9,72.8,54,73.1,54,73.3z"/>
<path d="M53.8,76.7l-0.2-0.2L53.2,77c0.8-0.2,1.3,1.1,1.4,1.7c0,0.7-0.1,1.4-0.3,2c-0.1,0.6-0.3,1.1-0.6,1.6
	c-0.3,0.4-0.8,0.5-1.1,0.9c-0.8,1.1,0.9,1,1.6,1.1s3.3,0.9,4.1,0.1c0.8-0.7-0.8-2.4-1-3.1l-0.8,0.4c0.7,0.1,1,0.4,1.7,0.2
	c0.1,0,0.6-0.2,0.4-0.4l-0.8-1l-0.6,0.4c1.3,0.1,2,0.2,3-0.9c1-1.2,1.5-2.6,1.4-4.2c0-0.3-0.9-0.1-1,0.2c-0.1,1.4-0.9,2.2-1.4,3.4
	c-0.1,0.3,0.6,0.1,0.7,0.1c1-0.4,1.4-1.6,1.9-2.4c0.2-0.4-0.7-0.3-0.9,0c-0.3,0.5-0.8,1.8-1.4,2.1l0.7,0.1c0.6-1.3,1.3-1.9,1.4-3.4
	l-1,0.2c0.1,1.1-0.2,2.2-0.8,3.1c-0.5,0.8-1.4,1.3-2.3,1.1c-0.2,0-0.9,0.2-0.6,0.4s0.6,0.6,0.8,0.9l0.4-0.4c-0.3-0.1-0.7-0.2-1-0.2
	c-0.2,0-0.9,0.1-0.8,0.4c0.2,0.7,0.8,1.3,1,2s0.4,0.5-1,0.4c-0.4,0-0.7-0.1-1.1-0.2c-0.5,0-1.1-0.1-1.6-0.2c-0.4-0.4,0-0.5,0.1-0.7
	c0.3-0.4,0.8-0.7,1-1.2c0.8-1.7,1-5.7-1.9-5.1c-0.1,0-0.5,0.2-0.4,0.4s0.1,0.2,0.3,0.2s1.2-0.3,0.8-0.4L53.8,76.7z"/>
<path d="M57.1,76.7c1,0.7,2.5,1.4,2.8-0.4c0-1.5-0.3-3-0.9-4.3c-0.3-0.8-1.6-3.6-0.9-4.3l-0.8,0.2c1.2,0.3,2,1.3,3.3,1.4
	c0.7,0.1,1.4,0,2-0.2c0.6-0.2,0-0.4-0.4-0.3c-1.7,0.6-2.8-1-4.2-1.3c-0.3-0.1-0.6,0-0.8,0.2c-0.7,0.8,0.5,3.4,0.8,4.3
	c0.3,0.9,0.6,1.9,0.8,2.8c0.2,0.5,0.2,1,0.2,1.6c-0.3,0.7-0.3,0.4-0.9,0C57.8,76.2,57,76.6,57.1,76.7z"/>
<path d="M58.4,68.2l-0.1-0.3l-0.9,0.3c0.7,1.1,2.4,1.9,2.5,3.2c0,0.3,0.9,0.1,1-0.2c0,0,0.3-1.3,0-1.1l0.5,0.3
	c0,0.3-0.1,0.6-0.1,0.8c-0.1,0.4,0.8,0.2,0.9,0c0.3-0.3,0.6-0.7,0.9-1.1H62c-0.6,1.4-0.6,2.9-1.1,4.3c-0.4,1.2-1.7,2.7-1.7,4
	c0.1,1.7,1.7,1.4,2.6,0.6c0.4-0.4-0.5-0.4-0.8-0.2c-0.5,0.5-0.9-0.7-0.8-1c0.1-0.5,0.4-1,0.6-1.4c0.3-0.6,0.6-1.3,0.9-1.9
	c0.5-1.5,0.6-3.1,1.2-4.6c0.1-0.3-0.8-0.2-0.9,0c-0.2,0.3-0.4,0.7-0.7,0.9h0.9c0.1-0.4,0.2-0.8,0.2-1.2c0-0.1-0.1-0.1-0.2-0.1
	c-0.5-0.1-1,0-1.4,0.3c-0.5,0.3,0.2,0.5,0.5,0.3c0.5-0.2,1.2-0.9,0.2-1.1s-1.5,1.3-1.6,2l1-0.2c-0.2-1.4-1.9-2.2-2.6-3.3
	c-0.2-0.2-1,0-0.9,0.3l0.1,0.3c0.1,0.3,1.1,0.1,1-0.3L58.4,68.2z"/>
<path d="M60.4,69.2c0.8,0,1.5-0.4,1.9-1c0.4-0.6,0.8-1.3,1.1-2c0.3-0.8,0.7-2.5,1.5-3l-0.8,0.2c1.1,0.4,1.8,3.2,2.3,4.2
	c0.5,1,1.1,2,2,2.7c0.2,0.2,1.1-0.2,0.9-0.3c-1.4-1.2-2-3-2.8-4.6c-0.3-0.7-0.8-2.3-1.7-2.3c-0.5,0-1,0.3-1.2,0.8
	c-0.4,0.8-0.7,1.5-0.9,2.4c-0.3,0.6-0.9,2.6-1.8,2.7C60.5,68.8,59.8,69.3,60.4,69.2L60.4,69.2z"/>
<path d="M63.3,66.2c-0.4,0.6-2.5,3.1-0.8,3.5c0.4,0.1,0.7-0.1,1-0.2c0.8-0.6,1.9-0.6,2.6,0l0.3,0.3c0.5,0.4,0.8,1,1.2,1.5
	c0.2,0.2,0.9,0.1,0.9-0.2c0.1-0.8-0.2-1.6-0.7-2.2c-0.2-0.2-0.9,0-0.9,0.2c0,1,1.2,1.4,1.5,2.3c0.1,0.8,0.1,1.7,0,2.6
	c0,0.9,0,1.8-0.1,2.7c-0.2,1.8-1.2,2.5-2.6,3.6c-0.5,0.4-1.4,0.8-1,1.5c0.1,0.2,0.9,0,0.9-0.2c0-0.7-0.1-1.3-0.3-2l-1,0.3
	c0.3,0.6,0.7,1.1,1.4,0.7c0.9-0.4,0.5-1.8,0.3-2.6l-1,0.3c0.4,0.7,0.7,1.7,1.4,2c0.2,0.1,0.9,0,0.9-0.4c-0.1-0.8-0.3-1.5-0.8-2.2
	c-0.2-0.2-1.1,0-0.9,0.3c0.2,0.6,0.6,1.1,1,1.6c0.2,0.2,1.1-0.1,0.9-0.4c-0.4-0.4-0.7-0.9-0.9-1.5l-0.9,0.3c0.5,0.6,0.7,1.3,0.8,2.1
	l0.9-0.4c-0.5-0.2-1-1.3-1.3-1.8c-0.2-0.3-1-0.1-1,0.3c0,0.4,0.1,0.9,0.2,1.3c-0.1-0.3-1.1-0.1-1,0.3c0.2,0.6,0.3,1.3,0.3,1.9
	l0.9-0.2c-0.3-0.4,2.4-2.1,2.7-2.5c0.7-0.8,1-1.9,1-2.9c0.2-1.4,0.2-2.9,0.1-4.3c0-0.3,0-0.6-0.2-0.8c-0.3-0.6-1.4-0.9-1.4-1.8
	L67,69.4c0.5,0.5,0.7,1.2,0.6,1.9l0.9-0.2c-1.1-1.2-1.9-2.8-3.7-2.6c-0.4,0-1.2,0.6-1.5,0.5c-1.3-0.1,0.6-2.3,0.8-2.7
	S63.4,66,63.3,66.2L63.3,66.2z"/>
<path d="M66.3,67.3c0.4,0.9,1.3,1.4,2.3,1.1c0.6-0.1,1.2-0.8,1.8-0.8c1.4,0,0.3,2.5,0.2,3.1c-0.5,2.2-1.4,7.1,1.3,8.2
	c0.4,0.2,1.1-0.4,0.6-0.7c-1.7-0.7-1.5-4-1.3-5.4c0.2-1.6,0.9-3.2,1.1-4.9c0.1-0.5-0.2-1.1-0.7-1.2c-0.1,0-0.2,0-0.3,0
	c-0.3,0-0.6,0-0.8,0.1c-1,0.3-2.4,1.3-3.2,0C67,66.5,66,66.9,66.3,67.3L66.3,67.3z"/>
<path d="M70.8,68L68,68.1l-0.1,0.6c1,0,2-0.2,3-0.5l-0.1-0.6c-0.4,0.2-3.8,1.3-2.7,2.3c0.2,0.1,0.4,0.1,0.6,0
	c0.5-0.1,0.9-0.6,0.8-1.2c0-0.1,0-0.2-0.1-0.2c-0.1-0.1-0.2-0.2-0.3-0.2c-0.4-0.1-0.9,0.1-1.2,0.4h0.8l-0.1-0.3
	c-0.1-0.4-1.1-0.1-1,0.2c0.5,2,0.5,4.1,1.1,6.1c0.6,1.7,1.4,3.3,2.4,4.8l0.9-0.4c-0.6-0.7-3-4.4-3.9-2.1c-0.2,0.6-0.3,1.2-0.2,1.9
	c0,1,0.2,0.7-0.4,0.9c-0.2,0.1-0.4,0-0.6,0.1s-0.2,0.4-0.3,0.5c-0.4,0.4,0.5,0.4,0.8,0.2s0.1-0.3,0.3-0.5l-0.6,0.3
	c0.7,0,1.3,0.5,1.7-0.3s-0.2-1.8,0.2-2.5l0.1-0.5l0.8,0.9l1.2,1.4c0.2,0.3,1.1,0,0.9-0.4c-1.1-1.6-2-3.4-2.5-5.2
	c-0.5-1.8-0.6-3.7-1-5.5l-1,0.2l0.1,0.3c0.1,0.3,0.6,0.2,0.8,0l-0.3,0.4h0.6C69.3,68.7,69.9,68.2,70.8,68c0.5-0.2,0.4-0.7-0.2-0.5
	c-0.9,0.3-1.7,0.5-2.6,0.6c-0.5,0-0.8,0.6-0.1,0.6l2.8-0.1C71.1,68.6,71.4,68,70.8,68L70.8,68z"/>
<path d="M81.7,78.3c-0.6,0.2-1.4,0.2-1.6-0.5c-0.2-0.6,0.2-1.1,0.4-1.6c0.3-0.5,0.5-1.1,0.7-1.6c0.1-0.4,0.6-1.3,0.5-1.7
	s-0.8-0.2-1.2-0.1c-1.3,0.6-2.3,1.6-3.8,2c-0.6,0.1-0.5,0.5,0.1,0.4c0.7-0.2,1.3-0.4,1.9-0.7c0.7-0.5,1.5-1,2.3-1.4h-0.5
	c0.4,0.3-0.8,2.7-0.9,3c-0.3,0.6-0.8,1.4-0.5,2.1c0.5,1,1.8,0.7,2.6,0.5C82.4,78.5,82.3,78.1,81.7,78.3L81.7,78.3z"/>
<path d="M77.4,75.1c-0.5,0-0.6,0-0.6-0.5c-0.1-0.8,0.1-1.7-0.1-2.6s-0.3-1.6-1.2-1.3s-1.2,1.3-1.5,2c-0.6,1.4-1.7,5.3-3.7,5.3
	c-0.3,0-1,0.5-0.4,0.5c1.4-0.1,2.6-0.9,3.2-2.1c0.5-0.7,0.9-1.5,1.3-2.3c0.4-1,0.7-2.6,1.6-3.2L75.2,71c1.2,0.4,0.2,3.2,0.7,4.1
	c0.3,0.6,0.6,0.4,1.1,0.4C77.3,75.5,78,75.1,77.4,75.1L77.4,75.1z"/>
<path d="M72,78.3c1-0.3,1.5-1.6,2-2.4c0.8-1.4,1.1-3,2-4.3L75,71.8c0,0.5,0,1,0,1.5c0,0.5,0.5,1.7,0.2,2.1l0.5-0.3
	c0.1-0.7,0-1.3-0.1-2c-0.1-0.3-0.8,0-0.9,0.2c-0.4,0.9-0.6,1.9-1.1,2.7s-1.2,1.2-1.6,2c-0.2,0.4,0.6,0.3,0.8,0.2
	c1-0.8,1.9-1.7,2.6-2.7c0.4-0.4-0.6-0.5-0.8-0.2c-0.7,1-1.5,1.8-2.5,2.6l0.8,0.2c0.3-0.7,1.2-1.2,1.6-2s0.7-1.8,1.1-2.7l-0.9,0.2
	c0.3,0.5-0.4,2.8,1.1,2.2c0.4-0.2,0.4-0.5,0.5-0.9c0-0.7-0.3-1.4-0.3-2.2c0.1-0.4,0.1-0.8,0-1.1c-0.1-0.4-0.8-0.1-0.9,0.1
	c-0.5,1-1,2.1-1.4,3.2c-0.2,0.5-0.5,1-0.8,1.5c-0.2,0.3-0.7,1.4-1,1.5C71.3,78.1,71.5,78.6,72,78.3L72,78.3z"/>
<path d="M76.1,71.9c-0.2-1.2-1.7-0.3-2.1,0.2c-0.6,0.8-1,1.7-1.6,2.5c-0.6,1-1.5,1.7-2.5,2.2c-0.5,0.3,0.1,0.4,0.4,0.4
	c1.4-0.3,2.7-1.1,3.6-2.3c0.3-0.4-0.7-0.2-0.8-0.1l-0.8,0.5c-0.4,0.3,0.5,0.3,0.8,0.2l0.8-0.5L73.1,75c-0.7,0.9-1.8,1.6-2.9,1.8
	l0.4,0.4c1-0.5,1.8-1.2,2.5-2c0.4-0.5,0.6-1,1-1.4l0.6-0.9c0.1-0.1,0.6-0.8,0.6-0.6s1,0.1,1-0.3L76.1,71.9z"/>
<path d="M50.1,79.6c-0.6,0.6-3.1,0.6-2.4,2.1c0.3,0.5,0.8,0.9,1.3,1.3c0.7,0.5,1.4,0.9,2.2,1.2c0.3,0.1,1.2-0.3,0.8-0.5
	c-0.5-0.2-1-0.5-1.5-0.8c-0.6-0.3-1.2-0.8-1.6-1.3c-0.6-0.9,0.3-1,0.9-1.2c0.4-0.2,0.8-0.4,1.2-0.7C51.2,79.4,50.3,79.4,50.1,79.6
	L50.1,79.6z"/>
<path d="M48.7,81.5l0.9-0.4c0.2-0.1,0.3-0.3,0.2-0.5c0,0,0,0,0-0.1c-0.2-0.2-0.4-0.2-0.7-0.1l-0.9,0.3c-0.2,0.1-0.3,0.3-0.2,0.5
	S48.5,81.5,48.7,81.5z"/>
<path d="M75.4,83.9c0.2-0.1,0.5-0.1,0.7-0.1c0.2,0,0.5,0,0.7-0.1c0.1,0,0.3-0.2,0.1-0.2c-0.7,0-1.4,0.1-2,0.3
	c-0.1,0-0.3,0.1-0.1,0.2S75.3,84,75.4,83.9L75.4,83.9z"/>
<path d="M85.7,62.3c3.2-5.6,5.4-11.7,5.3-18.2c-0.1-5.7-1.9-11.2-5.3-15.7c-7.4-9.6-22.2-11.9-32.6-6.1c-6.3,3.5-10.3,10-12,16.9
	C41,40,42.9,39.7,43.1,39c1.4-5.8,4.4-11.4,9.4-14.9c5.2-3.4,11.5-4.6,17.5-3.3c11,2.1,18.2,11.4,19,22.4c0.5,6.7-1.8,13.2-5.1,19
	C83.5,63,85.4,62.8,85.7,62.3L85.7,62.3z"/>
<path d="M29.3,48.1c-2.3,0.2-3.9,2.8-4.7,4.7c-1.3,2.6-1.5,5.6-0.6,8.4c1,2.3,3,4.2,5.4,5c1.4,0.5,2.8,0.9,4.2,1
	c1.7,0.2,3.8-0.1,5.4,0.7c0.6,0.3,2.3-0.5,1.5-0.9c-2-1-4.4-0.6-6.5-0.9c-2.6-0.2-5.1-1.4-6.9-3.4c-1.5-2-2.1-4.5-1.6-6.9
	c0.2-1.2,0.6-2.4,1.1-3.5c0.4-0.7,1.6-3,2.4-3.1S30.6,48,29.3,48.1L29.3,48.1z"/>
<path d="M24.1,51.1c-4.1,4.5-4.2,11-1,16.1c1.4,2.2,3.2,4.1,4.7,6.2c1.7,2.4,2.6,5.2,2.5,8.1c0,0.3,1.9,0.1,1.9-0.5
	c0.1-2.7-0.7-5.4-2.2-7.7c-1.4-2.1-3-3.8-4.4-5.8c-3.5-5-4-11.8,0.3-16.5C26.2,50.5,24.4,50.8,24.1,51.1L24.1,51.1z"/>
<path d="M39.5,82.8c-1.6-2.8-2.7-6.2-1.6-9.5c0.4-1.4,2.8-4.7,1-5.9c-1-0.6-2.7-0.2-3.7-0.2c-1.6,0-3.3-0.4-4.8-0.9
	c-2.7-1-4.8-3.3-5.4-6.1L23,60.7c0.5,2.1,1.5,4,2.9,5.6c1.5,1.9,3.6,3.7,4.5,6s0.6,4.6,1.7,6.7c1.1,1.9,3,3.2,4.6,4.7
	c0.5,0.4,2.3-0.1,1.8-0.8c-2-2.5-3.5-5.4-4.5-8.4c-0.8-2.6-1.5-5.1-3.3-7.2l-1.7,0.9c1.8,1.1,2.7,3.6,3.6,5.4c0.8,1.8,1.7,4,2.4,6
	c0.3,0.7,2,0.2,1.9-0.5c-0.4-4-1.8-7.9-4.2-11.1l-1.7,0.9c1.8,1,2.2,3.4,3.7,4.8c0.5,0.3,1.2,0.2,1.7-0.2c1.5-1.3-1.7-4.1-2.1-5.3
	l-1.7,0.8c1.3,0.8,1.4,2.6,2.8,3.3c0.6,0.2,1.3,0,1.7-0.4c1-1.5-0.9-2.4-1.1-3.7l-1.8,0.7l1.8,1.4c0.5,0.3,1.2,0.2,1.7-0.2
	c0.4-0.3,0.6-0.8,0.6-1.3c0-0.3-0.2-0.4-0.4-0.4l-6.2-1.8l-0.9,1.1l2.6,0.3c1,0,1.9,0.1,2.9,0.3c0.5,0.2,1,0.6,0.9,1.1
	c0,0.2-0.4,0.5-0.5,0.7c-0.4,0.6-0.8,1.3-1.1,2c-0.5,1.2-0.9,2.4-1.1,3.7c-0.3,1.5-0.2,3.3-1,4.6l1.8-0.3c-1.8-2-2.3-4.9-3.9-7.1
	c-0.8-1.1-1.7-2.2-2.8-3.1c-1.1-0.9-2.9-2.1-2.2-3.8c0.4-0.9-1.5-0.7-1.8-0.1c-1.2,2.9,2.4,4.5,4,6.4c2.2,2.5,2.7,6,4.9,8.4
	c0.4,0.4,1.5,0.1,1.8-0.3c0.8-1.5,0.8-3.3,1.1-4.9c0.4-2.1,1.2-4,2.4-5.7c0.6-0.9,0.9-2-0.4-2.4c-1-0.2-2-0.3-3-0.3l-3.9-0.4
	c-0.6-0.1-2,0.8-0.9,1.1l6.2,1.8l-0.4-0.4L36,69.3l1.7-0.2l-1.8-1.5c-0.4-0.4-2-0.2-1.8,0.7s1.8,2.2,1.2,3.1l1.7-0.4
	c-1.3-0.7-1.4-2.5-2.8-3.3c-0.4-0.2-1.9,0-1.7,0.8s2.9,4.1,2.5,4.4l1.7-0.2c-1.6-1.5-2-3.8-4-4.9c-0.4-0.2-2.2,0.2-1.7,0.9
	c2.3,3.2,3.7,7,4.1,10.9L37,79c-0.9-2.4-1.9-4.8-3-7.1c-0.8-1.7-1.7-3.7-3.4-4.7c-0.4-0.3-2.2,0.2-1.7,0.9c2,2.2,2.6,5.1,3.5,7.9
	c1,2.8,2.4,5.4,4.3,7.7l1.8-0.8c-1.6-1.5-3.7-2.8-4.7-4.9s-0.7-4.6-1.7-6.7c-1.9-4.1-6.1-6.5-7.1-11.1c-0.2-0.7-2.1-0.2-1.9,0.5
	c1.1,5.6,7.1,7.7,12.3,7.7c0.8,0,2-0.1,2.2,0.8c0.2,0.8-0.4,1.8-0.7,2.5c-0.6,1.2-1,2.5-1.2,3.8c-0.1,2.9,0.6,5.7,2.2,8.1
	C38.1,84.2,39.9,83.6,39.5,82.8L39.5,82.8z"/>
<path d="M24.5,51.5c-1.5,2.8-2.9,5.9-2.5,9.2s2.7,6.1,4.6,8.7c2.1,3,4.2,6.1,4.7,9.8c0.2,1.6,0.2,2.3,1.7,3.1c1.5,0.8,3,1.4,4.6,1.9
	c0.6,0.2,2.3-0.7,1.2-1c-1.6-0.4-3.1-1-4.6-1.9c-1.4-0.9-1-2.8-1.4-4.3c-0.9-2.8-2.3-5.5-4.2-7.8c-1.7-2.5-4-5-4.7-8.1
	c-0.7-3.3,0.7-6.6,2.3-9.4C26.8,50.8,24.8,51,24.5,51.5L24.5,51.5z"/>
<path d="M26.6,66.9c1.1,0.8,2.3,1.4,3.5,2c0.4,0.1,0.9,0.1,1.2-0.1c0.1,0,0.9-0.4,0.6-0.6c-1.2-0.6-2.4-1.2-3.5-2
	c-0.3-0.2-0.9,0-1.2,0.1C27.1,66.3,26.3,66.7,26.6,66.9z"/>
<path d="M30.9,47.4c-3.7,2-6,5.9-6,10.2c0.1,5.2,3.5,8.9,7.8,11.4c0.5,0.3,2.1-0.5,1.8-0.7c-3.9-2.2-7.1-5.5-7.5-10.2
	c-0.5-4.3,1.7-8.5,5.5-10.6c0.4-0.2,0.1-0.4-0.1-0.5C32,46.9,31.2,47.2,30.9,47.4L30.9,47.4z"/>
<path d="M25.1,54.5c-0.6,3.7,1.1,7.3,4.2,9.3c3.4,2.2,7.6,2.4,11.2,4.1c0.6,0.3,2.4-0.6,1.5-1c-3.1-1.5-6.7-1.8-9.8-3.4
	c-3.5-1.7-5.9-5.3-5.2-9.3C27.1,53.5,25.2,53.8,25.1,54.5L25.1,54.5z"/>
<path d="M29.9,78.2c0.3,1.7,0.3,3.5,0.2,5.2C30,84.1,32,83.7,32,83.1c0.2-1.8,0.1-3.6-0.2-5.4C31.7,77,29.8,77.5,29.9,78.2
	L29.9,78.2z"/>
<path d="M30.4,83.2c-0.2,1.2,2.3,1.8,3.1,2.1c1.8,0.6,3.6,1.4,5.3,2.3c0.4,0.3,2.2-0.2,1.7-0.9c-0.8-1.1-2.4-1.8-3.6-2.4
	c-1.5-0.8-3.5-1.5-3.9-3.3l-1.7,0.7c2.3,1.5,4.7,2.8,7.1,4.1c0.4,0.2,2.2-0.2,1.7-0.9c-1.2-1.4-2.6-2.6-4.1-3.8
	c-0.6-0.4-2.3,0.4-1.8,0.8c1.5,1.1,2.9,2.4,4.1,3.7l1.7-0.9c-2.4-1.3-4.8-2.6-7.1-4.1c-0.4-0.3-1.9,0.1-1.7,0.7
	c0.9,3.4,5.8,3.4,7.7,6l1.7-0.9c-1.3-0.8-2.6-1.4-4-1.8c-0.4-0.2-4.1-1.3-4-1.8C32.5,82.2,30.5,82.5,30.4,83.2z"/>
<path d="M29.6,62.2h-0.2c-0.5,0-1,0.2-1.3,0.5c-1,1.4,2.7,3.1,3.6,3.4c1.3,0.4,2.6,0.4,3.8,0.9c1.5,0.6,3,1.3,4.5,2.1
	c0.6,0.3,2.3-0.5,1.5-1c-1.9-1.2-4-2.1-6.2-2.7c-1.1-0.1-2.1-0.4-3.1-0.8c-0.3-0.2-2.6-1.5-2.3-1.9l-1.3,0.5h0.2
	C29.6,63.4,30.8,62.3,29.6,62.2L29.6,62.2z"/>
<path d="M37.9,75.1c-0.8,2-1,4.2-0.5,6.4c0.1,0.5,2,0,1.9-0.5c-0.4-4.3-0.8-8.8,1.8-12.4c0.2-0.3-1.6-0.1-1.8,0.2
	c-1.2,1.2-2,2.6-2.6,4.1c-0.4,1.1-1,3.4-0.3,4.4c0.3,0.4,1.7,0,1.9-0.4l2.9-7.3c0.2-0.4-1.7-0.2-1.9,0.3l-2.9,7.2l1.9-0.4
	c-0.8-1.1-0.1-3.1,0.3-4.2c0.5-1.5,1.3-2.8,2.4-3.9l-1.8,0.2c-2.7,3.7-2.3,8.3-1.8,12.6l1.9-0.5c-0.5-2.1-0.3-4.2,0.5-6.2
	C39.9,74.3,38.1,74.5,37.9,75.1L37.9,75.1z"/>
<path d="M33.8,54.5c-1.6,0.6-2.5,2.2-2,3.8c0.6,1.8,2.4,2.9,4.3,2.8c1.5,0.1,3-0.6,4-1.8c1.3-1.9,1.2-4.4-0.1-6.2
	c-2.2-2.5-8.3-1.3-8.8,2.1c-0.7,4.8,4.1,6.2,7.7,4.3c0.6-0.3-0.3-0.3-0.6-0.2c-3.1,1.7-6.5-0.3-6.2-3.8c0.1-1.8,1.4-2.7,3.1-3.2
	c1.8-0.6,3.7,0.3,4.5,2c1.3,3-0.8,7.3-4.5,6.1c-2.3-0.7-3.9-4.5-1.1-5.7C34.8,54.5,34.1,54.3,33.8,54.5L33.8,54.5z"/>
<path d="M32.8,53.4c-0.1,2.2,0.3,4.4,1.2,6.4c0.1,0.2,0.9,0,1-0.3c0.1-1.2,0.1-2.4,0-3.6c-0.1-1.1-0.4-2.1,0.3-3.1l-1,0.2
	c1.2,2.4,0.4,5.3,2.2,7.4c0.1,0.2,0.9-0.1,0.9-0.3c0-1.3-0.2-2.7-0.4-4c-0.4-1.3-0.5-2.7-0.2-4l-1,0.2c0.7,1.4,1.2,2.8,1.4,4.3
	c0.1,1-0.1,2.4,0.9,3c0.2,0.1,0.6,0,0.8-0.2c1.6-0.9-0.1-5.3-0.1-6.7l-0.7,0.3c0.7,0,1,4.2,1.1,4.8c0,0.2,1,0,1-0.3
	c-0.1-1-0.1-5-1.6-4.9c-0.1,0-0.7,0.1-0.7,0.3c0,1,1.5,5.8,0.4,6.4l0.8-0.2c-1-0.7-0.7-2.5-0.9-3.5c-0.2-1.3-0.7-2.6-1.3-3.8
	c-0.1-0.2-0.9,0-1,0.2c-0.4,1.2-0.4,2.4,0,3.6c0.3,1.5,0.5,3,0.5,4.5l0.9-0.3c-1.8-2.1-0.9-5-2.2-7.3c-0.1-0.2-0.8,0-0.9,0.2
	c-0.5,0.8-0.6,1.8-0.4,2.7c0.2,1.4,0.2,2.7,0.1,4.1l1-0.3c-1-2-1.4-4.2-1.2-6.5c0-0.1-1,0-1,0.3L32.8,53.4z"/>
<path d="M37.4,59.5c-2.2-0.4-5.2-1.8-4.1-4.6c0.5-1.3,3.2-2.7,4.3-1.3c0.8,1.2,1.1,2.6,0.8,4c0,0.4,0.9,0.2,1-0.1
	c0.2-1.6-0.1-4.5-2-5c-1.3-0.4-2.9,0.5-3.9,1.1c-0.6,0.3-1,0.7-1.4,1.3c-0.2,0.9-0.1,1.8,0.2,2.6c0.7,1.7,2.8,2.3,4.4,2.6
	C37.2,60,38,59.6,37.4,59.5L37.4,59.5z"/>
<path d="M34.6,57.6c0.2,0.6,0.4,1.6,1.1,1.9c0.2,0.1,0.5,0.1,0.7-0.1c0.6-0.5,0.4-1.1-0.2-1.6c-0.2-0.2-0.8-0.1-0.9,0.2
	c-0.4,0.9-0.1,1.9,0.8,2.4c0.1,0.1,0.2,0.1,0.3,0.1c0.2,0.1,1-0.2,0.7-0.5c-0.6-0.5-1.6-0.6-1.7,0.3c0,0,0,0.1,0,0.2
	c0.9,0.6,2.1,0.4,2.9-0.3c1.5-1.4,0.6-3.6,0.1-5.3c-0.1-0.4-1-0.1-1,0.2l0.3,2.6c0,0.3,1,0.1,1-0.2c0.1-1.1,0-2.3-0.4-3.3
	c-0.5-0.7-1.2-1.2-2-1.5c-1.4-0.7-2.4-0.2-3.4,1c-0.4,0.5,0.6,0.4,0.8,0.2c0.4-0.4,0.9-0.7,1.4-0.8c0.3-0.1,0.6-0.5,0.1-0.6
	c-2.4-0.2-3.7,2.1-2.8,4.3c1.2,2.9,3.8,2.6,6.2,1.4l-0.7-0.2c-0.7,2.6-4,1.4-4.2-0.7l-0.9,0.4c0.9,0.6,0.5,2,1.8,2.3
	c0.6,0.1,1.3-0.1,1.7-0.6c1.5-1.9,0.5-5.3-0.7-7.1L35.2,53l0.6-0.1c0.5,0,0.8-0.6,0.1-0.6c-0.3,0-0.6,0.1-0.8,0.2
	c-0.2,0.1-0.5,0.2-0.4,0.5c1,1.5,1.5,3.4,1.2,5.2c-0.1,0.6-0.1,0.7-0.7,1c-0.8,0.4-0.7-0.1-0.9-0.7c-0.1-0.4-0.3-0.7-0.7-1
	c-0.2-0.2-0.9,0-0.9,0.4C33,61,38,61.1,38.8,58c0.1-0.3-0.6-0.2-0.7-0.2c-1,0.5-2.2,1.1-3.3,0.6c-0.6-0.4-1.2-0.9-1.4-1.6
	c-0.5-1.1-0.7-3.8,1.4-3.7l0.1-0.6c-0.8,0.1-1.5,0.5-2.1,1.1l0.8,0.2c0.9-1.1,2.3-0.7,3.2,0.1s0.9,2.4,0.9,3.6l1-0.2l-0.3-2.6
	l-1,0.2c0.2,0.6,0.4,1.2,0.6,1.9c0.1,0.5,0.2,0.9,0.2,1.4c0,1-0.7,1.7-1.9,2l0.7-0.5c-0.7-0.2-1.1-1-0.9-1.7c0,0,0-0.1,0.1-0.1
	l-0.9,0.2c0.3,0.2,0.5,0.5,0.4,0.9l0.7-0.1c-0.4-0.2-0.7-1.3-0.9-1.7S34.4,57.2,34.6,57.6L34.6,57.6z"/>
<path d="M33.6,53.9c-0.4,1.5,0.3,4.5,2.5,3.6c0.8-0.4,1.2-1.3,1-2.2c-0.1-1-0.4-2.1-1.7-1.9c-0.5,0-0.9,0.3-1.2,0.6
	c-0.1,0.4-0.1,0.9,0.1,1.3c0.2,0.8,0.8,2,1.6,2.2c0.9,0.2,1.8-0.2,2.3-1c0.3-1,0.3-2-0.1-2.9c-0.2-0.6-1.9-0.2-1.9,0.4
	c-0.1,1.2-0.1,3.1,1,3.9c0.6,0.3,1.2,0.2,1.7-0.2l0.2-0.2c0.3-0.3,0.2-0.5-0.2-0.6c-0.5-0.1-1,0.1-1.4,0.4l-0.2,0.2l1.7-0.2
	c-1-0.6-1-2.4-0.9-3.4L36.2,54c0.2,0.5,0.3,0.9,0.3,1.4c0,0.3,0,0.6-0.1,0.8c0,0.2-0.2,0.4,0,0.3l0.8-0.2c-0.3,0-0.7-0.9-0.8-1.2
	c-0.2-0.4-0.3-0.9-0.4-1.3l-0.9,0.4h0.1l-0.6-0.1c0.6,0.2,0.8,2.4,0.4,2.7l1.2-0.4c0,0-0.3-0.6-0.4-0.7c-0.1-0.2-0.2-0.4-0.2-0.6
	c-0.1-0.5-0.1-1.1,0-1.6C35.7,53,33.7,53.3,33.6,53.9L33.6,53.9z"/>
<path d="M32.7,56.5l0.2-2.7c0-0.3-0.9-0.1-1,0.2c-1.2,3,2.3,8.8,5.6,5.7c0.5-0.5,1.1-1.5,0.7-2.2s-1.8-1-2.5-1.2
	c-0.5-0.1-1.3-0.3-1.8,0s-0.2,1.1,0.1,1.6c0.1,0.3,1.1,0,1-0.2c-0.3-0.8-0.6-1.6-0.7-2.4c0-0.2-1,0-1,0.3c0.1,0.8,0.4,1.6,0.7,2.4
	l1-0.2c-0.2-0.3-0.6-0.9-0.4-1.3L34,56.6c0.7-0.1,3,0.4,3.3,1.2c0.1,0.5,0,1.1-0.4,1.5c-0.6,0.7-1.6,0.8-2.3,0.3
	c-0.1-0.1-0.2-0.2-0.3-0.3c-1.3-1.3-2.2-3.9-1.5-5.6l-1,0.2l-0.2,2.7C31.7,56.9,32.6,56.7,32.7,56.5L32.7,56.5z"/>
<path d="M33.2,54.4l0.2-0.7l2.4-0.9c0.5,0,1,0.2,1.4,0.4c0.8,0.3,1.4,0.8,1.8,1.5c0.5,1.5,0.3,3.1-0.5,4.4c-0.1,0.2,0.8,0.1,1-0.1
	c0.7-1.4,1.2-3.4,0.3-4.8c-0.7-1-1.9-1.6-3.1-1.7c-1.2-0.2-2.4,0-3.4,0.7c-0.4,0.3-1.8,1.4-0.8,1.8C32.7,54.9,33.6,54.5,33.2,54.4
	L33.2,54.4z"/>
<path d="M39.6,53.1c-0.9-1.5-3.4-1.7-4.9-1.4c-1.7,0.2-2.9,1.6-2.9,3.3c0,0.5,0.9,0.4,1-0.1c0-1.3,1-2.4,2.3-2.5
	c1.2-0.2,3,0,3.7,1.1C38.9,53.9,39.8,53.5,39.6,53.1L39.6,53.1z"/>
<path d="M36.6,58.5v0.2c0,0.2,0.2,0.3,0.4,0.3c0.2,0,0.5-0.1,0.6-0.3l0.3-0.9l-0.9,0.1c0,0.3,0,0.6,0,0.8c0,0.5,0.8,0.4,1,0l0.3-0.7
	c0.2-0.5-0.8-0.6-0.9-0.1L37,58.6h1c0-0.3,0-0.7-0.1-1c0-0.2-0.3-0.2-0.4-0.2c-0.2,0-0.4,0.1-0.5,0.3L36.6,58.5l1.1,0.1v-0.2
	c0.1-0.2-0.3-0.3-0.4-0.3c-0.2,0-0.5,0.2-0.5,0.4L36.6,58.5z"/>
<path d="M51.8,56.1c-3.5-8.1-13.5-11.7-21.7-9C20.9,50.2,17.6,60.3,19,69.3c0.8,5.3,3.2,10.4,7.3,13.9c0.5,0.4,2.3-0.3,1.8-0.8
	c-6.5-5.4-8.7-15.1-6.8-23.1c1-4,3.1-7.9,6.7-10.1c3.6-2,7.9-2.5,11.8-1.2c4.5,1.3,8.2,4.4,10.1,8.7C50.2,57.3,52.1,56.7,51.8,56.1z
	"/>
<path d="M80.2,56.9c4.2-8.1,5.1-18.4-1.8-25.4c-6.1-6.2-17.1-6.3-24-1.3c-4,3-6.5,7.5-7,12.5c0,0.2,1.9,0,1.9-0.5
	c0.5-5.3,3.4-10,7.9-12.8c5.1-2.9,12.1-2.3,17,0.9c3.9,2.7,6.4,6.9,7.1,11.6c0.9,5.4-0.6,10.7-3.1,15.5C78.2,57.5,80,57.4,80.2,56.9
	z"/>
<path d="M84.5,76.4c0-4.4-1.9-8.6-5.2-11.5c-4.4-3.7-10.1-5.6-15.8-5.3c-10,0.4-18.2,8.9-19.5,18.7c-0.4,3.4,0.1,6.8,1.5,9.9
	c0.5,1.6,1.4,3,2.5,4.3c0.5,0.5,2.3-0.3,1.8-0.7c-0.6-0.7-1.1-1.5-1.5-2.3c-1.3-2.3-2.1-4.8-2.4-7.5c-0.5-4.9,1.4-10,4.3-14
	c2.7-3.7,6.7-6.7,11.3-7.2c5.7-0.6,11.4,1.1,15.8,4.7c3.6,3,5.1,6.9,5.3,11.5C82.6,77.5,84.6,77.1,84.5,76.4L84.5,76.4z"/>
<path d="M15.3,61.8c-0.2-0.9-0.2-1.8,0-2.7c0.1-0.3-0.9-0.2-1,0.1c-0.2,0.9-0.2,1.9,0,2.8C14.3,62.3,15.3,62.1,15.3,61.8z"/>
<path d="M14.5,62.2c0.9,0.4,1.9,0.8,2.8,1.2c0.4,0.1,1.1-0.4,0.6-0.6c-1-0.3-1.9-0.7-2.9-1.1C14.7,61.4,13.9,62,14.5,62.2z"/>
<path d="M16.4,62c0.1-0.6,0.2-1.1,0.3-1.7c0.1-0.3-0.9-0.2-1,0.1c-0.1,0.6-0.3,1.1-0.3,1.7C15.4,62.5,16.3,62.3,16.4,62z"/>
<path d="M18.8,58.6c-1-0.5-2.4-1-2.6-2.2c-0.1-0.4-0.3-0.8,0.3-0.6c0.3,0.1,0.6,0.2,0.9,0.4c0.6,0.3,1.1,0.6,1.6,1
	c0.3,0.2,1.2-0.2,0.8-0.5c-0.8-0.6-3.7-2.6-4.6-1.1c-0.2,0.7-0.1,1.4,0.3,2c0.7,0.7,1.5,1.2,2.5,1.6C18.4,59.3,19.2,58.8,18.8,58.6
	L18.8,58.6z"/>
<path d="M17.8,57.6c0-0.6,0.2-1.2,0.5-1.7c0.2-0.4-0.7-0.3-0.9,0c-0.4,0.6-0.6,1.3-0.5,2C16.8,58.2,17.8,58,17.8,57.6L17.8,57.6z"/>
<path d="M16.5,53.2c1,0.6,2.1,1.2,3.2,1.8c0.2,0.1,1-0.3,0.9-0.3c-1.1-0.6-2.1-1.2-3.2-1.8C17.1,52.7,16.4,53.1,16.5,53.2z"/>
<path d="M18.7,50.7L18.7,50.7l-0.8,0.5l2.6,1.7c0.4,0.2,1.2-0.3,0.7-0.6L18.7,50.7c-0.4-0.3-1.2,0.1-0.8,0.5l0.1,0.1
	C18.3,51.6,19.1,51.1,18.7,50.7z"/>
<path d="M18.9,50.8c0-0.4,0-0.8,0.1-1.2c0.2-0.4,0.3-0.4,0.3,0.1c0.1,0.7,0.1,1.3,0,2c0,0.2,0.9,0,1-0.2c0.1-0.4,0.1-1.2,0.7-1.1
	c0.3,0.1,0.8,0.6,1.1,0.8s1.1-0.2,0.9-0.3c-0.7-0.5-1.3-1.2-2.2-1s-1.3,0.9-1.4,1.8l1-0.2c0.1-0.8,0.4-2.8-1-2.6
	c-1.2,0.2-1.5,1.2-1.4,2.2C18,51.3,19,51.1,18.9,50.8L18.9,50.8z"/>
<path d="M21.4,47.7c0.4-0.9,1-1.7,1.7-2.4c0.4-0.4-0.6-0.3-0.8-0.1c-0.8,0.7-1.5,1.6-2,2.6C20.3,48.1,21.2,48,21.4,47.7L21.4,47.7z"
	/>
<path d="M21.7,46.4c0.8,1.1,1.8,2,2.9,2.8c0.2,0.2,1.1-0.2,0.9-0.4c-1.1-0.8-2-1.8-2.9-2.8C22.5,45.8,21.5,46.1,21.7,46.4L21.7,46.4
	z"/>
<path d="M24.5,45c0.6,0.9,1.3,1.8,1.9,2.7c0.3,0.4,1.2,0,0.9-0.4c-0.7-0.9-1.3-1.8-1.9-2.7C25.2,44.2,24.3,44.5,24.5,45z"/>
<path d="M25.4,44.8c0-0.4,0-1.3,0.4-1.6l-0.5,0.1c0.7,0.1,0.3,2,0.3,2.4s0.8,0.2,0.9,0c0.7-1.6,1.5,1.1,2.2,1.2
	c0.3,0.1,1.1-0.5,0.6-0.6c-0.1,0-0.3-0.5-0.4-0.6c-0.1-0.2-0.3-0.4-0.4-0.6c-0.3-0.3-0.7-0.6-1.2-0.6c-0.8-0.1-1.5,0.4-1.7,1.2h0.9
	c0.1-0.8,0.4-2.9-0.9-2.9c-1.1,0-1.3,1.5-1.2,2.3C24.5,45.5,25.5,45.3,25.4,44.8L25.4,44.8z"/>
<path d="M31.2,45.6c-0.2-0.6-1.5-3.8-0.7-4.2L30,41.6c1.1,0,1.7,2.7,2.1,3.5c0.1,0.3,1.1-0.1,1-0.3c-0.6-1.1-1-4-2.8-3.6
	c-1.8,0.4-0.3,3.6,0,4.7C30.4,46.2,31.3,45.9,31.2,45.6L31.2,45.6z"/>
<path d="M30.8,43.8c0.1,0,0.1-0.1,0.2-0.1c-0.1,0,0.1,0,0.1,0h0.1c0.2,0,0.5-0.1,0.5-0.4S31.5,43,31.3,43c-0.4,0-0.8,0.2-1.1,0.4
	c-0.2,0.1-0.3,0.3-0.1,0.5C30.3,44,30.6,44,30.8,43.8L30.8,43.8z"/>
<path d="M34,40.9c0.1,1.4,0.3,2.8,0.6,4.1c0.1,0.3,1,0.1,1-0.2c-0.3-1.4-0.4-2.7-0.6-4.1C35,40.3,34,40.5,34,40.9z"/>
<path d="M35.2,41c0.2-0.3,1.1,0.5,1.2,0.7c0.4,0.6,0.4,1.3,0,1.9c-0.4,0.6-1.2,0.7-1.8,1.1s0.2,0.8,0.7,0.5s1.3-0.5,1.8-1
	c0.6-0.6,0.7-1.5,0.5-2.3c-0.4-1.2-2.6-2.4-3.3-0.9C34,41.4,35,41.4,35.2,41L35.2,41z"/>
<path d="M39.3,41.3c0.1,0.7,0,1.4-0.1,2.1c-0.2,0.5-0.3,1-0.3,1.5c0,0.3,0.1,0.4,0.4,0.5c0.6,0.2,1.1,0.4,1.7,0.7
	c0.3,0.2,1.2-0.2,0.8-0.5S41,45.2,40.6,45S40.3,45,40,44.7s-0.2-0.5-0.1-0.9c0.2-0.9,0.3-1.9,0.2-2.8C40.2,40.6,39.2,40.8,39.3,41.3
	L39.3,41.3z"/>
<path d="M39.9,43.5c0.4,0.1,0.8,0.3,1.2,0.6c0.2,0.1,0.4,0.1,0.6,0c0.1,0,0.4-0.2,0.3-0.3c-0.4-0.3-0.8-0.5-1.3-0.6
	c-0.2-0.1-0.5,0-0.7,0.1C39.9,43.2,39.6,43.4,39.9,43.5L39.9,43.5z"/>
<path d="M40.2,41.4L40.2,41.4l-0.3,0.1c0.3,0.1,0.7,0.2,0.9,0.5c0.3,0.2,0.6,0.4,0.9,0.6c0.3,0.2,1.2-0.2,0.8-0.5
	c-0.4-0.3-0.9-0.6-1.4-0.9c-0.4-0.3-0.9-0.3-1.3-0.2c-0.2,0.1-0.4,0.2-0.2,0.4S40.1,41.5,40.2,41.4L40.2,41.4z"/>
<path d="M51.5,25.5c-0.7,1.2-1.5,3-0.2,4.2c1.1,1,2.8,0.3,3.5-0.8c0.9-1.2,0.6-3-0.6-3.9c0,0-0.1,0-0.1-0.1c-1-0.5-2.3-0.2-2.8,0.8
	c-0.1,0.1-0.1,0.3-0.2,0.5c-0.1,0.4,0.9,0.3,1-0.1c0.5-1.7,1.9-0.2,2.2,0.6c0.3,0.9-0.1,2-0.8,2.5c-1.3,0.8-1.9-0.7-1.8-1.6
	c0.1-0.7,0.4-1.5,0.8-2.1C52.7,25.2,51.7,25.2,51.5,25.5L51.5,25.5z"/>
<path d="M58.1,22.4c-2.1-0.8-2.6,2.6-1.9,3.9c1,1.9,3.4,0.5,4.3-0.8c0.3-0.4-0.7-0.4-0.9-0.1c-0.6,0.9-2,1.8-2.5,0.4
	c-0.1-0.4-0.2-0.8-0.2-1.2c0-0.2,0.2-1.6,0.7-1.5S58.7,22.6,58.1,22.4z"/>
<path d="M61.9,22.4c0.8-0.3,1.6-0.6,2.3-0.8c0.6-0.2,0.4-0.8-0.2-0.6c-0.9,0.3-1.7,0.6-2.6,0.9c-0.2,0.1-0.4,0.3-0.2,0.5
	S61.7,22.4,61.9,22.4z"/>
<path d="M61.1,22.5l0.1,2.1c0,0.5-0.1,1.3,0.3,1.7s0.6,0.1,0.9,0c0.7-0.2,1.3-0.4,2-0.6s0.4-0.6-0.1-0.5c-0.7,0.3-1.4,0.5-2.2,0.7
	l0.4,0.1c-0.4-0.3-0.3-1.3-0.3-1.8l-0.1-1.9C62.1,22,61.1,22.1,61.1,22.5L61.1,22.5z"/>
<path d="M61.9,24.6l1.6-0.5c0.1,0,0.5-0.2,0.4-0.4s-0.4-0.2-0.6-0.2L61.7,24c-0.2,0-0.5,0.2-0.4,0.4S61.7,24.6,61.9,24.6L61.9,24.6z
	"/>
<path d="M66.5,25.9l0.3-2.3c0-0.3,0.1-0.7,0.1-1c0.1-0.6,0.1-0.8,0.7-0.8s0.6,0.2,0.6,0.7c0,0.4,0,0.8,0,1.1
	c-0.1,0.9-0.2,1.9-0.3,2.8c0,0.3,0.9,0.1,0.9-0.2c0.1-1.3,1.2-5.6-1.2-5.3c-2.2,0.3-2,3.4-2.2,5.1C65.5,26.3,66.4,26.1,66.5,25.9
	L66.5,25.9z"/>
<path d="M67.1,24c0.3-0.1,0.6-0.1,0.9,0c0.2,0,0.5,0,0.7-0.1c0.1,0,0.3-0.2,0.1-0.3c-0.6-0.1-1.2-0.1-1.7,0.1
	c-0.1,0-0.5,0.1-0.4,0.3S67,24.1,67.1,24L67.1,24z"/>
<path d="M71.3,26.3l0.5-2.1c0.1-0.5,0.2-1.5,0.7-1.8h-0.8c0.3,1.1,0.2,2.3,0.4,3.4c0.1,0.6,0.2,1.6,1,1.5c0.6-0.1,1.1-0.4,1.3-0.9
	c0.6-1,1.1-2,1.6-3.1c0.1-0.3-0.8-0.2-1,0.1c-0.3,0.7-0.6,1.4-1,2.1c-0.2,0.3-0.4,0.6-0.5,0.9c-0.3,0.5-0.2,0.2-0.3-0.2
	c-0.4-1.3-0.2-2.7-0.5-4c-0.1-0.3-0.6-0.1-0.8,0c-0.4,0.3-0.7,0.8-0.8,1.4c-0.2,1-0.5,2-0.7,2.9C70.2,26.8,71.2,26.7,71.3,26.3
	L71.3,26.3z"/>
<path d="M77.6,24.9c-0.7,0.7-2.9,2.6-1.9,3.7s3-0.7,3.8-1.2l-0.6-0.4c-0.7,0.5-1.8,2-1.4,3c0.6,1.5,3.4-0.4,4-0.9s-0.3-0.7-0.6-0.4
	c-0.6,0.5-1.3,0.9-2,1.1c-0.5,0-0.4-0.2-0.4-0.6c0.2-0.7,0.5-1.2,1.1-1.7c0.5-0.4-0.3-0.7-0.6-0.4s-0.9,0.6-1.4,0.8s-1,0.5-0.9-0.5
	c0.1-0.8,1.3-1.7,1.8-2.2S77.9,24.7,77.6,24.9L77.6,24.9z"/>
<path d="M82.7,30.1c-1,0.6-1.9,1.2-2.8,1.9c-0.2,0.1-0.1,0.2,0.1,0.3c0.2,0,0.5,0,0.7-0.2c0.8-0.6,1.7-1.2,2.6-1.7
	c0.2-0.1,0.2-0.2,0.1-0.3S82.8,30,82.7,30.1z"/>
<path d="M85.1,33c0.4-0.2,0.5-0.7,0.3-1.1c-0.1-0.1-0.1-0.2-0.3-0.3c-0.6-0.3-1.3-0.3-1.9,0.1c-0.5,0.2-0.7,0.8-0.5,1.3
	c0.2,0.3,0.5,0.7,0,1c-0.2,0.2-0.5,0-0.6-0.2C82,33.6,82,33.2,82.2,33c0.3-0.5-0.7-0.5-0.9-0.1c-0.5,0.6-0.4,1.4,0.2,1.9
	c0.4,0.3,1,0.4,1.5,0.1c0.5-0.1,0.9-0.5,1-1c0.1-0.3,0-0.5-0.1-0.8c0-0.1-0.2-0.3-0.2-0.4l0.2-0.5c0.4-0.1,0.6,0,0.6,0.3
	C84,33,84.7,33.3,85.1,33L85.1,33z"/>
<path d="M85.7,34.3c-1,0.4-1.9,1-2.7,1.8c-0.7,0.8,0.2,2.1,0.5,3c0.1,0.3,1.1,0.1,1-0.3s-0.4-0.9-0.5-1.3s-0.3-1,0.2-1.5
	c0.7-0.6,1.5-1,2.3-1.4C87,34.3,86.1,34.1,85.7,34.3L85.7,34.3z"/>
<path d="M85.6,34.7c0.3,0.6,0.5,1.3,0.7,2c0.1,0.3,1,0.1,1-0.3c-0.1-0.7-0.4-1.4-0.7-2C86.4,34.1,85.5,34.4,85.6,34.7L85.6,34.7z"/>
<path d="M84.1,35.5c0.3,0.6,0.5,1.3,0.7,2c0.1,0.3,1,0.1,1-0.3c-0.1-0.7-0.4-1.4-0.7-2C85,35,84,35.3,84.1,35.5L84.1,35.5z"/>
<path d="M45.7,63.9c0.4,1.3,1,2.8,2.6,2.4c1.3-0.3,2.1-1.4,2.1-2.7c0-1.4-1.7-1.9-2.9-1.6c-1.1,0.1-1.9,1.2-1.7,2.2
	c0,0.2,0.1,0.4,0.2,0.7c0.1,0.2,1-0.1,1-0.3c-0.1-0.3-0.2-0.7-0.2-1c0-0.2,0-0.4,0.1-0.6c0-0.1,0.1-0.2,0.1-0.3l1.1-0.4
	c0.8,0.1,1.4,0.8,1.4,1.7c0,0.4-0.1,0.7-0.3,1.1c-0.1,0.2-0.2,0.4-0.3,0.5c-0.3,0.2-0.7,0.3-1.1,0.2c-0.7-0.3-1-1.5-1.2-2.2
	C46.7,63.4,45.7,63.6,45.7,63.9L45.7,63.9z"/>
<path d="M49.7,60.2c0.5,0.4,1,0.8,1.5,1.4c0.3,0.4,0.7,0.8,1.2,1.1c0.3,0.2,1.2-0.3,0.8-0.5c-0.5-0.3-0.9-0.7-1.3-1.2
	c-0.4-0.5-0.9-0.9-1.4-1.2C50.1,59.5,49.3,59.9,49.7,60.2z"/>
<path d="M50.1,59.7c0.1-0.2,0.2-0.6,0.3-0.8l0.9-0.2c0,0.2,0,0.5,0,0.7c-0.1,0.6-0.2,1.1-0.3,1.6c-0.1,0.4,0.8,0.1,1-0.1
	c0.3-0.7,1-1.7,1.9-0.9c0.3,0.3,0.5,0.6,0.8,0.9s1.1-0.2,0.9-0.4c-0.9-0.7-1.2-1.7-2.6-1.4c-1,0.3-1.7,1-2,2l1-0.1
	c0.2-0.8,1-3-0.4-3.2c-1.2,0-2.1,0.9-2.4,2c-0.1,0.3,0.9,0.2,1-0.1L50.1,59.7z"/>
<path d="M57.8,55.3c-0.3-0.5-1-0.7-1.5-0.4c-0.2,0.1-0.3,0.2-0.4,0.4c-0.5,0.8-0.6,1.7-0.2,2.6c0.6,1.8,2.8,2.7,3.7,0.6
	c0.2-0.5-0.8-0.4-0.9-0.1c-0.6,1.3-1.6,0-1.8-0.8c-0.1-0.4-0.2-0.7-0.2-1.1c0-0.2,0.1-1.2,0.4-0.8S58.1,55.7,57.8,55.3z"/>
<path d="M57.8,57.3c0.2-0.1,0.5-0.3,0.7-0.4L58,56.9c0.1,0.1,0.2,0.4,0.2,0.6l0.3,0.7c0.1,0.4,0.3,0.7,0.5,1
	c0.3,0.2,1.1-0.2,0.9-0.4c-0.6-0.5-0.5-1.5-0.9-2.1s-1.2,0.1-1.6,0.3C56.8,57.2,57.4,57.5,57.8,57.3L57.8,57.3z"/>
<path d="M62.8,58.6c-0.1-0.7-0.2-1.3-0.3-2c0-0.4,0-0.8,0-1.2c0-0.3,0.1-0.5,0.2-0.8c-0.1-0.1-0.1-0.1,0,0c0.5,0.1,0.6,1.4,0.6,1.7
	l0.4,2.4c0,0.2,1,0,1-0.3c-0.1-1.2-0.3-2.4-0.7-3.6c-0.2-0.6-0.7-0.9-1.3-0.8c-2,0.3-1.1,3.4-0.9,4.7C61.9,59.1,62.9,58.9,62.8,58.6
	L62.8,58.6z"/>
<path d="M62.5,57.2l1.1-0.1c0.2,0,0.5-0.1,0.5-0.4s-0.3-0.3-0.4-0.3l-1.1,0.1c-0.2,0-0.5,0.1-0.5,0.4S62.3,57.2,62.5,57.2z"/>
<path d="M67.3,58.6c-0.1-1.2,0-2.5,0.2-3.7l-0.7,0.3c-0.2,0,0.1,0.3,0.2,0.3c0.1,0.1,0.1,0.3,0.2,0.4c0.1,0.4,0.1,0.7,0.2,1.1
	c0.1,0.7,0.4,1.4,0.8,2.1c0.1,0.2,0.7,0.1,0.9-0.1c0.5-0.3,0.5-1.1,0.6-1.6c0.1-0.8,0.3-1.6,0.5-2.3c0.1-0.2-0.8-0.1-0.9,0.2
	c-0.2,0.6-0.4,1.3-0.5,1.9c-0.1,0.4-0.1,1.5-0.4,1.8l0.9-0.1c-0.5-0.9-0.8-1.8-0.9-2.8c-0.1-0.6-0.3-1.3-1-1.3
	c-0.2,0-0.6,0.1-0.7,0.3c-0.3,1.2-0.4,2.5-0.3,3.8C66.3,59,67.3,58.9,67.3,58.6L67.3,58.6z"/>
<path d="M72.1,56.2c-0.2,1.2-0.7,2.3-0.9,3.4c0,0.2,0.9,0,0.9-0.2c0.3-1.2,0.8-2.3,1-3.5C73.1,55.9,72.2,56,72.1,56.2L72.1,56.2z"/>
<path d="M77.1,57.9c-0.7-0.4-1.7-0.4-2.3,0.2c-0.5,0.3-0.9,0.8-1,1.4c-0.2,0.4-0.1,1,0.2,1.3c0.5,0.4,1.4,0.2,1.9,0
	c0.1,0,0.4-0.1,0.3-0.2s-0.5,0-0.6,0.1c-0.8,0.2-1-0.6-0.9-1.2s0.8-1.9,1.6-1.2C76.4,58.4,77.2,58.1,77.1,57.9L77.1,57.9z"/>
<path d="M58.5,83.1c0.4,0,2.2-0.8,1.2-0.8C59.3,82.3,57.6,83.1,58.5,83.1z"/>
<path d="M62.7,87.6c2.6-1.9,5.5-2.7,8.6-1.4c0.7,0,1.3-0.2,1.8-0.6c-4.2-1.7-8.7-0.3-12.2,2.2C60.6,88,61.3,88,61.4,88
	C61.9,88,62.3,87.9,62.7,87.6L62.7,87.6z"/>
<path d="M52,80.6c-1.2,0.1-2.1-0.5-3.2,0.1c-0.8,0.4-1.1,1-0.5,1.7c0.9,0.9,1.9,1.8,3,2.5c1.1,0.9,2.2,1.8,3.2,2.9
	c0.4,0.5,2.3-0.2,1.8-0.7c-1.2-1.2-2.5-2.4-3.9-3.4c-0.7-0.5-1.3-1.1-2-1.7l-0.3-0.3c-0.5-0.2-0.6-0.3-0.2-0.2s0.9,0.2,1.3,0.1
	s1.1-0.1,1.3-0.5S52.4,80.6,52,80.6L52,80.6z"/>
<path d="M55.9,87.2c1.8-0.2,3.5-0.2,5.3,0c1,0,2.1-0.4,2.9-1c1.8-1,3.8-1.4,5.9-1.1c1.3,0.2,2.7,0.3,4,0.2c2.2-0.4,3.3-3.1,5.1-4.3
	c0.8-0.6,1.4-1.1,1.2-2.2C80,78,79.9,77,80.2,76.2c0.3-0.9,0.8-1.7,1.4-2.5c0.5-0.7-1.4-0.2-1.6-0.1c-1.4,0.9-2.9,1.6-4.5,2.3
	c-0.8,0.3-0.7,0.9,0.2,0.8c1.4-0.1,2.7-0.6,3.8-1.3L78,75.3c-0.4,0.7-1,1.3-1.8,1.7c-0.9,0.5,0.1,0.8,0.7,0.6l2.1-0.7l-0.9-0.5
	c-1.6,1.4-3.4,2.4-5.4,3.1l1.2,0.3l3-2.9c0.2-0.2-0.1-0.4-0.3-0.4c-2.1-0.2-3.9,0.8-5.9,0.7l0.4,0.6c0.8-0.8,1.8-1.2,2.9-1.3
	c1.2,0.1,2.1,1.1,2,2.3c0,0.2,0,0.3-0.1,0.5c-0.4,1.3-2,1.8-2.5,3.2c-0.1,0.4,0.6,0.3,0.8,0.3c2-0.2,3.8-1.4,4.7-3.3
	c0.3-0.6-1.5-0.1-1.7,0c-0.8,0.6-1.6,1-2.6,1.2l0.6,0.6l3.9-2.9l-1.6-0.1c-0.9,1.3-1.9,2.6-2.9,3.8c-0.5,0.8-1.4,1.3-2.4,1.4
	c-0.9,0.1-1.8,0.2-2.7,0.2c-1.9,0.1-4.6-0.3-5.8,1.6c-0.2,0.4,0.2,0.5,0.5,0.5c3.3-0.1,6.5-1.7,9.8-1.7c0.2,0,1.8-0.4,1.3-0.8
	c-1.7-1.4-12.5,1.2-12.8-0.2l-1.4,0.7c4.2,0.1,8.5-0.3,12.6-1.3c0.8-0.2,1.2-1,0.1-0.9c-3.6,0.4-7.1,0.5-10.7,0.5l-0.8,1
	c3.2-0.2,6.4-0.6,9.6-1.2c0.9-0.2,1.2-1,0-0.9c-2.2,0.3-4.5,0.3-6.8,0L64.3,82c2.4-0.5,4.8,0,7.1-1.2c0.2-0.1,0.6-0.5,0.2-0.6
	c-0.6-0.3-1.3-0.4-2-0.4c-0.2,0-1.6,0.2-1.4,0.7c0.4,0.8,1,1.4,1.8,1.8l3,2.3l1.3-0.8c-1.8,0.1-3.5-0.3-5.3-0.3
	c-1.5,0-3,0.3-4.4,0.8c-0.6,0.2-1.2,0.7-1.9,0.9c-1.3,0.4-2.4,0.1-3.7,0.1c-1.5,0-4.4,0.8-4.7-1.5l-1.9,0.6c1.6,1.3,3.7,1.2,5.6,1.2
	s4.4,0.3,6.2-0.8c0.1-0.1,0.6-0.4,0.3-0.6c-0.9-0.4-1.9-0.5-2.9-0.3c-1.8,0.1-3.5,0.1-5.3-0.1l-1.2,0.9c0.8,0.1,1.6,0.3,2.2,0.7
	l0.5-0.7h-1.4l-0.7,0.8c1.7-0.4,5.6-1,6-3.1l-0.6,0.5c1-0.4,2.2-0.5,2.5-1.7c0.2-0.6-1.8-0.3-1.9,0.3s-1.4,0.7-1.9,1.2
	c-0.2,0.3-0.4,0.6-0.6,0.8c-0.4,0.2-0.9,0.4-1.3,0.6c-0.8,0.3-1.6,0.5-2.4,0.7c-0.2,0-1.3,0.7-0.7,0.8c1.2,0.3,2.5,0.3,3.7-0.2
	c0.1-0.1,0.9-0.5,0.5-0.7c-0.9-0.6-1.8-0.9-2.8-1c-0.5-0.1-2.3,0.8-1.2,0.9c1.2,0.2,2.4,0.2,3.6,0.2c1,0,3.2-0.5,4,0l0.3-0.6
	c-1.2,0.8-3.5,0.3-4.9,0.3s-2.8,0-4-0.9c-0.4-0.3-1.9,0-1.9,0.6c0.2,1.2,1.9,2.2,3,2.2s2.2-0.4,3.3-0.3c0.8,0.1,1.6,0.2,2.4,0.2
	c2-0.2,3.6-1.6,5.6-2c2.3-0.4,4.5,0.4,6.8,0.2c0.2,0,1.8-0.4,1.3-0.8L72.3,82c-0.7-0.6-1.8-1.1-2.2-2l-1.4,0.7L70,81l0.2-0.7
	c-1.6,0.8-3.8,0.4-5.6,0.7c-0.3,0.1-1.8,0.8-0.8,0.9c2.5,0.3,5.1,0.3,7.7,0v-0.9c-2.8,0.6-5.7,1-8.6,1.1c-0.6,0.1-2.1,0.9-0.8,1
	c3.7,0.1,7.5-0.1,11.2-0.5l0.1-0.9c-3.7,0.9-7.6,1.2-11.4,1.1c-0.3,0-1.5,0.2-1.4,0.7c0.3,1.4,3.9,0.8,4.8,0.7
	c1.1-0.1,2.2-0.2,3.3-0.4s3.9-0.7,4.8,0.1l1.3-0.8c-3.4,0-6.5,1.5-9.8,1.7l0.5,0.5c0.7-1.1,3.9-0.7,5.1-0.8c1.2,0,2.3-0.2,3.5-0.6
	c2.4-0.9,3.9-3.8,5.3-5.8c0.5-0.7-1.4-0.3-1.6-0.1l-3.9,2.9c-0.6,0.4,0.2,0.6,0.6,0.6c1.6-0.3,3.1-0.9,4.4-1.9h-1.7
	c-0.4,1.1-1.3,1.9-2.5,2.1l0.8,0.3c0.5-1.3,2.1-1.8,2.5-3.2c0.3-1.2-0.1-2.5-1.2-3.2c-1.9-1.2-5.7,0.4-7.1,1.7
	c-0.4,0.4-0.1,0.6,0.4,0.6c1.9,0.1,3.7-0.9,5.5-0.8l-0.3-0.4l-3,2.9c-0.6,0.6,1.1,0.4,1.2,0.3c2.3-0.8,4.3-2,6.1-3.5
	c0.6-0.6-0.5-0.6-0.9-0.5l-2.1,0.7l0.7,0.6c1.1-0.6,1.9-1.4,2.5-2.5c0.3-0.5-1.4-0.2-1.5-0.1c-0.7,0.5-1.5,0.7-2.4,0.8l0.2,0.8
	c1.8-0.8,3.6-1.7,5.3-2.7l-1.6-0.1c-0.9,1-1.5,2.2-1.8,3.5c0,0.6,0,1.2,0.1,1.7c0.1,1.1,0,1.2-0.9,1.9c-0.8,0.7-1.6,1.4-2.3,2.2
	c-0.4,0.5-0.7,1.1-1.4,1.3c-0.9,0.1-1.9,0-2.8-0.2c-2.3-0.3-4.7,0.1-6.8,1c-0.5,0.2-1.1,0.7-1.6,0.9c-0.8,0.2-1.6,0.2-2.4,0
	c-1.3-0.1-2.6,0-3.9,0.2C55.3,86.4,54.5,87.4,55.9,87.2L55.9,87.2z"/>
<path d="M70.4,71.4c-0.4,0.5-0.3,1.7-0.3,2.3c-0.1,0.5,0,1.1,0.2,1.6c0.3,0.5,1,0.7,1.6,0.3c0.4-0.2,0.8-0.5,1.1-0.8
	c0.2-0.2,1-1.2,1.2-1.2c0.6-0.1,0.8,1.2,1,1.7c0.2,0.5,0.5,1,0.8,1.4c0.2,0.3,0.9,0.2,0.9-0.2c0-0.7-0.5-1-1.2-1
	c-1.4,0-3.8,1.3-4.9,0.1L70.2,76c0.9,0.4,2,0.5,3,0.3c0.6-0.2,0.4-0.9-0.2-0.7c-0.7,0.2-1.5,0.1-2.2-0.2c-0.2-0.1-1.1,0.2-0.7,0.6
	c0.6,0.5,1.4,0.8,2.2,0.8c0.4,0,3.7-0.7,3.7-0.3l0.9-0.2c-0.4-0.7-0.8-1.5-1.1-2.3c-0.2-0.4-0.3-1-0.8-1.2c-1-0.5-1.8,0.8-2.3,1.3
	c-0.3,0.3-1,1-1.5,0.7c-0.3-0.2-0.1-1.3-0.1-1.7c0-0.6,0.3-1.7,0-2.2s-1.1-0.2-1.5,0.2s0.5,0.7,0.8,0.3L70.4,71.4z"/>
<path d="M75.7,71.6c-0.3,0.2-0.3,0.5-0.2,0.7c0.1,0.2,0.2,0.4,0.2,0.7c0.1,0.3,0.2,0.5,0.4,0.8c0.3,0.3,0.6,0.5,1,0.6
	c0.8,0.2,3.2-0.9,3.4-0.2s-0.7,1.7-0.6,2.5c0.2,1.2,1.4,0.7,2.3,0.9l-0.1-0.4c-0.9,0.4-1.4,0.3-1.7-0.4c-0.2-0.3-1.1,0-0.9,0.3
	c0.3,0.7,0.6,1.7,1.5,1.5c0.4-0.1,1.2-0.6,1.1-1.1c-0.1-0.7-1-0.4-1.5-0.4c-0.9-0.1-1.6-1.1-2.2-1.7c-0.6-0.5-1.1-1-1.8-1.5
	l-0.8,0.5c0.7,0.3,1.4,0.6,2.1,0.9c0.3,0.1,1.1-0.4,0.6-0.6s-1.3-0.5-1.9-0.8c-0.3-0.1-1.2,0.2-0.8,0.5c1.2,0.9,2.1,2.2,3.4,3
	c0.3,0.2,0.6,0.3,1,0.3c0.2,0,0.4,0,0.6-0.1c0.2,0.4,0.2,0.4-0.1-0.1c-0.1-0.2-0.3-0.5-0.4-0.8l-0.9,0.3c0.5,1,1.8,1.3,2.7,0.7
	c0.2-0.1,0.5-0.3,0.6-0.6c0.1-0.2,0.1-0.3-0.1-0.4c-0.7-0.2-1.9,0.1-1.9-1c0.1-0.5,0.2-1,0.4-1.5c0.2-0.9,0.2-1.5-0.9-1.4
	c-0.8,0.1-1.6,0.8-2.4,0.8c-1.9,0-0.9-1.9-2-2.6c-0.4-0.2-0.9-0.1-1.2,0.3c0,0.1-0.1,0.2-0.1,0.3C74.8,72.1,75.7,72,75.7,71.6
	L75.7,71.6z"/>
<path d="M71.2,85.8c0.5,0.3,0.9,0.6,1.3,1c0.2,0.1,0.3,0.1,0.5,0.1c0.3,0,0.5-0.1,0.8-0.2c0.1-0.1,0.8-0.3,0.6-0.6
	c-0.4-0.4-0.9-0.7-1.3-1c-0.4-0.1-0.9-0.1-1.2,0.1C71.7,85.2,70.9,85.6,71.2,85.8L71.2,85.8z"/>
<path d="M74.8,85.5c-0.3-0.4-0.7-0.8-1.1-1.1c-0.4-0.3-1-0.2-1.4,0.1c-0.3,0.3-0.5,0.7-0.1,1l0.2,0.2c0,0,0.1,0.1,0.1,0.1
	c-0.1-0.1,0,0,0,0c0.2,0.2,0.3,0.3,0.4,0.5c0.3,0.3,0.9,0.4,1.3,0.2C74.7,86.3,75.1,85.9,74.8,85.5L74.8,85.5z"/>
<path d="M63.7,87.4c1.1-0.7,2.4-1.3,3.7-1.5c1.9-0.2,3.3,0.7,4.7,1.9c0.5,0.4,2.3-0.3,1.8-0.7c-1.5-1.2-3.3-2.5-5.3-2.3
	c-2.2,0.3-4.3,1-6.1,2.2C61.4,87.5,63.1,87.7,63.7,87.4z"/>
</svg>
