<?xml version="1.0" encoding="utf-8"?>
<!-- Generator: Adobe Illustrator 23.1.1, SVG Export Plug-In . SVG Version: 6.00 Build 0)  -->
<svg version="1.1" id="Layer_1" xmlns="http://www.w3.org/2000/svg" xmlns:xlink="http://www.w3.org/1999/xlink" x="0px" y="0px"
	 viewBox="0 0 163.3 133.3" style="enable-background:new 0 0 163.3 133.3;" xml:space="preserve">
<style type="text/css">
	.st0{fill:none;}
	.st1{fill:#FFFFFF;}
</style>
<title>Sustainability_Pillars</title>
<path class="st0" d="M58.1,59.6c0-0.4,0-0.7,0-1.1c0-0.9,0-1.7,0-2.6c0-0.4,0-0.8,0-1.1c0-0.2,0-0.3,0-0.5c-0.4,0.7-0.9,1.4-1.4,2
	s-1,1.3-1.6,2c0.5,2.4,1.5,4.6,3,6.5c-0.1-1.6-0.1-3.2-0.1-4.8C58.1,59.9,58.1,59.7,58.1,59.6z"/>
<path class="st0" d="M77.7,91.9c1.2,0.8,2.7,1.4,3.9,0.6c0.1-0.1,0.3-0.2,0.4-0.3c0.8-0.8,0.8-2.3,0.7-3.5c-1.1-0.5-2.1-1.3-2.7-2.4
	c-0.3,0.2-0.6,0.3-1,0.3c-0.9,0.6-2,0.5-2-1c0-0.4,0.1-0.7,0.3-1c0-0.1,0-0.1,0-0.2c-0.5-0.1-0.8-0.5-0.8-1c-0.1-0.4,0-0.8,0.2-1.2
	l0,0c-2,0.1-4.1,0.5-6.1,0.7c0.3,0.4,0.6,0.8,0.8,1.3C72.6,87.3,74.9,90,77.7,91.9z"/>
<path class="st0" d="M128.5,61.2L128.5,61.2c-0.2,0.1-0.3,0.3-0.5,0.5c0,0,0-0.1,0-0.1c-0.3,0.2-0.7,0.5-1.1,0.6
	c-1.2,0.6-2.6,1-4,1.1c-0.3,0.1-0.5,0.1-0.8,0.1c0,0.4,0,0.7,0,1.1c0,0.7,0.1,1.5,0.1,2.2c0.5-0.2,1-0.2,1.5,0
	c0-0.2,0.2-0.3,0.3-0.2l0,0c1.2,0.3,2.4,0.4,3.6,0.5c0.5,0.1,1,0.1,1.5,0.1h0.5c0,0,0-0.1,0-0.1c0.4-0.6,0.8-1.3,1.1-2
	c0.2-0.4,0.4-0.8,0.6-1.2c0.1-0.3,0.2-0.8,0.3-1.1c-0.2-0.1-0.4-0.2-0.6-0.4l0,0c-0.2-0.2-0.3-1.1,0-1.2c0.2-0.3,0.5-0.4,0.8-0.5
	c1.2-0.8,1.6-2.4,0.9-3.7c0,0,0,0.1-0.1,0.1C131.4,58.4,130,59.8,128.5,61.2z"/>
<path class="st0" d="M88.8,81.9c0,0.2-0.1,0.4-0.2,0.6c0.1,0.3,0.1,0.7,0.1,1c0-0.3,0.2-0.1,0.2,0.2c-0.1,1.3-0.8,1.4-1.3,1.1
	c-0.1,0-0.2,0-0.4,0c-0.1,0-0.2,0-0.3,0c0,0.1,0,0.2,0,0.3c-0.2,1-0.5,2-0.7,3c-0.2,1,0,2.1,0.6,2.9c0.8,0.8,2,1,3,0.7
	c0.7-0.3,1.4-0.7,2-1.2c0.2-0.2,0.4-0.4,0.6-0.6c1.8-2,2.9-4.4,3.2-7c0-0.1,0-0.3,0.1-0.3l0,0c0-0.2,0-0.3,0-0.5c0-0.1,0-0.3,0-0.4
	C93.5,81.7,91.1,81.8,88.8,81.9z"/>
<path class="st0" d="M77.5,83.2c-0.1,0-0.2,0-0.2,0c0.1,0.1,0.2,0.2,0.2,0.3l0.1-0.1C77.6,83.4,77.6,83.3,77.5,83.2z"/>
<path class="st0" d="M65.2,79.8c0.8,0.1,1.6,0.2,2.4,0.3L65.2,79.8z"/>
<path class="st0" d="M122.5,61.9c0.2,0,0.4,0,0.7-0.1c1.4-0.2,2.7-0.7,3.9-1.4c2-1.1,3.2-3.5,5.3-4.2c-0.1-0.1-0.1-0.2-0.2-0.3
	c-0.5-0.8-1-1.6-1.7-2.3l-0.2-0.3c0,0.1,0,0.1,0,0.2c-0.9,2.8-4,4.2-6.8,4c-0.5,0.1-1,0-1.5-0.1c0.1,1.5,0.1,3,0.2,4.5
	C122.3,61.8,122.4,61.9,122.5,61.9z"/>
<path class="st0" d="M124.7,70.1L124.7,70.1c0,0.1,0,0.1-0.1,0.2c-0.1,0.3-0.3,0.5-0.6,0.5c-0.4,0.1-0.9,0.1-1.3,0
	c0.1,1.1,0.1,2.1,0.1,3.2c0,0.7-0.1,1.3-0.2,2c0.6-0.3,1.2-0.5,1.8-0.7c0.4-0.2,0.8-0.4,1.2-0.7c0.8-1,1.5-2.1,2.2-3.2
	c-1-0.3-2-0.7-2.9-1.2C124.9,70.2,124.8,70.2,124.7,70.1z"/>
<path class="st1" d="M22.3,80.8l-0.2,0.3c0.2,0.6,0.3,1.2,0.5,1.9l0.4,1.2c0.3,1.1,0.7,2.2,1.1,3.2c-0.1-0.3-0.1-0.6-0.2-0.9
	C23.2,84.7,22.7,82.8,22.3,80.8z"/>
<path class="st1" d="M21.7,77.9c-0.3,0.3-0.5-0.1-0.5-0.6c0,0.1-0.1,0.2-0.1,0.3c-0.1,0.4-0.1,0.8-0.1,1.2c0.3-0.5,0.7-0.9,1.1-1.4
	l0.1-0.2C22,77.5,21.9,77.7,21.7,77.9z"/>
<path class="st1" d="M20.6,89.4c0-0.2,0.1-0.3,0.2-0.5l-0.1-0.8c-0.1,0-0.3,0-0.4,0h-0.2c0,0.3-0.2,0.5-0.4,0.6
	c0.1,0.1,0.2,0.2,0.3,0.3C20.2,89.1,20.5,89.2,20.6,89.4z"/>
<path class="st1" d="M23.1,79.4c0.3,0,0.7,0.1,0.8,0.4c0.1,0.5,0.2,0.9,0.4,1.4c-0.1-1-0.3-1.9-0.4-2.9
	C23.6,78.7,23.4,79.1,23.1,79.4z"/>
<path class="st1" d="M21.6,98.1c0,0-0.1-0.1-0.1-0.1l0,0c-0.2,0.1-0.3,0.2-0.5,0.3c-0.5,0.2-1.2,0.3-1.3,0l-0.2-0.6
	c-0.3,0.2-0.5,0.3-0.8,0.3c1,0.7,2.2,0.8,3.3,0.3C21.9,98.3,21.7,98.2,21.6,98.1L21.6,98.1z"/>
<path class="st1" d="M25.4,73.1c-0.3,0.5-0.6,1-0.9,1.5c0.6-0.6,1.2-1.3,1.9-1.8c-0.3,0-0.6,0.1-0.9,0.1
	C25.5,72.9,25.4,73,25.4,73.1z"/>
<path class="st1" d="M24.1,36.5c-0.2-0.8-0.6-1.6-1.5-1.6s-1,1-1,1.8c0,0,0,0,0,0.1C21.6,37.3,23.5,36.5,24.1,36.5z"/>
<path class="st1" d="M30.2,70.5c0.2,0.1,0.2,0.2,0.1,0.4c0,0.1,0,0.1,0,0.2l0.4-0.4c-0.2-0.1-0.4-0.2-0.6-0.3L30.2,70.5z"/>
<path class="st1" d="M25.1,53.3c-1.1,5.7-9,5.8-13.8,5.3c2.1,5.6,7.1,9.6,13,10.6c1.6-1.3,3.4-2.4,5.2-4c0.1-0.1,0.2-0.1,0.2-0.1
	c0.8-1.7,1.3-3.7,1.3-5.6C28.7,58.8,26.6,55.9,25.1,53.3z"/>
<path class="st1" d="M33.7,52.7c0.3,0.2,3.4,1.6,3.3,1.6c0.1-0.5,0.6-2.7,0.3-3l0,0c-2.1-2.1-1.7-7.1-0.7-9.6c0.8-2,2.6-3.3,4.5-2.8
	c0.2-1.8,1.3-3.4,3-4.1c-2.9-2-7.6,0.7-9.6,3.1c-2.3,2.8-3.6,6.8-5.2,10.2C30.4,50,31.9,51.5,33.7,52.7z"/>
<path class="st1" d="M17.3,91.3c0,0.4-0.1,0.8-0.3,1.1l0.1,0.2c0.3,0,0.6,0,0.7,0.2l0,0c-0.1-0.4-0.1-0.9-0.2-1.4
	C17.4,91.4,17.3,91.4,17.3,91.3z"/>
<path class="st1" d="M14.4,83.2c0,0,0.1-0.1,0.2-0.1c-0.5-0.7-0.9-1.5-1.3-2.2C13.6,81.6,14,82.4,14.4,83.2z"/>
<path class="st1" d="M17.1,90.1c-0.2-0.2-0.3-0.3-0.4-0.5c0.2,0.4,0.3,0.8,0.5,1.2C17.1,90.6,17.1,90.3,17.1,90.1z"/>
<path class="st1" d="M6.1,74.2c-0.2,0.3-0.8,1-0.5,1.4s1.1,0.5,1.4,0.5c0.1,0,0.2,0,0.3,0c0-0.3,0-0.5,0-0.8
	c0.1-0.3,0.3-0.6,0.5-0.8l0.1-0.1c0.4-0.4,0.9-0.6,1.5-0.7l0.7-0.3C8.7,72.7,7,73.1,6.1,74.2z"/>
<path class="st1" d="M36.9,44.4c-0.3,1.3-0.4,2.5-0.3,3.8c0.5,1.8,1.7,3.5,3.9,2.6c0.8-0.3,1.5-0.9,1.9-1.6c0.4-1,0.6-2.1,0.8-3.1
	c-0.8,0.2-1.6-0.3-1.9-1.1c-0.2-0.4-0.2-0.8-0.2-1.3c-0.8,1.3-2.5,1.8-3.9,1c0,0-0.1,0-0.1-0.1C37,44.5,36.9,44.4,36.9,44.4z"/>
<path class="st1" d="M41.8,44.4c0.4,0.5,1,0.4,1.5,0.5c0.2-2.7-0.2-5.3-2.8-4.8c-1.6,0.5-2.9,1.7-3.4,3.4v0.1c1.3,0.7,3,0.3,3.8-1.1
	c0.1-0.2,0.2-0.4,0.2-0.6c0.1-0.2,0.1-0.2,0.2-0.1c0.1-0.1,0.3,0.3,0.3,0.5C41.5,43.1,41.3,44,41.8,44.4z"/>
<path class="st1" d="M35.3,99.4c0-0.1,0.1-0.1,0.1-0.2c-0.2-1.3-0.3-2.7-0.4-4C35,96.5,35.1,98,35.3,99.4z"/>
<path class="st1" d="M42.6,39.8c2.4,1.8,1.8,5.9,1.1,8.4c-0.4,1.2-1.1,2.3-2.2,3.2c0,0,0,0.1,0,0.2c0,0.5,0,1,0,1.4
	c0,0.4,0.1,0.8,0.2,1.2c0.3,0.7,1.2,0.7,2,0.8H44c1.5-0.1,3-0.4,4.4-0.8c1.4-0.6,2.7-1.4,3.8-2.4c0-0.1,0-0.2,0-0.3
	c0-0.1,0.1-0.2,0.1-0.3c0-1.2,0.2-2.4,0.2-3.6c0.3-2.1,0.4-4.2,0.2-6.2c-0.2-1.5-0.8-2.9-1.7-4c-0.6-0.9-1.5-1.5-2.6-1.7
	c-0.4-0.1-0.7-0.1-1.1-0.1c-1.4,0-2.8,0.6-3.8,1.7C42.9,38,42.6,38.9,42.6,39.8z"/>
<path class="st1" d="M25.3,76.2c0.3,1,0.5,1.9,0.8,2.8c-0.2-1.1-0.4-2.1-0.5-3.2L25.3,76.2z"/>
<path class="st1" d="M47.6,91.5c-0.1-1.6-0.2-3.1-0.4-4.7c0,0-0.1,0-0.2-0.2v-0.1l0,0c0.1,1.6,0.3,3.1,0.4,4.7
	C47.5,91.2,47.6,91.4,47.6,91.5z"/>
<path class="st1" d="M47.5,103.8c-0.1,0.2-0.2,0.5-0.4,0.9c0.4-0.4,0.7-0.8,1.1-1.2c0.1-0.7,0.2-1.4,0.2-2.2l-0.1,0.2
	c0,0.1,0,0.1,0,0.2c0,0.1-0.1,0.3-0.2,0.5c0.1,0.3,0.1,0.6,0,0.8C48,103.2,47.7,103.5,47.5,103.8z"/>
<path class="st1" d="M43.5,104c-0.1,0.2-0.2,0.4-0.4,0.6l0.2-0.3l1.8-1.9l1.9-2.8c0-0.3,0-0.7-0.1-1l-1.2,2
	C45.1,101.7,44.3,102.9,43.5,104z"/>
<path class="st1" d="M48.6,99.8c0.1-1.4,0.1-2.9,0.1-4.4c0,1.4-0.1,2.8-0.3,4.1C48.4,99.6,48.5,99.7,48.6,99.8z"/>
<path class="st1" d="M47.4,121.6c-0.8,1.4-2.4,2.2-4,1.8c-0.4,2.8,5.9,1.3,6.9,0.4c0.6-0.4,0.7-1.3,0.3-1.9
	c-0.2-0.2-0.4-0.4-0.7-0.5c-0.4-0.1-0.8-0.1-1.3,0C48.2,121.4,47.8,121.5,47.4,121.6L47.4,121.6z"/>
<path class="st1" d="M47.6,107.6c0.1-0.5,0.2-1,0.2-1.4l-0.3,0.3c0,0.1,0,0.2,0,0.2C47.6,107.1,47.6,107.4,47.6,107.6L47.6,107.6z"
	/>
<path class="st1" d="M37.2,92.3l-0.3,0.5l0,0l0.1,0.7c0.2-0.5,0.4-1,0.6-1.5L37.2,92.3z"/>
<path class="st1" d="M42.6,101l4.2-4.8c0-0.3-0.1-0.6-0.1-0.9c-1.7,2.1-3.2,4.2-4.6,6.4C42.4,101.3,42.6,101,42.6,101z"/>
<path class="st1" d="M42.1,98.3L42,98.6c0.6-0.7,1.2-1.3,1.8-2l1.6-1.9c0.4-0.8,0.8-1.5,1.1-2.1L46.5,92c-1,1.3-2,2.8-3,4.1
	C43,96.9,42.6,97.6,42.1,98.3z"/>
<path class="st1" d="M44.6,86.9c-0.1,0.3-0.3,0.7-0.4,1l1.8-2.4c0-0.3,0-0.5-0.1-0.8C45.5,85.3,45.1,86,44.6,86.9z"/>
<path class="st1" d="M44.5,91.9l-3.2,3.8c-0.5,0.7-1,1.4-1.4,2.1c0,0.1-0.1,0.2-0.2,0.2c-0.2,0.5-0.4,0.9-0.6,1.4
	c1.1-1.5,2.2-3,3.3-4.5C43.1,94,43.8,93,44.5,91.9z"/>
<path class="st1" d="M43.6,117.7c-0.1,0-0.2,0.1-0.2,0.1c-0.2,0.1-0.3-0.5-0.3-0.9l-0.4,0.4c0.3,0.3,0.6,0.6,1,0.8
	C43.6,117.9,43.6,117.8,43.6,117.7z"/>
<path class="st1" d="M39.5,107.6c0.1-0.3,0.2-0.7,0.2-1l-0.4,0.4C39.4,107.2,39.5,107.4,39.5,107.6z"/>
<path class="st1" d="M41.9,82.5c-0.1-0.1-0.1-0.2-0.1-0.4l-0.5,0.7c-0.8,1-1.5,2.1-2.2,3.2c-0.1,0.2-0.2,0.4-0.3,0.6
	c0.1,0.1,0.2,0.1,0.3,0.1c0.7-1.2,1.5-2.4,2.3-3.5L41.9,82.5z"/>
<path class="st1" d="M37.5,96.2c0.5-0.8,0.9-1.7,1.4-2.5c-0.5,0.6-0.9,1.2-1.4,1.8C37.5,95.7,37.4,95.9,37.5,96.2z"/>
<path class="st1" d="M46.2,89c0-0.3,0-0.7-0.1-1l-0.1,0.1c-0.4,0.7-0.8,1.3-1.2,2c0.4-0.4,0.8-0.8,1.2-1.2
	C46.1,88.8,46.1,88.9,46.2,89z"/>
<path class="st1" d="M43.3,84.5c0.9-1.3,1.7-2.3,2.2-2.9c-0.1-0.3-0.2-0.6-0.3-0.9c-0.2,0.3-0.4,0.7-0.7,1c-0.6,1.2-1.2,2.4-1.8,3.6
	L43.3,84.5z"/>
<path class="st1" d="M43.5,77.9c0.3-0.4,0.5,0.2,0.5,0.8c0.1-0.1,0.3-0.2,0.4-0.4c0-0.2,0-0.3,0-0.5c-0.3-0.3-0.6-0.7-0.9-1l0,0
	c-0.3,0.4-0.6,0.7-0.9,1.1c0.1-0.1,0.2-0.1,0.3-0.2s0.2,0.2,0.2,0.5L43.5,77.9z"/>
<path class="st1" d="M58.4,45.2c-0.3,0.6-0.6,1.2-0.8,1.8v0.1c-1.1,2-2.5,3.9-4.1,5.5c-1.6,1.6-3.5,2.8-5.7,3.4
	c-1.1,0.3-2.3,0.5-3.5,0.4c-1.2-0.1-2.7-0.5-3-1.8c-0.1-0.4-0.2-0.7-0.1-1.1c0-0.6,0-1.2,0.1-1.8c0-0.1,0-0.1,0-0.2
	c0,0.3-1.4,0.6-1.6,0.7c-0.5,0-1,0-1.5-0.3c0,0.1,0,0.2,0,0.4c0,0,0,0.1,0,0.2c0,0.2,0,0.4,0,0.6c0,0.1,0,0.2-0.1,0.3s0,0.2-0.1,0.4
	c-0.1,0.3-0.1,0.7-0.2,1c-0.4,1.2-2,0.8-2.8,0.3c-3-1.4-5.1-4.4-6.8-7.1c-1.9-3.1-3.2-6.5-3.9-10l-0.1-0.3c-0.2-0.2-0.6-0.1-0.8-0.1
	c-0.4,0-0.9,0-1.3-0.1c-0.1,0-0.2,0-0.3-0.1c0.3,8.1,2.7,16.9,10.5,20.8c0,0.1-0.1,0.2-0.1,0.4S32,59,32,59.1l-0.1,0.1
	c0.1,2.4-0.1,4.9-0.7,7.2c1.2,0.6,2.6,1,3.9,1.1c1.9,0.1,3.8-0.6,5.6-0.6c0.2,0,0.2-0.2,0.2-0.3c0-1.8,0-3.6,0.2-5.4
	c0-0.1,0-0.1,0-0.2c0.1-0.2,0.1-0.3,0.3-0.3c3.5,0.6,6.1,1.4,9.4-0.4c1.8-1.1,3.5-2.5,4.7-4.2c1-1.3,1.9-2.6,2.7-4
	c0,0.7,0,1.4,0,2.1c0,0.2,0,0.3,0,0.5C58.3,51.6,58.3,48.4,58.4,45.2z"/>
<path class="st1" d="M119.1,9c0,0,0-0.1,0-0.2c0-0.2,0-0.4-0.1-0.5V8.2c0-0.2,0-0.3-0.1-0.4c0.1,0.4,0.2,0.7,0.2,1.1
	C119.1,9,119.1,9,119.1,9z"/>
<path class="st1" d="M58.1,58.5c0-0.9,0-1.7,0-2.6C58.1,56.8,58.1,57.7,58.1,58.5z"/>
<path class="st1" d="M59.4,7.1c-0.2,0.1-0.4,0.2-0.5,0.4C59,7.4,59.2,7.2,59.4,7.1z"/>
<path class="st1" d="M118.3,6.5c0.1,0.1,0.2,0.3,0.2,0.4C118.5,6.7,118.4,6.6,118.3,6.5z"/>
<path class="st1" d="M118.2,6.3C118.2,6.3,118.2,6.2,118.2,6.3c-0.1-0.2-0.2-0.3-0.2-0.5c-0.9-1.2-3-0.9-4.2-0.8
	C115.4,4.9,117.1,4.8,118.2,6.3z"/>
<path class="st1" d="M58.9,7.6c-0.3,0.7-0.3,1.4-0.1,2.1c0-0.4,0-0.8,0-1.2C58.7,8.2,58.7,7.9,58.9,7.6z"/>
<path class="st1" d="M59.3,77.8c0,0.1,0,0.3,0.1,0.4c-0.1,0.4,0,1,0.4,1.1h0.1c-0.3-0.6-0.4-1.2-0.5-1.9
	C59.3,77.6,59.3,77.7,59.3,77.8z"/>
<path class="st1" d="M77.5,79.8c0.1-0.5,0.6-0.9,1.2-0.8c-0.1-0.4,0.1-0.8,0.4-1c0.3-0.3,0.8-0.3,1.1-0.1c0.1-0.4,0.2-0.7,0.5-1
	c0.3-0.8,0.8-1.3,1.6-1.2c0.5,0.1,0.9,0.6,1,1.1c0.7-1.1,1.8-0.1,1.6,1.2c0,0.2-0.1,0.3-0.2,0.5l0.2-0.1c0.2-1.1,0.8-2,1.6-0.9
	c0.1,0.2,0.2,0.5,0.3,0.7c0.8-0.8,1.4-0.1,1.4,0.7c0.2,0,0.3,0.1,0.5,0.2c0.6,0,1.2,0,1.7-0.1c7.6-0.1,15.2-0.2,22.7-0.6l0.6-0.1
	c1.3-0.2,2.7-0.1,4-0.2h0.1c0.4,0,0.9-0.1,1.3-0.1c0.2,0,0.3-0.1,0.5-0.1c0.1,0,0.3,0.1,0.4,0.1c0.5-0.5,1-1,1.6-1.4
	c0.7-1.8,0.3-4.8,0.1-6.4c-0.2-0.1-0.4-0.3-0.5-0.6c-0.2-0.7-0.2-1.4,0.2-2c-0.2-1.7-0.4-3.4-0.6-5.2c-0.1-5.8-0.2-11.6-0.5-17.4
	c-0.1-2.9-0.3-5.8-0.5-8.6c-0.2-2.6-0.6-5.1-0.8-7.7c-0.2-2.2-0.2-4.5-0.3-6.7c-0.1-4.4-0.2-8.7-0.6-13.1c-0.1-0.9-0.9-1-1.7-1.2
	c-1.7-0.3-3.4-0.5-5.1-0.3c-7,0.3-14,0.4-21,0.4c-3.5,0-7,0-10.5-0.1c-3.3-0.1-6.5,0.6-9.7,0.8c-2.5,0.1-5-0.1-7.5,0.1
	c-2.9,0.3-1.9,4.7-1.9,6.7c0,3.7,0.1,7.5,0.2,11.2c0.1,5.8,0.1,11.6,0.2,17.4c0.2,10.8,1.4,21.6,0.5,32.4c-0.1,0.7,0,1.4,0.3,2
	c0.4,0.4,0.9,0.7,1.5,0.8c0.7,0.2,1.4,0.3,2,0.4l2.4,0.3C70.9,80.1,74.2,80.1,77.5,79.8z M75.9,70.9c-0.5,1.7-1.8,2.2-2.9,1.7
	c-0.5,0-0.9-0.3-1.1-0.6c-0.4-0.7-0.6-1.5-0.5-2.3c0.1-1.4,0.5-2.8,1.2-4c0.3-0.6,0.9-1.3,1.7-1.4s1.2,0.6,1.6,1.1
	c-0.1-0.1-0.2-0.3-0.3-0.4c0.1,0.1,0.2,0.3,0.3,0.4C76.7,66.8,76.3,69.5,75.9,70.9z M82.1,73.3c-0.2,0.2-0.5,0.4-0.8,0.4
	c0,0-0.1,0-0.1,0c-0.6-1.1-1.1-2.3-1.4-3.5l-0.5,0.3c-0.1,0-0.1,0.1-0.2,0.1c0,0.1,0,0.1,0,0.2c0,0.7,0,1.4,0.1,2.1
	c0.1,1-1.3,1.2-1.7,0.3c-0.1-0.2-0.1-0.5-0.1-0.8c0-1.7,0-3.4,0.1-5.1c0.1-1.2,0.1-2.6,1.6-2.9c1.6-0.3,2.3,1.2,2.3,2.5
	c0,0.8-0.2,1.6-0.6,2.3c0.7,1.2,1.2,2.4,1.5,3.7C82.3,73,82.2,73.4,82.1,73.3z M85.2,68.5c-0.3,0.6-0.9,1.1-1.5,1.5
	c0.2,1,0.3,2.1,0.2,3.1c-0.1,0.6-0.2,0.5-0.8,0.8c-0.1,0-0.2,0-0.2-0.1s-0.1,0-0.2-0.1c-0.1-0.3-0.1-0.7-0.1-1l0,0
	c0-0.3,0-0.5-0.1-0.8c-0.2-1.3-0.4-2.5-0.5-3.8c-0.1-1-0.3-2.2,0.3-3.1s1.1-0.9,1.5-0.6c0.1,0,0.2,0.1,0.3,0.1
	c0.3,0.1,0.6,0.4,0.7,0.7c0.2,0.3,0.4,0.6,0.5,0.9c0,0,0,0,0,0.1C85.8,66.9,85.6,67.7,85.2,68.5z M89.8,71.3
	c-0.6,1.4-2.3,2.3-3.3,0.6s-0.6-4.3,0-5.9c0.1-0.5,0.4-1,0.9-1.3c0.3-0.4,0.8-0.4,1.2-0.2c0,0,0,0,0,0c0.5,0.4,0.8,0.9,0.9,1.5
	c0.4,0.8,0.6,1.6,0.6,2.5C90.3,69.5,90.2,70.5,89.8,71.3z M96.5,72.8c-0.5,0.1-0.6,0-0.8-0.3c-0.3-0.4-0.5-0.9-0.7-1.4
	c-0.3-0.6-0.5-1.2-0.8-1.9c-0.3,0.2-0.6,0.4-1,0.5c0,0.7,0.1,1.4,0.1,2.1s0.3,1.6-0.9,1.5c-0.1,0-0.3-0.1-0.3-0.3
	c-0.2-0.7-0.3-1.4-0.2-2.1c-0.1-1.2-0.1-2.3-0.1-3.5c0-0.3,0-0.8,0-1.2c0-0.4,0-0.8,0.2-1.2c0.2-0.4,0.7-0.7,1.2-0.8
	c0.3-0.1,0.5-0.1,0.8,0c1.3,0.1,2.3,1.3,2.1,2.6c-0.1,0.6-0.4,1.2-0.9,1.6l0,0c0.4,1.2,0.9,2.3,1.4,3.4
	C96.7,72.1,96.8,72.7,96.5,72.8z M101.6,72.8c-0.3,0.6-0.9,0.2-0.9-0.3c-0.1-0.8-0.1-1.5-0.1-2.3c-0.4,0.1-0.8,0.1-1.1,0.1
	c-0.2,0-0.5,0.1-0.8,0.1c0.1,0.6,0.1,1.2,0.1,1.8c0,0.4-0.2,1.1-0.7,0.7c-0.3-0.6-0.5-1.2-0.6-1.8c-0.3-1.2-0.3-2.4-0.2-3.6
	c0-0.7,0.3-1.5,0.8-2c0.3-0.2,0.6-0.4,0.9-0.4c0.2,0,0.5,0,0.7,0.1c1.9,0.6,1.8,4,1.8,5.5C101.8,71.4,101.8,72.1,101.6,72.8
	L101.6,72.8z M105.4,65.8c-0.3,0.4-0.8,0.6-1.3,0.6c0.3,1.6,0.6,3.2,0.7,4.8c0,0.2,0.1,0.5,0.1,0.7s0.1,0.8-0.2,1.1
	c-0.2,0.2-0.6,0.2-0.8,0c0,0,0-0.1-0.1-0.1c-0.1-0.2-0.2-0.4-0.2-0.6l-0.6-6c-0.3,0-0.5,0-0.8,0c-0.5,0.1-0.3-0.7-0.2-1
	c0.1-0.5,0.5-0.8,1-0.9c0.4-0.1,0.9-0.2,1.4-0.2c0.2,0,0.3,0,0.5,0.1h0.1c0.1,0.1,0.2,0.2,0.3,0.3C105.6,65,105.6,65.5,105.4,65.8z
	 M107.5,72.7c-0.2,0.1-0.4,0.1-0.7,0c-0.2-0.2-0.3-0.4-0.2-0.7l-0.2-6.1c0-0.3,0-0.6,0.1-0.9c0-0.2,0.6-0.3,0.7-0.3s0.2,0.4,0.3,0.7
	c0,0.1,0,0.2,0,0.3c0.1,0.7,0.1,1.3,0.2,1.9c0.2,1.5,0.3,3,0.4,4.5C108.2,72.6,107.9,72.6,107.5,72.7z M112.5,69.3
	c0,1.1-0.3,2.2-0.9,3.1c-0.3,0.3-0.7,0.5-1.1,0.5c-0.8-0.1-1.3-0.8-1.6-1.6c-0.6-1.6-1-4.4,0.5-5.7c0.6-0.6,1.6-0.5,2.1,0.1
	c0.1,0.1,0.2,0.2,0.2,0.4c0,0,0.1,0,0.1,0.1C112.4,67.1,112.6,68.2,112.5,69.3L112.5,69.3z M113.9,64.8c0.1,0.1,0.1,0.1,0.2,0.2
	c0.1,0.1,0.2,0.2,0.3,0.3c0.5,0.6,0.9,1.3,1.3,2c0.4,0.7,0.9,1.3,1.3,2c0-0.2,0-0.5,0-0.7s-0.1-0.9-0.1-1.4l0,0
	c-0.2-0.8-0.2-1.7-0.1-2.6c0.1-0.5,0.1-0.8,0.8-0.7c0.1,0,0.1,0.1,0.1,0.1c0.7,0.3,0.6,1.4,0.6,2.1c0.1,1.9,0.2,3.8,0.1,5.7
	c0,0.2,0,0.4,0,0.6s0,0.4-0.2,0.4c-0.4,0.1-0.9-0.1-1.1-0.5c-0.5-0.4-0.8-0.9-1.1-1.4c-0.5-0.8-0.8-1.6-1.2-2.4
	c0.1,1.1,0.1,2.3,0,3.4c0,0.3-0.1,0.5-0.2,0.7c-0.1,0.1-0.1,0.2-0.2,0.3c-0.1,0.1-0.2,0.1-0.2,0.1c-0.1,0-0.2,0-0.3-0.1
	c-0.3-0.2-0.4-0.8-0.4-1.3c0-0.2,0-0.5,0-0.7l-0.1-2.3c-0.1-0.7-0.2-1.4-0.2-2.2c0-0.1,0-0.1,0-0.2s0-0.2,0-0.2v-0.1
	c0,0,0-0.1,0-0.2c0,0,0,0,0-0.1c0-0.2,0.1-0.3,0.2-0.4c0.1-0.2,0.2-0.4,0.4-0.5C113.6,64.7,113.7,64.7,113.9,64.8L113.9,64.8z
	 M113.1,59.8c0.4,0,0.4,1.2,0,1.3c-6.9,2.2-15.2,1.4-22.4,1.1c-3.8-0.2-7.7-0.3-11.6-0.5s-7.7,0-11.4-0.7c-0.1,0-0.2-0.4,0-0.4
	c7.3-1.6,15.5-0.6,23-0.3c3.9,0.2,7.8,0.3,11.8,0.2C106,60.5,109.6,59.8,113.1,59.8L113.1,59.8z M106.4,12.6c0-0.1,0-0.2,0-0.3
	c0-0.5,0-0.9,0.3-1.1s0.6-0.4,1.3-0.1c2.9,0.7,4.3,4.2,3.2,7c-0.4,1.1-2.2,3.6-3.5,3.7c-0.9,0-1.2-0.9-1.1-1.7
	C106.4,17.6,106.3,15.1,106.4,12.6L106.4,12.6z M100.8,16.6c0.2-0.6,0.6-1,1.1-1.4c-0.5-0.2-0.8-0.7-0.9-1.2c0,0,0,0,0-0.1
	s0-0.1,0-0.2s0-0.1,0-0.2v-0.2c0-0.1,0-0.2,0-0.4c0.1-0.6,0.2-1.1,0.5-1.6c0.7-0.6,1.6-0.9,2.6-0.7c0.8,0.1,0.7,0.6,0.7,1.4
	c0,0.1,0,0.5-0.2,0.4c-0.2,0-0.5-0.1-0.7-0.1l0,0c-0.2,0-2.2,0.5-2,1c0.3,0.1,0.6,0.1,0.9,0.1c0.6,0,1.3,0.1,1.8,0.3
	c0.5,0.3,0.5,1.8,0.1,2.1c-0.8,0.4-2.9,1.2-2.7,2.2c0.2,1.4,2.8,0.6,3.2-0.4c0.2-0.5,0.6,0,0.6,0.4c0.3,1.2-0.3,2.4-1.5,2.9
	c-1.2,0.5-2.6,0-3.4-1C100.4,18.9,100.3,17.7,100.8,16.6L100.8,16.6z M97.8,11.9c0-0.3,0-0.5,0.1-0.8c0,0,0-0.1,0.1-0.1
	c0.3,0,0.6,0,0.9-0.1c0.1,0,0.1,0.1,0.1,0.1c0.6,2.7,0.3,5.4,0.4,8.2c0,0.7,0.7,2.7-0.5,2.8c0,0-0.1,0-0.1-0.1c-0.1,0-0.3,0-0.4,0
	c-0.1,0-0.2-0.2-0.2-0.2c-0.5-2.4-0.2-5.2-0.2-7.7C97.8,13.4,97.7,12.7,97.8,11.9L97.8,11.9z M92.2,12c0-0.1,0-0.2,0.1-0.2
	c0.9-0.5,2-0.7,3-0.7l0,0c0.3,0,0.4,0,0.5,0h0.1c0.1,0,0.1,0.1,0.1,0.2c0,0.1,0.1,0.1,0.1,0.1c0.2,0.4,0.2,0.8,0,1.2
	c-0.5,0.6-0.9,0.4-1.6,0.5l-1.3,0.1c0,0.7,0,1.3,0.1,2c0.5-0.1,0.9-0.2,1.4-0.4c0.2,0,0.5-0.2,0.7-0.1s0.4,1,0.4,1.4
	c0,0.3,0.1,0.8-0.1,1s-0.6,0.1-0.8,0.2L94,17.5c0.1,1.3,0.2,2.6,0.3,3.9c0,0.1,0,0.4-0.2,0.4c-0.5,0.1-0.9,0.3-1.2,0
	s-0.4-2.2-0.5-2.8c-0.1-1.3-0.1-2.6-0.2-3.9C92.1,14.1,92.1,13.1,92.2,12C92.1,12,92.1,12.1,92.2,12L92.2,12z M89.6,11.6L89.6,11.6
	l0.1,0c0.1,0,0.3,0,0.4,0l0,0h0.2c0.1,0,0.1,0.2,0.1,0.2c0.3,2.5,0.5,4.9,0.7,7.4c0.1,0.5,0.1,1,0.1,1.4c0,0.2,0.1,0.3,0.1,0.5
	c0,0.1,0.1,0.5-0.1,0.5c-0.4,0-0.9,0.4-1.2-0.1s-0.1-1.6-0.1-2.1c0,0,0-0.1,0-0.1c0-0.1,0-0.1,0-0.2l-0.1-0.7
	c-0.2-1.7-0.4-3.4-0.5-5.2C89.3,12.5,89.1,11.8,89.6,11.6L89.6,11.6z M84.4,11.6c0.4-0.5,1.6-0.6,2.1-0.7s1.2-0.4,1.4,0.1
	c0,0.1,0.1,0.2,0.1,0.3c0.2,0.4,0.1,0.9-0.2,1.3c-0.3,0.2-0.7,0.3-1.1,0.4c0.2,1.1,0.3,2.1,0.4,3.1c0.2,1.2,0.3,2.5,0.4,3.7
	c0,0.2,0,0.5,0,0.8c0.1,0.9,0,1.7-1.2,1.7c-0.2,0-0.2-0.2-0.3-0.3c-0.3-1.2-0.4-2.5-0.3-3.7c-0.1-1.7-0.2-3.3-0.2-5l0,0
	c-0.3,0-0.7,0-1,0c-0.1,0-0.2-0.1-0.2-0.3s-0.1,0-0.1-0.1C84.2,12.4,84.1,12,84.4,11.6L84.4,11.6z M79.4,12.4
	c0.2-0.5,0.7-0.9,1.2-0.9c0.3-0.1,0.5-0.1,0.8,0c0.8,0.1,1.4,0.6,1.7,1.3c0.7,1.3,0.5,2.8-0.4,3.9l0,0c0.4,1.4,0.9,2.9,1.4,4.2
	c0.1,0.2,0.2,1-0.1,1.1c-0.8,0.3-0.8-0.5-1-1.3c-0.4-1.2-0.7-2.3-0.8-3.5c-0.4,0.4-1,0.7-1.5,1c0,0.9,0.1,1.7,0.1,2.6s0.3,1.9-1,1.8
	c-0.2,0-0.3-0.2-0.3-0.3c-0.2-0.9-0.3-1.7-0.2-2.6c-0.1-1.4-0.1-2.9-0.1-4.3c0-0.5,0-1,0-1.5C79.1,13.5,79.2,12.9,79.4,12.4
	L79.4,12.4z M83.8,26.5c2.7-1.6,5.8-2.1,8.9-1.4c1.2,0.2,2.4,0.7,3.5,1.2c3.4,1.8,6,4.9,7,8.6C105.8,44,101.6,59,89.8,58
	c-2.6-0.1-5.2-1-7.3-2.6c-2.7-1.9-4.7-4.8-5.7-8c-1.4-5.3-0.7-10.8,2-15.6C80.1,29.8,81.7,27.9,83.8,26.5L83.8,26.5z M75.1,12.3
	c0.7-0.3,1.5-0.2,2.1,0.2c0.2,0.1,0.2,0.5,0.1,0.7c-0.1,0.3-0.2,0.5-0.4,0.7c0,0,0,0.1-0.1,0c-0.5-0.3-1.1-0.3-1.7-0.2
	c-0.5,0.2-0.5,0.7-0.5,1.2c0,0.1,0.1,0.3,0.2,0.4c0.5,0.3,1.8-0.1,2.3-0.3s0.5,1.7,0.2,2c-0.4,0.5-0.9,0.9-1.5,1.2
	c-0.3,0.1-0.5,0.3-0.7,0.5c-0.3,0.3-0.7,1.1-0.1,1.4c1,0.6,2.2-0.9,3.1-0.9c0.3,0,0.3,0.8,0.2,1c-0.3,2.1-3.7,3.3-4.6,1
	c-0.3-1.1-0.3-2.2,0.1-3.2c0.1-0.3,0.3-0.6,0.5-0.8c-0.8-0.3-1.2-1.1-1.1-1.9C73.1,13.9,73.9,12.7,75.1,12.3z M67.8,13.5
	c0-0.1,0.1-0.1,0.1-0.2c0.1-0.2,0.2-0.3,0.3-0.5l0.1-0.1c0.1-0.1,0.2-0.2,0.3-0.3c1.3-1.1,2.4,0.8,2.8,1.9c0.1,0.2,0.2,0.7-0.1,0.9
	l-0.5,0.3l0,0c-0.1,0.1-0.1,0.1-0.2-0.1c-0.4-0.3-0.6-0.7-1.3-0.7c-0.8,0.1-1.3,1-1.4,1.7c0,0.1,0,0.2,0,0.3c0,0,0,0.1,0,0.2
	c0,0.8,0.1,1.6,0.3,2.4c0.2,0.7,0.6,1.2,1.2,1.5c0.8-0.5,1.4-1.3,1.7-2.3c0-0.1,0.1-0.1,0.2-0.1c0.4,0.2,0.7,0.2,0.8,0.7
	c0.1,0.6,0,1.1-0.2,1.6c-0.2,0.8-0.6,1.6-1.3,2.1c-0.4,0.3-0.9,0.5-1.4,0.4c-1.8-0.2-2.4-2.5-2.5-4C66.5,17.4,66.9,15.3,67.8,13.5
	L67.8,13.5z M67.6,64.8c0.8-0.8,2.1-0.7,2.8,0c0.1,0.1,0.2,0.2,0.3,0.3c0.3,0.5-0.9,0.9-1.4,0.6c-1.1,0.3-1.6,2.2-1.8,3
	c-0.2,1-0.4,2.4,0.8,3c0.1,0,0.1,0,0.2,0.1c0.3-0.2,0.7-0.4,0.9-0.7c0.2-0.1,0.2-0.3,0.4-0.4c0.3-0.1,0.6,0,0.7,0.3
	c0.2,0.3,0.2,0.6,0.1,0.8h-0.1c-0.2,0.7-0.8,1.3-1.6,1.4l0,0l-0.3,0.1c-0.5,0.1-1,0-1.4-0.1c-1.9-0.5-2-2-1.8-3.4
	C65.7,68.4,66.1,66,67.6,64.8L67.6,64.8z"/>
<path class="st1" d="M58.5,29v-1.9V29z"/>
<path class="st1" d="M72.1,6c1.4-0.1,2.9-0.2,4.3-0.3C74.9,5.8,73.5,5.9,72.1,6z"/>
<path class="st1" d="M65.3,6.6l4-0.3L65.3,6.6z"/>
<path class="st1" d="M78.7,5.5c2.2-0.1,4.4-0.2,6.6-0.3C83.1,5.3,80.9,5.4,78.7,5.5z"/>
<path class="st1" d="M58.1,60c0,1.6,0,3.2,0.1,4.8c0,0.7,0.1,1.5,0.1,2.2c-2-2.3-3.3-5.1-3.6-8.1c-3.5,3.7-7.9,5.6-13.2,3.4
	c0,1.7,0,3.4,0,5.1c0,0,0.1,0,0.1,0.1c1.3,1.5,2.4,3.2,3.4,4.9c4.2,1.3,12.6,3.1,12-1.2c0-0.2-0.1-1.1,0.3-1.1s0.9,0.1,1.4,0.1
	C58.4,66.8,58.2,63.4,58.1,60z"/>
<path class="st1" d="M74.6,68.2c-0.1-0.9-0.3-1.8-0.6-2.6c-0.6,0.2-0.9,2.1-1,2.6c-0.1,0.7-0.6,2.6,0,3.1
	C74.4,72.5,74.6,68.8,74.6,68.2z"/>
<path class="st1" d="M97.8,70.6c0,0.1,0,0.1,0,0.2S97.8,70.6,97.8,70.6z"/>
<path class="st1" d="M90.5,15L90.5,15C90.5,15,90.5,15.1,90.5,15L90.5,15z"/>
<polygon class="st1" points="98.8,12.1 98.8,12.1 98.8,12.1 "/>
<path class="st1" d="M93.7,17.4L93.7,17.4L93.7,17.4c0,0.1,0,0.2,0,0.3C93.7,17.6,93.7,17.5,93.7,17.4z"/>
<path class="st1" d="M110.1,17.3c1.4-2.2-0.6-4.5-2.5-5.2c0.3,2.3,0.4,4.7,0.5,7C108.8,18.5,110,17.4,110.1,17.3z"/>
<path class="st1" d="M107.4,66.8L107.4,66.8V67v0.2l0,0V66.8z"/>
<path class="st1" d="M98.6,68.4c0,0.2,0,0.4,0,0.5c0.6-0.4,1.2-0.6,1.9-0.7c0-0.3-0.1-0.5-0.2-0.8C99.5,66.3,98.7,67.7,98.6,68.4z"
	/>
<path class="st1" d="M113.5,66.2C113.5,66.2,113.5,66.2,113.5,66.2L113.5,66.2z"/>
<path class="st1" d="M111,67.5c-0.1-0.2-0.4-0.3-0.6-0.1c0,0,0,0,0,0c-0.1,0.2-0.1,0.3-0.2,0.5c-0.3,0.6-0.4,1.2-0.4,1.8
	c0.1,1,1.1,1.4,1.5,0.3c0.3-0.7,0.3-1.5,0-2.2C111.2,67.7,111.1,67.6,111,67.5z"/>
<path class="st1" d="M98.3,20.2L98.3,20.2C98.3,20.1,98.3,20.2,98.3,20.2C98.3,20.2,98.3,20.2,98.3,20.2z"/>
<path class="st1" d="M78.6,79.7L78.6,79.7C78.5,79.5,78.5,79.5,78.6,79.7z"/>
<path class="st1" d="M78.6,39.7L78.6,39.7L78.6,39.7C78.6,39.7,78.6,39.7,78.6,39.7z"/>
<path class="st1" d="M75.7,68.1V68c0,0,0-0.1,0-0.1c0-0.1,0-0.1,0-0.2C75.7,67.8,75.7,68,75.7,68.1C75.7,68.2,75.7,68.1,75.7,68.1z"
	/>
<path class="st1" d="M79.6,79.7L79.6,79.7c0.1,0,0.1,0,0.2,0H80c0-0.4-0.2-0.8-0.4-1.2c-0.1,0.3-0.2,0.6-0.3,0.9
	C79.5,79.5,79.6,79.6,79.6,79.7z"/>
<path class="st1" d="M87.9,44.1c0,1,0,2.1,0.2,3.1c0,0.1,0,0.1,0,0.2c0,0.1,0.1,0.2,0.2,0.3c0.2,0.2,0.4,0.3,0.6,0.3
	c1,0.1,1.9-0.2,2.7-0.8c1.2-0.8,2.4-2.3,2-3.9c-0.1-0.2-0.1-0.3-0.1-0.5c-0.1-0.1-0.1-0.1-0.2-0.2C91.9,41.8,88,42,87.9,44.1z"/>
<path class="st1" d="M79.9,13.6C79.9,13.6,79.9,13.6,79.9,13.6L79.9,13.6C79.9,13.6,79.9,13.6,79.9,13.6z"/>
<path class="st1" d="M87.9,39.8c1.1-0.6,2.1-1.3,3.1-2.1c0.4-0.4,1.1-0.9,1.3-1.5c0.5-1.7-0.7-2.3-1.9-2.5c-0.9-0.1-1.8,0.2-2.5,0.7
	c0.1,0.2,0.1,0.5,0.1,0.7C87.8,36.7,87.8,38.3,87.9,39.8z"/>
<path class="st1" d="M82.5,14.7c0.6-1.2-1.1-1.9-2.1-1.6c0.1,1,0.2,2.1,0.2,3.1C81.4,15.9,82,15.4,82.5,14.7z"/>
<path class="st1" d="M80.9,48.7c0.7,1.4,1.7,2.7,3,3.6c1,0.6,2.1,1.1,3.3,1.3c3.8,0.9,8.2,0.3,10.8-2.5c7.1-7.6,1.9-25.8-10.4-21.6
	C83.8,31,81,34.1,79.9,38c-1,3.4-0.7,7.1,0.8,10.3L80.9,48.7z M85.6,34.9C85.6,34.9,85.6,34.9,85.6,34.9c0-0.9,0.4-1.7,0.9-2.3
	c1.5-1.7,4.9-2.3,6.7-0.8c1.1,1,1.8,2.6,1.7,4.1c0,0.8-0.2,1.5-0.5,2.2c-0.3,0.6-0.9,1.2-1.2,1.8c0.3,0.1,0.6,0.2,0.9,0.2
	c1.6,0.4,2.8,1.8,3,3.5c0.3,2.1-0.6,4.2-2.4,5.5c-1.8,1.2-3.9,1.6-6,1.3c-2.2-0.5-2.3-4-2.6-5.9c-0.1-0.5-0.2-1-0.2-1.5
	c-0.1-0.2-0.1-0.4-0.1-0.6C85.3,39.9,85.3,37.4,85.6,34.9z"/>
<path class="st1" d="M79.3,66.3c-0.2,0-0.5,0.1-0.7,0.2c0.1,0.5,0.1,1.1,0.2,1.6c0.5-0.2,1.1-0.4,1.2-0.9
	C80.3,66.6,79.8,66.3,79.3,66.3z"/>
<path class="st1" d="M89.1,69.2c0,0,0-0.1,0-0.1l0,0C89.2,69.1,89.2,69.1,89.1,69.2z"/>
<path class="st1" d="M88.5,67c-0.2-0.2-0.4-0.3-0.6-0.3c-0.2,0-0.4,0.1-0.5,0.2c-0.1,0.1-0.1,0.3-0.2,0.4c-0.2,0.5-0.3,1.1-0.3,1.7
	c0,0,0,0.1,0,0.1c0.1,0.4,0.3,1.4,1,1.3c0.9-0.1,0.9-1.8,0.8-2.2C88.7,67.8,88.6,67.4,88.5,67z"/>
<path class="st1" d="M75,64.7c0.1,0.1,0.2,0.1,0.3,0.2C75.3,64.8,75.2,64.7,75,64.7L75,64.7z"/>
<path class="st1" d="M74.9,64.7L74.9,64.7z"/>
<path class="st1" d="M74.9,64.8C74.9,64.8,74.9,64.8,74.9,64.8C74.9,64.7,74.9,64.7,74.9,64.8C74.9,64.7,74.9,64.8,74.9,64.8z"/>
<path class="st1" d="M92.9,65.6c0.1,0.8,0.2,1.7,0.2,2.5c0.7-0.2,1.3-0.7,1.8-1.2C95.6,65.9,93.9,65.4,92.9,65.6z"/>
<path class="st1" d="M75.5,65.9L75.5,65.9C75.5,65.9,75.5,65.9,75.5,65.9L75.5,65.9c-0.1-0.2-0.2-0.4-0.3-0.5
	C75.3,65.5,75.4,65.7,75.5,65.9L75.5,65.9z"/>
<path class="st1" d="M92.4,66L92.4,66C92.4,66,92.4,66,92.4,66C92.4,66,92.4,66,92.4,66z"/>
<path class="st1" d="M75.4,65.8L75.4,65.8L75.4,65.8z"/>
<path class="st1" d="M83.8,66.1c-0.2,0-0.5,0.1-0.6,0.2c0.1,0.4,0.1,0.8,0.1,1.2c0.2-0.1,0.5-0.3,0.7-0.4c0.1,0,0.3-0.3,0.4-0.4
	c0,0,0-0.1,0-0.1C84.3,66.3,84.1,66.1,83.8,66.1z"/>
<path d="M76.8,47.5c0.9,3.2,2.9,6.1,5.7,8c2.1,1.6,4.6,2.5,7.3,2.6c11.8,1,16-14,13.3-23.2c-1-3.7-3.6-6.8-7-8.6
	c-1.1-0.6-2.3-1-3.5-1.2c-3-0.7-6.2-0.2-8.8,1.4c-2,1.4-3.7,3.3-4.9,5.4C76.2,36.7,75.5,42.3,76.8,47.5z M79.9,38
	c1.1-3.9,3.9-7,7.7-8.4c12.3-4.2,17.5,14,10.4,21.6c-2.6,2.8-7.1,3.3-10.8,2.5c-1.2-0.2-2.3-0.7-3.3-1.3c-1.3-0.9-2.3-2.2-3-3.6
	l-0.2-0.3C79.2,45.1,78.9,41.4,79.9,38z M78.6,39.7c0,0,0,0.1,0,0.1l0,0V39.7z"/>
<path d="M85.7,43c0.1,0.5,0.1,1,0.2,1.5c0.3,1.9,0.4,5.4,2.6,5.9c2.1,0.4,4.2-0.1,6-1.3c1.8-1.2,2.7-3.3,2.4-5.5
	c-0.2-1.7-1.4-3.1-3-3.5c-0.3,0-0.6-0.1-0.9-0.2c0.2-0.6,0.9-1.1,1.2-1.8c0.3-0.7,0.5-1.4,0.5-2.2c0.1-1.5-0.5-3-1.6-4.1
	c-1.8-1.6-5.1-0.9-6.7,0.8c-0.5,0.6-0.9,1.4-0.9,2.2c0,0,0,0,0,0.1c-0.3,2.5-0.3,5,0,7.5C85.6,42.6,85.6,42.8,85.7,43z M93.3,42.8
	c0.1,0,0.1,0.1,0.2,0.2c0,0.2,0.1,0.3,0.1,0.5c0.4,1.6-0.7,3.1-2,3.9c-0.8,0.6-1.7,0.9-2.7,0.8c-0.2,0-0.4-0.1-0.6-0.3
	c-0.1-0.1-0.1-0.2-0.2-0.3c0-0.1,0-0.1,0-0.2c-0.1-1-0.2-2.1-0.2-3.1C88,42,91.9,41.8,93.3,42.8z M90.3,33.8
	c1.2,0.1,2.4,0.8,1.9,2.5c-0.2,0.6-0.9,1.1-1.3,1.5c-1,0.8-2,1.5-3.1,2.1c0-1.5,0-3,0.1-4.6c0-0.2,0-0.5-0.1-0.7
	C88.5,33.9,89.4,33.6,90.3,33.8L90.3,33.8z"/>
<path d="M90.7,60.4c-7.4-0.3-15.7-1.3-23,0.3c-0.1,0-0.1,0.4,0,0.4c3.8,0.7,7.6,0.5,11.4,0.7s7.7,0.3,11.6,0.5
	c7.2,0.3,15.5,1.1,22.4-1.1c0.4-0.1,0.4-1.3,0-1.3c-3.5,0-7.1,0.7-10.6,0.8C98.6,60.7,94.6,60.6,90.7,60.4z"/>
<path d="M74.3,17.2c-0.2,0.2-0.4,0.5-0.5,0.8c-0.4,1-0.5,2.2-0.1,3.2c0.8,2.3,4.2,1.1,4.6-1c0-0.2,0.1-1-0.2-1
	c-0.9,0-2.1,1.5-3.1,0.9c-0.6-0.4-0.2-1.1,0.1-1.4c0.2-0.2,0.5-0.4,0.7-0.5c0.6-0.3,1.1-0.7,1.5-1.1c0.2-0.3,0.3-2.1-0.2-2
	s-1.9,0.6-2.3,0.3c-0.1-0.1-0.2-0.2-0.2-0.4c0-0.5,0.1-1,0.5-1.2c0.6-0.1,1.1-0.1,1.7,0.2c0.1,0,0.1,0,0.1,0
	c0.2-0.2,0.3-0.5,0.4-0.7c0.1-0.1,0.1-0.6-0.1-0.7c-0.6-0.4-1.4-0.5-2.1-0.2c-1.3,0.4-2.1,1.7-1.9,3C73.2,16.1,73.6,16.9,74.3,17.2z
	"/>
<path d="M92.3,15.2c0.1,1.3,0.1,2.6,0.2,3.9c0.1,0.6,0,2.3,0.5,2.8s0.8,0.1,1.2,0c0.2,0,0.2-0.3,0.2-0.4c-0.1-1.3-0.2-2.6-0.3-3.9
	l1.1-0.3c0.2,0,0.6,0,0.8-0.2s0.1-0.7,0.1-1c0-0.3-0.1-1.2-0.4-1.4s-0.5,0-0.7,0.1c-0.5,0.1-0.9,0.2-1.4,0.4c-0.1-0.7-0.1-1.3-0.1-2
	l1.3-0.1c0.7-0.1,1.1,0.1,1.6-0.5c0.2-0.4,0.2-0.8,0-1.2c-0.1,0-0.1-0.1-0.1-0.1c0-0.1,0-0.1-0.1-0.2h-0.1c-0.1-0.1-0.2-0.1-0.5,0
	l0,0c-1,0-2.1,0.3-3,0.7c-0.1,0-0.1,0.2-0.1,0.2s0,0.1,0,0.1C92.2,13.2,92.2,14.2,92.3,15.2z M93.7,17.4L93.7,17.4
	c0,0.1,0,0.2,0,0.3C93.7,17.5,93.7,17.4,93.7,17.4L93.7,17.4z"/>
<path d="M104.3,21c1.1-0.5,1.7-1.7,1.4-2.9c0-0.4-0.4-0.9-0.6-0.4c-0.5,1-3,1.7-3.2,0.4c-0.2-1,2-1.8,2.7-2.2
	c0.5-0.3,0.4-1.8-0.1-2.1c-0.6-0.2-1.2-0.4-1.8-0.3c-0.3,0-0.6-0.1-0.9-0.1c-0.2-0.4,1.8-0.9,2-1l0,0c0.2,0,0.5,0,0.7,0.1
	c0.2,0,0.2-0.4,0.2-0.4c0-0.7,0.1-1.2-0.7-1.4c-0.9-0.2-1.9,0.1-2.6,0.7c-0.3,0.5-0.5,1-0.5,1.6c0,0.1,0,0.2,0,0.4v0.2
	c0,0.1,0,0.1,0,0.2s0,0.1,0,0.2s0,0,0,0.1c0,0.5,0.4,1,0.9,1.2c-0.5,0.4-0.9,0.8-1.1,1.4c-0.4,1.1-0.4,2.3,0.2,3.3
	C101.7,21,103.1,21.4,104.3,21z"/>
<path d="M107.7,21.7c1.3-0.1,3-2.6,3.5-3.7c1.1-2.7-0.4-6.2-3.2-7c-0.7-0.3-1.1-0.3-1.3,0.1s-0.3,0.7-0.3,1.1c0,0.1,0,0.2,0,0.3
	c-0.1,2.4,0,4.9,0.2,7.3C106.5,20.8,106.7,21.8,107.7,21.7z M110.1,17.3c0,0.1-1.2,1.2-2,1.8c-0.1-2.3-0.2-4.7-0.5-7
	C109.5,12.8,111.5,15,110.1,17.3L110.1,17.3z"/>
<path d="M79.3,19.7c0,0.9,0,1.7,0.2,2.6c0,0.1,0.1,0.3,0.3,0.3c1.3,0.1,1-1,1-1.8s-0.1-1.7-0.1-2.6c0.5-0.3,1.1-0.6,1.5-1
	c0.2,1.2,0.5,2.4,0.8,3.5c0.2,0.7,0.2,1.5,1,1.3c0.4-0.1,0.2-0.9,0.1-1.1c-0.6-1.4-1.1-2.8-1.5-4.2l0,0c1-1.1,1.2-2.7,0.4-3.9
	c-0.4-0.7-1-1.2-1.8-1.3c-0.3-0.1-0.5-0.1-0.8,0c-0.5,0.1-1,0.4-1.2,0.9c-0.1,0.5-0.2,1-0.2,1.5c0,0.5,0,1,0,1.5
	C79.1,16.8,79.1,18.3,79.3,19.7z M82.5,14.7c-0.5,0.7-1.2,1.2-1.9,1.5c0-1-0.1-2.1-0.2-3.1C81.4,12.8,83.1,13.5,82.5,14.7z
	 M79.9,13.6C79.9,13.6,79.9,13.6,79.9,13.6L79.9,13.6C79.9,13.7,79.9,13.6,79.9,13.6z"/>
<path d="M84.3,12.9c0,0.1,0.1,0.2,0.2,0.3c0.3,0,0.7,0,1,0l0,0c0.1,1.7,0.1,3.3,0.2,5c0,1.3,0.1,2.5,0.4,3.8c0,0.1,0.1,0.3,0.3,0.3
	c1.2,0,1.3-0.8,1.2-1.7c0-0.2,0-0.5,0-0.8c-0.1-1.2-0.2-2.4-0.4-3.7c-0.1-1-0.3-2.1-0.4-3.1c0.4-0.1,0.7-0.2,1.1-0.4
	c0.3-0.4,0.3-0.8,0.2-1.3c0-0.1,0-0.2-0.1-0.3c-0.3-0.5-1-0.2-1.4-0.1s-1.8,0.2-2.1,0.7s-0.1,0.8-0.1,1.1
	C84.3,12.9,84.3,12.9,84.3,12.9z"/>
<path d="M89.8,18.4l0.1,0.7c0,0.1,0,0.1,0,0.2c0,0,0,0.1,0,0.1c0,0.6-0.2,1.6,0.1,2.1s0.8,0.2,1.2,0.1c0.2,0,0.1-0.4,0.1-0.5
	c-0.1-0.2-0.1-0.3-0.1-0.5c0-0.5-0.1-1-0.1-1.4c-0.2-2.5-0.3-4.9-0.7-7.4c0-0.1,0-0.2-0.1-0.2h-0.2l0,0c-0.1,0-0.3,0-0.4,0h-0.1
	c0,0,0,0,0,0c-0.4,0.2-0.2,0.9-0.2,1.6C89.4,15,89.6,16.7,89.8,18.4z M90.5,15v0.1C90.5,15.1,90.5,15.1,90.5,15
	C90.5,15,90.4,15,90.5,15z"/>
<path d="M69.3,23.3c0.5,0.1,1-0.1,1.4-0.4c0.7-0.5,1.2-1.3,1.3-2.1c0.2-0.5,0.2-1.1,0.2-1.6c-0.1-0.5-0.4-0.5-0.8-0.7
	c-0.1,0-0.1,0-0.2,0.1c-0.3,1-0.9,1.8-1.8,2.3c-0.6-0.3-1.1-0.8-1.2-1.5c-0.2-0.8-0.3-1.6-0.3-2.4c0,0,0-0.1,0-0.2
	c0-0.1,0-0.2,0-0.3c0.2-0.7,0.7-1.6,1.4-1.7c0.6-0.1,0.8,0.4,1.3,0.7c0.1,0.2,0.2,0.2,0.2,0.1l0,0l0.5-0.3c0.2-0.2,0.2-0.7,0.1-0.9
	c-0.5-1.1-1.5-3-2.8-1.9c-0.1,0.1-0.2,0.2-0.3,0.3l-0.1,0.1c-0.1,0.2-0.2,0.3-0.3,0.5c0,0.1-0.1,0.1-0.1,0.2c-0.8,1.8-1.2,3.9-1,5.9
	C66.8,20.8,67.5,23.2,69.3,23.3z"/>
<path d="M98.1,21.8c0,0.1,0.1,0.2,0.2,0.2c0.1,0,0.3,0,0.4,0c0,0,0.1,0.1,0.1,0.1c1.2-0.1,0.5-2.1,0.5-2.8c-0.1-2.7,0.2-5.5-0.4-8.2
	c0,0-0.1-0.1-0.1-0.1c-0.3,0-0.6,0.1-0.9,0.1c0,0-0.1,0-0.1,0.1c-0.1,0.2-0.1,0.5-0.1,0.8c-0.1,0.7,0,1.5,0.1,2.2
	C97.9,16.6,97.6,19.4,98.1,21.8z M98.3,20.2C98.3,20.2,98.3,20.2,98.3,20.2C98.3,20.2,98.3,20.2,98.3,20.2L98.3,20.2z"/>
<path d="M89.5,66.1c-0.1-0.6-0.5-1.1-0.9-1.5c-0.4-0.3-0.9-0.3-1.2,0.1c0,0,0,0,0,0c-0.4,0.3-0.7,0.8-0.9,1.3c-0.6,1.7-1,4.3,0,5.9
	s2.7,0.8,3.3-0.6c0.4-0.8,0.6-1.8,0.3-2.7C90.2,67.7,89.9,66.9,89.5,66.1z M87.9,70.4c-0.6,0-0.9-0.9-1-1.3c0,0,0-0.1,0-0.1
	c0-0.6,0.1-1.1,0.3-1.7c0-0.2,0.1-0.3,0.2-0.4c0.1-0.1,0.3-0.2,0.5-0.2c0.2,0,0.5,0.1,0.6,0.3c0.1,0.4,0.2,0.8,0.2,1.2
	C88.7,68.6,88.8,70.3,87.9,70.4z M89.1,69.2c0,0,0-0.1,0-0.2l0,0C89.1,69,89.1,69.1,89.1,69.2z"/>
<path d="M111.8,66c-0.4-0.7-1.3-1.1-2-0.7c-0.1,0.1-0.2,0.1-0.4,0.2c-1.4,1.3-1.1,4.1-0.5,5.7c0.3,0.7,0.8,1.5,1.6,1.6
	c0.4,0,0.8-0.2,1.1-0.5c0.6-0.9,0.9-2,0.9-3.1C112.6,68.1,112.4,67,111.8,66C111.9,66.1,111.8,66,111.8,66z M111.2,70
	c-0.4,1.1-1.4,0.6-1.5-0.3c0-0.6,0.1-1.3,0.4-1.8c0.1-0.1,0.1-0.3,0.2-0.5c0.2-0.2,0.5-0.1,0.7,0.1c0,0,0,0,0,0
	c0.1,0.1,0.2,0.2,0.2,0.3C111.5,68.5,111.5,69.3,111.2,70L111.2,70z"/>
<path d="M65.4,70c-0.2,1.4-0.1,3,1.8,3.4c0.5,0.1,1,0.1,1.4,0.1l0.3-0.1c-0.3,0-0.6,0-0.9,0c-0.3,0-0.6-0.1-0.9-0.3
	c-0.3-0.2-0.1-0.5,0.2-0.7c-0.3-0.3-0.5-0.6-0.6-1c0-0.1,0-0.1,0-0.2c0-0.1,0-0.1,0-0.2c0,0,0-0.1,0-0.1v-0.1c0-0.1,0-0.1,0-0.2
	c0-0.1,0-0.3,0.1-0.4c-0.1-0.8,0-1.5,0.1-2.3c0.2-1.1,0.8-2,1.7-2.7c0.2-0.2,0.5-0.3,0.8-0.2c0.2,0,0.4,0.1,0.6,0.2
	c0,0,0,0.1,0.1,0.1s0,0,0,0s0.1,0.5,0,0.4c-0.3-0.1-0.5-0.1-0.8,0c0.5,0.3,1.7,0,1.4-0.6C70.2,64.3,69,64,68,64.6
	c-0.1,0.1-0.2,0.2-0.3,0.3C66.1,66,65.7,68.4,65.4,70z"/>
<path d="M70.1,65.8c0.2,0.1,0.1-0.4,0-0.4s0,0,0,0s0-0.1-0.1-0.1c-0.2-0.1-0.4-0.2-0.6-0.2c-0.3,0-0.5,0.1-0.8,0.2
	c-0.9,0.7-1.4,1.6-1.7,2.7c-0.1,0.7-0.2,1.5-0.1,2.3c-0.1,0.1-0.1,0.2-0.1,0.4c0,0.1,0,0.2,0,0.2v0.1c0,0,0,0.1,0,0.1
	c0,0.1,0,0.1,0,0.2c0,0.1,0,0.1,0,0.2c0.1,0.4,0.3,0.7,0.6,1c-0.4,0.2-0.6,0.5-0.2,0.7c0.3,0.2,0.6,0.3,0.9,0.3c0.3,0,0.6,0,0.9,0
	l0,0c0.8,0,1.5-0.6,1.7-1.4h0.1c0.1-0.3,0.1-0.6-0.1-0.8c-0.1-0.3-0.4-0.4-0.7-0.3c-0.3,0.1-0.3,0.2-0.4,0.4
	c-0.3,0.3-0.6,0.5-0.9,0.7c-0.1,0-0.1,0-0.2-0.1c-1.2-0.6-1-2.1-0.8-3c0.2-0.8,0.7-2.8,1.8-3C69.5,65.7,69.8,65.7,70.1,65.8z"/>
<path d="M71.7,71.2c-0.1-0.1,0-0.9,0.2-0.6c0.8,1.2,2.3,1.8,3.3,0.7c0.3-0.4,0.5-0.8,0.6-1.2c0-0.1,0-0.3,0-0.4
	c-0.1,0.1-0.2-0.4-0.2-0.6l0.1-0.9c0-0.2,0-0.3,0-0.5c-0.1-0.3-0.1-0.7-0.2-1v-0.1c0-0.1,0-0.3-0.1-0.4c0-0.1,0-0.2,0-0.3l0,0l0,0
	c0,0,0,0,0.1,0.1l0,0c-0.1-0.2-0.2-0.4-0.3-0.6c-0.1-0.1-0.2-0.2-0.3-0.3c0,0,0-0.1,0-0.2s0,0,0,0l0,0l0,0l0,0l0,0l0,0l0,0
	c0.1,0.1,0.2,0.1,0.3,0.2l0.1,0.1c0.1,0.1,0.2,0.2,0.3,0.4c-0.4-0.5-0.8-1.2-1.6-1.1s-1.3,0.8-1.7,1.4c-0.7,1.2-1.1,2.6-1.2,4
	c-0.1,0.8,0.1,1.6,0.5,2.3c0.3,0.4,0.7,0.6,1.1,0.6C72.3,72.4,71.9,71.9,71.7,71.2z M73,68.1c0.1-0.5,0.5-2.4,1-2.6
	c0.3,0.9,0.5,1.7,0.6,2.6c0,0.6-0.2,4.3-1.6,3C72.4,70.7,72.9,68.8,73,68.1z"/>
<path d="M75.5,65l-0.1-0.1c-0.1-0.1-0.2-0.2-0.3-0.2l0,0l0,0l0,0l0,0c0,0,0,0,0,0.1s0,0.2,0,0.2c0.1,0.1,0.2,0.2,0.3,0.3
	c0.1,0.2,0.2,0.3,0.3,0.5v0.1c0,0,0-0.1,0-0.1l0,0c0-0.1,0-0.1-0.1-0.1s0,0,0,0c0,0.1,0,0.2,0,0.3c0,0.2,0.1,0.3,0.1,0.4v0.1
	c0.1,0.3,0.1,0.7,0.2,1c0,0.1,0,0.1,0,0.2c0,0,0,0.1,0,0.1V68c0,0,0,0.1,0,0.1L75.7,69c0,0.2,0,0.6,0.2,0.6c0,0.1,0,0.3,0,0.4
	c-0.1,0.4-0.3,0.8-0.6,1.2c-1,1.2-2.5,0.5-3.3-0.7c-0.2-0.3-0.2,0.5-0.2,0.6c0.3,0.6,0.7,1.1,1.3,1.4c1.1,0.5,2.4,0,2.9-1.7
	c0.4-1.4,0.8-4.1-0.1-5.5C75.8,65.2,75.6,65.1,75.5,65z"/>
<path d="M81.3,66.8c0-1.3-0.8-2.9-2.3-2.5c-1.4,0.3-1.5,1.7-1.6,2.9c-0.1,1.7-0.1,3.4-0.1,5.1c0,0.3,0,0.5,0.1,0.8
	c0.3,0.9,1.8,0.8,1.7-0.3C79,72.1,79,71.4,79,70.7c0-0.1,0-0.1,0-0.2c0,0,0.1-0.1,0.2-0.1l0.5-0.3c0.3,1.2,0.8,2.4,1.4,3.5
	c0,0,0.1,0,0.1,0c0.3,0,0.6-0.2,0.8-0.4c0.1,0.1,0.3-0.3,0.2-0.4c-0.4-1.3-0.9-2.5-1.5-3.7C81.1,68.4,81.3,67.6,81.3,66.8z
	 M80.1,67.2c-0.2,0.4-0.8,0.7-1.2,0.9c-0.1-0.5-0.1-1.1-0.2-1.6c0.2-0.1,0.4-0.2,0.7-0.2C79.8,66.3,80.3,66.6,80.1,67.2z"/>
<path d="M105,64.4L105,64.4c-0.2-0.1-0.4-0.1-0.6-0.1c-0.5,0-0.9,0.1-1.4,0.2c-0.5,0.1-0.9,0.4-1,0.9c-0.1,0.3-0.3,1.1,0.2,1
	c0.3,0,0.5,0,0.8,0l0.6,6c0,0.2,0.1,0.4,0.2,0.6c0.2,0.3,0.6,0.3,0.8,0.1c0,0,0.1,0,0.1-0.1c0.3-0.3,0.2-0.8,0.2-1.1
	s-0.1-0.5-0.1-0.7c-0.2-1.6-0.4-3.2-0.7-4.8c0.5,0,1-0.2,1.3-0.6c0.2-0.3,0.2-0.8,0-1.1C105.3,64.6,105.2,64.5,105,64.4z"/>
<path d="M99.8,65.2c-0.2-0.1-0.5-0.1-0.7-0.1c-0.3,0-0.7,0.2-0.9,0.4c-0.5,0.5-0.8,1.3-0.8,2c-0.1,1.2-0.1,2.4,0.2,3.6
	c0.1,0.6,0.3,1.3,0.6,1.8c0.4,0.4,0.7-0.3,0.7-0.7c0-0.6,0-1.2-0.1-1.8c0.3,0,0.5,0,0.8-0.1c0.3,0,0.7,0,1.1-0.1
	c0,0.8,0.1,1.5,0.1,2.3c0.1,0.5,0.7,0.9,0.9,0.3c0.1-0.7,0.1-1.4,0-2.2C101.6,69.1,101.7,65.8,99.8,65.2z M97.8,70.6L97.8,70.6
	c0,0.1,0,0.1,0,0.2S97.8,70.6,97.8,70.6z M98.6,69c0-0.2,0-0.4,0-0.5c0.1-0.7,0.9-2.2,1.6-0.9c0.1,0.2,0.2,0.5,0.2,0.8
	C99.8,68.4,99.1,68.6,98.6,69z"/>
<path d="M107.6,65.6c0-0.1,0-0.2,0-0.3c0-0.3,0-0.6-0.3-0.7s-0.7,0-0.7,0.3c-0.1,0.3-0.2,0.6-0.1,0.9l0.2,6.1c0,0.3,0.1,0.5,0.2,0.7
	c0.2,0.1,0.4,0.1,0.7,0c0.4-0.1,0.7-0.1,0.6-0.6c-0.1-1.5-0.2-3-0.4-4.5C107.7,67,107.6,66.3,107.6,65.6z M107.6,67.2V67v-0.2l0,0
	V67.2z"/>
<path d="M95.1,68.5L95.1,68.5c1-0.8,1.1-2.3,0.3-3.3c-0.4-0.5-1-0.8-1.6-0.8c-0.3-0.1-0.5-0.1-0.8,0c-0.5,0.1-0.9,0.3-1.2,0.8
	c-0.1,0.4-0.2,0.8-0.2,1.2c0,0.4,0,0.8,0,1.2c0,1.2,0.1,2.3,0.1,3.5c0,0.7,0,1.4,0.2,2.1c0,0.1,0.2,0.2,0.3,0.3
	c1.2,0.1,1-0.8,0.9-1.5s-0.1-1.4-0.1-2.1c0.4-0.1,0.7-0.3,1-0.5c0.2,0.7,0.5,1.3,0.8,1.9c0.2,0.5,0.4,1,0.7,1.4
	c0.1,0.3,0.3,0.4,0.8,0.3s0.2-0.7,0.1-0.9C96,70.8,95.5,69.7,95.1,68.5z M92.4,66L92.4,66C92.4,66,92.4,66,92.4,66L92.4,66z
	 M95,66.9c-0.5,0.5-1.1,1-1.8,1.2c0-0.8-0.1-1.7-0.2-2.5C93.9,65.4,95.6,65.9,95,66.9L95,66.9z"/>
<path d="M113.1,65.2c-0.1,0.1-0.1,0.3-0.2,0.4c0,0,0,0,0,0.1c0,0,0,0.1,0,0.2v0.1c0,0.1,0,0.2,0,0.2s0,0.1,0,0.2
	c0,0.7,0.1,1.5,0.2,2.2l0.1,2.3c0,0.2,0,0.5,0,0.7c0,0.5,0,1.2,0.4,1.3c0.1,0,0.2,0.1,0.3,0.1c0.1,0,0.2,0,0.2-0.1
	c0.1-0.1,0.2-0.2,0.2-0.3c0.1-0.2,0.2-0.5,0.2-0.7c0.1-1.1,0.1-2.3,0-3.4c0.4,0.8,0.8,1.6,1.2,2.4c0.2,0.6,0.6,1,1.1,1.4
	c0.2,0.4,0.7,0.6,1.1,0.5c0.2,0,0.2-0.3,0.2-0.4s0-0.4,0-0.6c0.1-1.9,0.1-3.8-0.1-5.7c-0.1-0.8,0.1-1.8-0.6-2.1c0,0,0-0.1-0.1-0.1
	c-0.7-0.1-0.6,0.2-0.8,0.7c-0.1,0.9,0,1.7,0.1,2.6l0,0c0,0.6,0,1.1,0.1,1.4s0,0.5,0,0.7c-0.4-0.7-0.8-1.3-1.3-2
	c-0.3-0.7-0.8-1.4-1.3-2c-0.1-0.1-0.2-0.2-0.3-0.3c0-0.1-0.1-0.1-0.2-0.2c-0.1-0.1-0.2-0.1-0.3,0C113.4,64.8,113.2,65,113.1,65.2z
	 M113.5,66.2L113.5,66.2C113.5,66.2,113.5,66.2,113.5,66.2L113.5,66.2z"/>
<path d="M85.5,66c-0.1-0.3-0.3-0.6-0.5-0.9c-0.2-0.3-0.4-0.5-0.7-0.7c-0.1-0.1-0.2-0.1-0.3-0.1c-0.5-0.3-1-0.2-1.5,0.6
	S82,67,82.1,68c0.1,1.3,0.3,2.6,0.5,3.9c0,0.3,0,0.5,0.1,0.8l0,0c0,0.3,0,0.7,0.1,1c0,0.2,0.1,0.2,0.2,0.1s0.1,0.2,0.2,0.1
	c0.6-0.2,0.7-0.2,0.8-0.8c0.1-1.1,0-2.1-0.3-3.2c0.6-0.3,1.2-0.9,1.5-1.5C85.6,67.7,85.7,66.8,85.5,66C85.5,66,85.5,66,85.5,66z
	 M84,67.1c-0.2,0.2-0.4,0.3-0.7,0.4c0-0.4-0.1-0.8-0.1-1.2c0.2-0.1,0.4-0.2,0.6-0.2c0.2,0,0.5,0.2,0.6,0.4c0,0,0,0.1,0,0.1
	C84.3,66.8,84.1,67,84,67.1L84,67.1z"/>
<path class="st1" d="M70.1,83.5c-0.5-0.3-1,0-1.2,0.5c-0.2,0.6-0.2,1.2,0.2,1.8h0.1v-0.1c0.6-0.3,1.1-0.7,1.7-1c0,0,0,0,0-0.1l0,0
	C70.7,84.2,70.4,83.8,70.1,83.5z"/>
<path class="st1" d="M68.8,110.1c0.1-0.3,0.3-0.7,0.5-1.1c0-0.1,0-0.3,0.1-0.4c-0.2,0.2-0.3,0.3-0.5,0.5S68.8,109.8,68.8,110.1z"/>
<path class="st1" d="M77.7,91.9c1.2,0.8,2.7,1.4,3.9,0.6c0.1-0.1,0.3-0.2,0.4-0.3c-0.1,0.1-0.2,0.2-0.4,0.3
	C80.4,93.2,78.8,92.6,77.7,91.9c-2.8-1.9-5.1-4.6-6.4-7.7c-0.2-0.5-0.4-0.9-0.8-1.3c-0.2-0.2-0.4-0.4-0.7-0.4c-0.2,0-0.3,0-0.5,0.1
	c0.2-0.1,0.3-0.1,0.5-0.1c0.8,0.1,1.2,1,1.5,1.7C72.6,87.3,74.8,90,77.7,91.9z"/>
<path class="st1" d="M85.2,87.1c0.8-0.6,1.2-1.6,1.1-2.6c-0.2-0.1-0.3-0.3-0.4-0.5c-0.4-0.2-0.7-0.6-0.7-1l0,0
	c-0.6,0.2-1.2,0-1.5-0.6c-0.4,0.3-1,0.4-1.4,0.1v0.2c0,0.1,0.1,0.2,0.1,0.3c0,0.9-0.7,1.6-1.6,1.6c-0.2,0-0.3,0-0.5-0.1
	c0.1,0.1,0.1,0.2,0.2,0.3c0.1,0.3,0.1,0.6,0,0.9c0.2,0.3,0.4,0.5,0.6,0.7C82.1,87.2,84,88,85.2,87.1z"/>
<path class="st1" d="M66.9,123.8c-0.7,0-1.5,0.2-2.1,0.6c-0.5,0.4-1,0.8-0.2,1.5c0.2,0.2,0.5,0.2,0.8,0.3c1.4,0.4,2.9-0.2,3.5-1.6
	C68.1,124.5,67.5,124.2,66.9,123.8C66.9,123.7,66.9,123.8,66.9,123.8z"/>
<path class="st1" d="M67.4,111c0.1-0.5,0.2-1,0.4-1.4c0,0,0-0.1,0-0.1l0.1-0.2c0-0.2,0.1-0.5,0.2-0.7c-0.4,0.9-0.7,1.9-0.8,2.9
	C67.3,111.2,67.4,111.1,67.4,111z"/>
<path class="st1" d="M86,91.8L86,91.8c0.2-0.1,0.4-0.2,0.5-0.3c-0.1-0.2-0.2-0.5-0.2-0.6c-0.3-0.7-0.6-1.4-0.8-2.1
	c0-0.1,0-0.2-0.1-0.2c-0.7,0.4-1.4,0.5-2.2,0.3c0.2,1.1,0.2,2.2,0,3.3C84.2,92.1,85.1,92,86,91.8z"/>
<path class="st1" d="M89.9,98.7c-0.1,0.7,0,1.3,0.3,1.9l0.2,0.3c1,0.5,2,1.3,2.7,2.2c0.7,0.7,1.3,1.6,1.7,2.4c0.5,1,0.9,2,1.2,3.1
	c1.5,5.1-1,10-1.3,15.2h0.4c0.4-0.1,0.7-0.1,1.1,0c0.4,0.1,0.8,0.3,1.1,0.6c0.1,0.1,0.1,0.2,0.1,0.3c0.4,0.6,0.4,1.5-0.2,2
	c0.5-0.5,0.6-1.4,0.2-2c0-0.1-0.1-0.2-0.1-0.3c-0.3-0.3-0.7-0.5-1.1-0.6c-0.4-0.1-0.7-0.1-1.1,0h-0.4c0.2-5.1,2.8-10.1,1.3-15.2
	c-0.3-1.1-0.7-2.1-1.2-3.1c-0.4-0.9-1-1.7-1.7-2.4c-0.7-0.9-1.6-1.7-2.7-2.2l-0.2-0.3C89.9,100.1,89.8,99.4,89.9,98.7
	c0.1-0.4,0.4-0.8,0.8-1l0,0C90.2,97.9,89.9,98.3,89.9,98.7z"/>
<path class="st1" d="M66.7,123c-0.8,0-1.7,0.3-2.4,0.7C65.1,123.2,65.9,123,66.7,123z"/>
<path class="st1" d="M78.3,102.1L78.3,102.1c-1.1,0.8-2.5,0.8-3.8,0.9c-1.5,0.2-3,0.8-4.2,1.7c1.3-0.9,2.7-1.4,4.2-1.7
	C75.8,102.8,77.2,102.9,78.3,102.1z"/>
<path class="st1" d="M72.1,114.7c-1.3,2.6-2.1,5.4-2.4,8.3c0,1.1-0.4,2.2-0.9,3.2c-0.2,0.2-0.4,0.4-0.6,0.6c0.2-0.2,0.4-0.4,0.6-0.6
	c0.6-1,0.9-2.1,0.9-3.2C70.1,120.1,70.9,117.3,72.1,114.7c0.9-1.8,2.3-3.4,3.9-4.7C74.4,111.3,73.1,112.9,72.1,114.7z"/>
<path class="st1" d="M79.3,98.4c-0.4,0.1-0.8,0.2-1.2,0.2C78.5,98.5,78.9,98.5,79.3,98.4z"/>
<path class="st1" d="M93.1,96.5c-0.5,0.4-1,0.7-1.5,1C92.2,97.2,92.7,96.9,93.1,96.5z"/>
<path class="st1" d="M95.8,82.5L95.8,82.5z"/>
<path class="st1" d="M86.9,90.9C86.3,90.1,86,89,86.2,88c0.2-1,0.5-2,0.7-3c0-0.1,0-0.2,0-0.3l0,0c0,0.1,0,0.2,0,0.3
	c-0.2,1-0.5,2-0.7,3C86,89,86.3,90.1,86.9,90.9c0.8,0.8,2,1,3,0.7c0.7-0.3,1.4-0.7,2-1.2c-0.6,0.6-1.3,1-2,1.2
	C88.8,91.9,87.7,91.7,86.9,90.9z"/>
<path class="st1" d="M72.5,104.4c0.8-0.3,1.7-0.5,2.5-0.7l0.6-0.3c-1.5,0.3-3,0.8-4.3,1.6C71.7,104.7,72.1,104.6,72.5,104.4z"/>
<path class="st1" d="M95.5,127c0.4-0.1,0.8-0.2,1.2-0.4c0.1-0.1,0.2-0.1,0.3-0.2c0.3-0.5,0.4-1.2-0.3-1.6c-0.4-0.2-0.9-0.2-1.3-0.1
	c-0.2,0-0.5,0-0.7,0c-1,0.3-2.1,0.4-3.2,0.2c0,0.1,0,0.1,0,0.2C90.8,126.8,94.5,127.1,95.5,127z"/>
<path class="st1" d="M96,83c0,0.2,0,0.3,0,0.5c-0.1,2.6-1.2,5.2-3,7.1c-1.5,1.6-4,2.7-5.8,1.5c-1.2,1.2-2.9,1.6-4.5,0.9
	c-2.1,1.5-5.1,0.6-7-1.2s-3.1-4.1-4.8-6c-0.5,0.3-1,0.5-1.5,0.5c0.6,2.6,1.7,5,3.2,7.3c1.6,2.1,4.2,3.7,6.8,3.4
	c0.2-0.1,0.4-0.1,0.6,0c0.2,0.2,0.4,0.4,0.4,0.7c0.2,1.2,0.1,2.5-0.4,3.6c1.4-0.7,3-1.1,4.6-1.1c0.8,0,1.7,0,2.5,0.1
	c0.8,0,1.6,0.1,2.4,0.2c-0.4-1.1-0.4-2.4-0.1-3.5c0-0.1,0.1-0.1,0.1-0.1c5.7-1.9,8.1-8.5,8.4-14.2C97.3,83,96.6,83,96,83z"/>
<path class="st1" d="M92.2,121.8c-0.2-1.1-0.2-2.1-0.2-3.2c0,0.2-0.1,0.4-0.2,0.4c0.1,0.6,0.1,1.1,0.1,1.7S92.1,121.5,92.2,121.8z"
	/>
<path class="st1" d="M68.8,107.2c-0.1,0.2-0.3,0.4-0.4,0.6c0,0,0.1,0.1,0.1,0.1c0.5-0.9,1.1-1.6,1.8-2.2
	C69.7,106.1,69.2,106.7,68.8,107.2z"/>
<path class="st1" d="M91.1,115.2v-1c-0.1-0.5-0.2-1.1-0.2-1.6l0,0c-0.1-0.1-0.2-0.3-0.2-0.5l-0.1-0.3c0.3,1.1,0.4,2.3,0.3,3.5
	C91,115.1,91,115.1,91.1,115.2C91.1,115.1,91.1,115.2,91.1,115.2z"/>
<path class="st1" d="M68,127c-0.3,0.2-0.6,0.3-0.9,0.4C67.4,127.3,67.7,127.1,68,127z"/>
<path class="st1" d="M85.8,104.3L85.8,104.3c0.7,0.2,1.3,0.5,1.9,0.9c-0.5-0.5-1.2-0.8-1.9-1.1C85.9,104.1,85.9,104.2,85.8,104.3z"
	/>
<path class="st1" d="M92.9,115.4c0-0.8,0.1-1.6,0-2.2c0-0.2,0-0.4-0.1-0.7c-0.2-1.1-0.1,1.3-0.1,2.1C92.8,115,92.9,115.2,92.9,115.4
	z"/>
<path class="st1" d="M88.6,104l-1.2-1.1c-0.1-0.1-0.1-0.3-0.1-0.4h-1c0.8,0.3,1.6,0.7,2.2,1.4L88.6,104z"/>
<path class="st1" d="M96.3,81.4c-0.1,0.3-0.2,0.7-0.2,1c0,0,0,0,0,0.1c0.6,0,1.2-0.1,1.8-0.1c0-0.1,0-0.1,0-0.2c0-0.1,0-0.2,0-0.3
	c-0.1-0.4-0.3-0.8-0.7-1C96.7,80.8,96.5,81.1,96.3,81.4z"/>
<path class="st1" d="M96.8,80.2c-0.2,0-0.4,0.1-0.5,0.2C96.4,80.3,96.6,80.3,96.8,80.2c1.1-0.2,1.2,1.2,1.3,2c0,0.1,0,0.1,0,0.2l0,0
	c0,0,0.1,0.1,0.1,0.2l0,0c0,4.1-1.2,9.7-4.1,12.9c2.9-3.2,4.1-8.8,4.1-12.9l0,0c0-0.1,0-0.2-0.1-0.2l0,0c0-0.1,0-0.1,0-0.2
	c0-0.3,0-0.5-0.1-0.8C97.9,80.8,97.6,80.1,96.8,80.2z"/>
<path class="st1" d="M153,17.7c0-0.5-0.1-1-0.3-1.4c-1-1.1-1.3,0.4-1.3,1.3C151.9,17.6,152.5,17.6,153,17.7z"/>
<path class="st1" d="M145.4,35.4c0.3,0,0.7,0,1-0.1c0-0.1,0-0.3,0-0.4c-0.3,0-0.5,0-0.8,0C145.6,35.1,145.5,35.2,145.4,35.4z"/>
<path class="st1" d="M141.3,48.4V48c0-0.3,0.3-0.6,0.3-0.1c0.1,0.8,0.2-0.2,0.2-0.6c-0.9,1.1-2.2,1.7-3.7,1.9c0,0.1,0,0.3,0,0.4
	l-0.1,0.1l0,0c0.1,1,0.2,5.2,2.1,4.3c1.4-0.6,0.8-3.5,0.7-4.7C140.9,48.9,141.1,48.6,141.3,48.4z"/>
<path class="st1" d="M136,55.2c0-0.6-0.1-1.1-0.2-1.7l-0.1,0.8c0.1,0.1,0.1,0.2,0.1,0.4c0.1,1.2,0.1,2.3-0.1,3.5l0,0
	c0,0.1,0,0.1,0,0.2C136,57.3,136.1,56.2,136,55.2z"/>
<path class="st1" d="M133.5,56.5L133.5,56.5c-0.1-0.2-0.3-0.4-0.4-0.6c0.3,0.7,0.4,1.5,0.5,2.2C133.6,57.6,133.5,57.1,133.5,56.5z"
	/>
<path class="st1" d="M144.7,37c-0.1-0.1-0.2-0.3-0.2-0.5c-0.1,0.1-0.2,0.2-0.4,0.2c-0.3,0.1-0.7,0.1-1,0c-0.5,0.3-1,0.2-1.4-0.2
	c-0.4,0.4-1.1,0.6-1.7,0.4c-0.4-0.2-0.7-0.5-0.9-0.9c-0.3,0.1-0.5,0.1-0.8,0c-0.2,0.4-0.7,0.7-1.2,0.7c-0.1,0-0.2,0-0.3-0.1
	c-0.2,0.2-0.5,0.3-0.8,0.3c-0.1,0.1-0.1,0.2-0.2,0.3c-0.1,0.1-0.2,0.1-0.3,0.2c-0.7,1.2-1.2,2.6-1.4,4.1c-0.4,3.9,2.6,6.2,5.9,4.3
	s4.2-5.3,6-8.2v-0.1C145.8,37.7,145.3,37.7,144.7,37z"/>
<path class="st1" d="M142.2,22.4c0.8-0.5,1.3-1.4,1.1-2.4c0-0.4,0-0.8-0.2-1.2c-0.5-0.1-1-0.4-1.3-0.8c-0.6-0.5-1-1-1.6-0.7
	c-0.4,0.9-0.9,2.5-1.8,3c0,0.6,0.2,1.2,0.6,1.7C139.8,23,141.2,23.2,142.2,22.4C142.2,22.4,142.2,22.4,142.2,22.4z"/>
<path class="st1" d="M136.6,32.3C136.6,32.3,136.6,32.3,136.6,32.3c0.2-0.3,0.4-0.5,0.6-0.6c0.3-0.1,0.7,0,0.9,0.2
	c0.2-0.2,0.6-0.3,0.9-0.1c0.1-0.3,0.2-0.5,0.4-0.7c0.1-0.2,0.3-0.4,0.5-0.5c0.2,0.1,0.4,0.1,0.6,0.2c0,0,0.1,0.1,0.1,0.2
	c0.3-0.3,0.7-0.3,1-0.2c0.4,0.2,0.8,0.5,0.9,1v-0.1c0-0.1,0.2-0.3,0.4-0.2c0.8,0.5,1.3,1.3,1.5,2.2l0.2,0c0.2-0.5,0.5-0.9,1-0.6
	c0.3,0.2,0.5,0.5,0.5,0.9c0.1,0,0.3,0,0.4,0c-0.1-0.4-0.2-0.8-0.3-1c-0.3-0.8-0.5-1.7-0.4-2.6c-0.1-0.2-0.2-0.8,0.1-0.8
	c2.4-0.3,4.3-0.3,5.9-2.5c1.8-2.4,1.8-5.6,1.6-8.5c0,0-0.1-0.1-0.1-0.2c-0.5,0.1-1.1,0-1.5-0.2c0.5,2.3-0.4,5.3-1.3,7.2
	c-0.4,1.2-1.4,2.1-2.6,2.4c-1.6,0.2-3.3-1.7-4.7-0.4c-0.2,0.3-0.4,0.5-0.7,0.7c-0.6,0.2-1.2,0.2-1.8,0c-0.5-0.2-0.9-0.5-1.4-0.8l0,0
	c-2.1-0.5-1.6,2.2-3.1,2.7c-1.1,0.3-2.4-0.8-3.1-1.5c-2-2.2-3-5.1-2.9-8.1c-0.4,0.3-0.9,0.5-1.4,0.6c0.3,2.8,0.7,5.8,2.4,8.2
	c1.3,1.9,3,2.5,4.9,3.4C136,32.3,136.3,32.3,136.6,32.3z"/>
<path class="st1" d="M134.5,34.2c0-0.1,0-0.2,0.1-0.3c-0.7-0.1-1.4,0.5-1.5,1.2c0,0.2,0,0.4,0.1,0.5c0.1,0.1,0.1,0.2,0.2,0.3
	c-0.1-0.4-0.1-0.9,0.1-1.4c0.1-0.3,0.5-0.5,0.8-0.4C134.4,34.1,134.4,34.1,134.5,34.2z"/>
<path class="st1" d="M144.4,56.4c0,0.1,0.1,0.1,0.1,0.2c-0.1-0.4-0.1-0.9-0.1-1.3c-0.2-0.6-0.3-1.3-0.4-2
	C143.9,54.3,144,55.4,144.4,56.4z"/>
<path class="st1" d="M134.4,35.1c-0.4-0.2-0.5,0.4-0.3,0.8c0-0.2,0-0.4,0-0.6c0.1,0,0.2,0.1,0.3,0.1
	C134.5,35.3,134.4,35.2,134.4,35.1z"/>
<path class="st1" d="M142.3,26.3c-0.2-0.7-0.3-1.4-0.2-2.2c-0.6,0.3-1.3,0.4-1.9,0.2c-0.1,0.7-0.2,1.5-0.4,2.2
	C140.7,27.2,141.4,26.6,142.3,26.3z"/>
<path class="st1" d="M129.9,19.2C129.9,19.2,129.9,19.2,129.9,19.2c0.1-0.4,0-0.7-0.2-1c-0.6-0.8-1-0.2-1.2,0.3
	c-0.2,0.4-0.2,0.9-0.1,1.3l0.4-0.3C129.2,19.4,129.5,19.2,129.9,19.2z"/>
<path class="st1" d="M144,53.2c0-0.3,0-0.6,0-0.8c0-0.2,0-0.4,0.1-0.7c0-0.5-0.1-0.9-0.1-1.4l0,0c-0.1-0.1-0.1-0.2-0.1-0.3
	c0,0.1,0,0.2,0,0.3c0,0.4-0.2,0.5-0.4,0.4c0.2,0.4,0.4,0.9,0.5,1.4C144,52.4,144,52.8,144,53.2z"/>
<path class="st1" d="M148,37c0.3-0.3,0.6-0.8,0.1-1.1c-0.1-0.1-0.2-0.1-0.3-0.1c0,0.2,0,0.5-0.1,0.5s-0.7,0.4-0.8,0.6
	C146.8,37.8,147.8,37.3,148,37z"/>
<path class="st1" d="M151.2,81c0-0.5,0-1,0.1-1.5c0-0.2,0-0.3,0.1-0.4l-0.1-0.1l0,0c0,0,0,0.1,0,0.1c-0.2,0.3-0.3,0.6-0.3,0.9
	c0.1,0.2,0.2,0.4,0.2,0.6L151.2,81z"/>
<path class="st1" d="M124.2,69.9c-0.2-0.9-0.3-1.7-0.3-2.6c-1.1-0.3-2.2,0.3-2.5,1.3C121,70,123.5,70,124.2,69.9z"/>
<path class="st1" d="M152.3,79.2c0-0.1,0-0.2,0-0.2c0,0.4-0.1,0.8-0.3,0.8c0,0.3,0,0.5,0,0.7l0,0c0.1,1.2,0.1,2.5-0.2,3.7
	C152.3,82.6,152.5,80.9,152.3,79.2z"/>
<path class="st1" d="M118,115.8c0-0.1-0.1-0.2-0.1-0.2c-0.1,0-0.2,0-0.2-0.2c-0.1,1.4,0.1,2.8,0.6,4.1c0-0.1-0.1-0.2-0.1-0.4
	C117.8,118.1,117.8,116.9,118,115.8z"/>
<path class="st1" d="M148.4,50.2c-0.1-0.9-0.2-1.8-0.4-2.7c0.3,1.3,0.2,2.7-0.1,3.9C148.1,51.1,148.2,50.6,148.4,50.2z"/>
<path class="st1" d="M150.4,79.4c-0.1,0-0.2-0.1-0.3-0.3c0-0.1-0.1-0.2-0.1-0.2c0,0.2-0.1,0.3-0.1,0.5c0.1,0.4,0.2,0.9,0.3,1.3
	C150.3,80.2,150.4,79.8,150.4,79.4z"/>
<path class="st1" d="M121.2,105.9c0.1,0.4,0.1,0.9,0.1,1.3l0.1-0.8c0-0.7,0-1.3,0-1.9C121.3,105,121.3,105.5,121.2,105.9z"/>
<path class="st1" d="M117.6,103.1c-0.1-0.2-0.1-0.3-0.2-0.5c0.4,2.5,0.6,5.1,0.6,7.7c0.1-0.8,0.2-1.5,0.3-2.3
	c-0.2-1.1-0.3-2.2-0.4-3.4C117.8,104.1,117.7,103.6,117.6,103.1z"/>
<path class="st1" d="M149.5,83.2c0,0.2,0,0.5,0,0.7c0.1-0.3,0.1-0.5,0.2-0.8c-0.2-2.3-0.4-5.1-0.2-1.9
	C149.5,81.8,149.5,82.5,149.5,83.2z"/>
<path class="st1" d="M120.1,119.4c0,0.2,0,0.3-0.1,0.5s-0.2,0.5-0.4,0.3c-0.1-0.2-0.3-0.5-0.4-0.7c0,0.2,0,0.4,0,0.7
	c0,0.1,0,0.2-0.1,0.3c0.4,0,0.9-0.2,1.2-0.5c-0.1-0.1-0.2-0.2-0.2-0.3C120.1,119.6,120.1,119.5,120.1,119.4z"/>
<path class="st1" d="M119.1,80.7c-0.4,0.9-0.7,1.7-1,2.7c0.1-0.2,0.2-0.5,0.3-0.7c0.2-0.7,0.5-1.5,0.9-2.2
	C119.3,80.5,119.1,80.6,119.1,80.7z"/>
<path class="st1" d="M143.8,46c0,0.1,0,0.1,0,0.2c0-0.3,0.2-0.6,0.3-0.6c-0.1-0.1-0.1-0.2-0.1-0.3c-0.1,0.1-0.2,0.2-0.2,0.3
	c-0.1,0.2-0.2-0.1-0.2-0.4c-0.2,0.3-0.4,0.5-0.6,0.8c0.1,0,0.1,0,0.2,0.1C143.3,45.5,143.7,45.2,143.8,46z"/>
<path class="st1" d="M143.7,81.7c-0.1,0.1-0.2,0.3-0.4,0.4c-0.2,1.1-0.4,2.1-0.7,3.2v1.6c0.4-1.4,0.6-2.8,0.9-4.2
	C143.6,82.3,143.6,82,143.7,81.7z"/>
<path class="st1" d="M142.9,96.7c-0.1,1.4-0.2,2.7-0.2,3.1c0,0.1,0,0.3,0,0.4c0.5-3.3,0.9-6.6,1.4-9.8
	C143.7,92.5,143.3,94.6,142.9,96.7z"/>
<path class="st1" d="M141,85.6c0,0.3,0,0.6,0,0.8c0.1,0.3,0.1,0.6,0,0.8c0,0.4,0,0.8,0,1.2c0.1-0.6,0.2-1.1,0.4-1.7s0.1-1.1,0.2-1.6
	c-0.2-0.1-0.4-0.1-0.6-0.1C141.1,85.3,141.1,85.5,141,85.6z"/>
<path class="st1" d="M139.9,93.3L139.9,93.3c-0.1,1.5-0.1,2.9-0.2,4.4c0.1,0.7,0.1,1.4,0.1,1.8c0-0.4,0.1-0.7,0.1-1.1
	c0.1-1,0.1-2.1,0.1-3.1c-0.1-0.2-0.1-0.5-0.1-0.8C139.9,94.1,139.9,93.7,139.9,93.3z"/>
<path class="st1" d="M137.3,109.7C137.3,109.7,137.3,109.8,137.3,109.7c0.2,0.3,0.4,0.6,0.6,0.8c-0.2-0.4-0.4-0.8-0.5-1.3
	C137.3,109.4,137.3,109.6,137.3,109.7z"/>
<path class="st1" d="M141,94.8c0.1-0.5,0.1-1,0.2-1.5s0-1,0-1.4c-0.1,0.7-0.2,1.3-0.3,2C140.9,94.2,141,94.5,141,94.8z"/>
<path class="st1" d="M144.8,113.6c0,0.1-0.1,0.2-0.1,0.2c-0.1,0.2-0.2,0.3-0.4,0.2s-0.1,0-0.2,0c0.6,0.2,1.3,0.5,1.9,0.7
	c-0.4-0.4-0.7-0.7-1.1-1.1L144.8,113.6z"/>
<path class="st1" d="M137.8,99.5c0.1,1.4,0.2,2.7,0.2,4.1l0.1,0.7c-0.1-1.7-0.1-3.4-0.2-5.1C137.9,99.2,137.8,99.4,137.8,99.5z"/>
<path class="st1" d="M153.8,120.6c-0.4,1.1-1.5,2.9-2.9,2.2c-0.3-0.2-0.5-0.5-0.6-0.8c-0.3,0.2-0.5,0.4-0.7,0.6
	c-0.9,1.1-0.7,2.9,0.7,3.1c0.8,0.1,1.6-0.2,2.3-0.7C154.1,123.8,154.2,122.2,153.8,120.6C153.8,120.5,153.8,120.6,153.8,120.6z"/>
<path class="st1" d="M146,102.7l0.5,1.3c-0.1-0.8-0.2-1.5-0.3-2.3C146.1,102.1,146.1,102.4,146,102.7z"/>
<path class="st1" d="M148.7,113c0,0.1-0.1,0.1-0.1,0.2c0.4,0.4,0.9,0.9,1.3,1.3c-0.1-0.3-0.3-0.7-0.4-1L148.7,113z"/>
<path class="st1" d="M149.9,89.6c-0.4,0.8-0.8,1.5-1.1,2.3c-0.6,1.4-1.2,2.7-1.9,4c0,0.1-0.1,0.1-0.2,0.2c0,0.7-0.1,1.3-0.1,2v0.2
	c0-0.4,0.1-0.8,0.1-1.2c0.7-2.3,1.7-4.6,2.8-6.8C149.7,90,149.8,89.8,149.9,89.6z"/>
<path class="st1" d="M149.6,116.8c-0.4-0.3-0.8-0.7-1.3-1c0,0.1-0.1,0.2-0.2,0.3c0.1,0.1,0.3,0.2,0.4,0.3c0.4,0.3,0.7,0.7,1,1.1
	c0,0,0.1,0.1,0.1,0.1c0.1,0.2,0.2,0.3,0.2,0.5c-0.1-0.3-0.2-0.5-0.2-0.8C149.6,117.1,149.6,116.9,149.6,116.8z"/>
<path class="st1" d="M124.5,89.1c0.1-0.3,0.1-0.7,0.2-1l-0.4,1c0,1,0,2,0,3.1l0.3-2C124.6,89.9,124.5,89.5,124.5,89.1z"/>
<path class="st1" d="M125.1,81.9l1-1.3c0-0.2,0.1-0.4,0.2-0.6c-0.3,0.3-0.7,0.6-1,0.9C125.1,81.3,125.1,81.6,125.1,81.9z"/>
<path class="st1" d="M125,106.3c-0.1,0.4-0.2,0.6-0.3,0.6c0,0.8,0,1.7,0,2.5c0.2-1.6,0.4-3.2,0.6-4.8l0,0L125,106.3z"/>
<path class="st1" d="M123.3,116.2c-0.2,0.4-0.3,0.8-0.5,1.2c-0.1,0.3-0.3,0.3-0.4,0.1c0,0.1,0,0.1,0,0.2c-0.1,0.5-0.3,0.4-0.5,0.2
	c0,0.3-0.1,0.5-0.1,0.8c1-1,1.7-2.2,2-3.5c-0.1,0.3-0.3,0.6-0.4,0.9L123.3,116.2z"/>
<path class="st1" d="M131.9,62.7L131.9,62.7c0,0.1,0,0.2-0.1,0.2C131.9,62.9,131.9,62.8,131.9,62.7C132,62.7,131.9,62.7,131.9,62.7
	L131.9,62.7z"/>
<path class="st1" d="M136.4,101.7c0.1-0.5,0.2-1,0.2-1.6c-0.2,0.4-0.5,0.5-0.6,0.1c0.1,0.7,0.2,1.4,0.4,2.1s0.4,1.5,0.5,2.3
	c0-0.6,0-1.2,0-1.8l0,0C136.6,103,136.3,102.2,136.4,101.7z"/>
<path class="st1" d="M125.8,75.1L125.8,75.1h0.1c0,0,0-0.1,0.1-0.1L125.8,75.1z"/>
<path class="st1" d="M132.5,62.8c0,0.1,0,0.1,0,0.2c-0.1,1.3-0.5,2.6-1.1,3.8c4.1-0.4,8.3-1.7,10.2-4.6c0.2-0.4,0.4,0.7,0.3,0.9
	c-1.1,2.7-3.5,3.4-6.1,4.2c-2.3,0.7-4.7,1.1-7.1,1c-0.1,0.1-0.2,0.1-0.2,0c0,0,0,0,0,0c-1.3-0.1-2.5-0.4-3.6-0.9
	c0.1,0.6,0.2,1.3,0.3,1.9c5.4,1.9,10.8,2.4,16.3,0.7c2.8-0.9,6.4-2.5,8.2-5.1c1.2-1.8,1.8-7.6,0.6-9.4c-0.6-0.8-1.4-1.3-2.3-1.7
	c-0.6,1.3-0.7,2.8-0.3,4.1c0.1-0.1,0.3-0.1,0.4-0.1c0.3,0,0.3-0.1,0.6,0.1s0.4,0.5,0.3,0.9c0,0.5-0.2,1-0.7,1.3
	c-0.2,0.1-0.4,0.2-0.7,0.2c-1.5,0.4-3-0.9-3.7-2.3c-0.4-0.8-0.7-1.7-0.7-2.6c-0.2-1.7,0.4-3.9-1.3-4.9c0.1,0.9,0,1.8-0.1,2.8
	c-0.1,0.9-0.5,2-1.4,2.4c-2.4,0.9-2.7-3.5-2.7-5.4c-0.1,0.1-0.1,0.2-0.2,0.3c-0.7,1.6-0.9,3.4-0.7,5.2c0.1,1.2,0,2.4-0.2,3.6
	c-0.1,0.3-0.2,0.7-0.4,1C135.6,61.9,134.1,62.9,132.5,62.8z"/>
<path class="st1" d="M129.3,91c-0.1,0.3-0.3,0.5-0.4,0.8l-0.1,0.6c0.2-0.4,0.5-0.7,0.7-1.1c0,0,0,0,0-0.1c0-0.1,0.1-0.2,0.2-0.2
	c0.2-0.2,0.4-0.5,0.6-0.7l-0.9,0.5L129.3,91z"/>
<path class="st1" d="M135.8,95.4c0,0.1-0.1,0.2-0.1,0.2s0,0.1,0,0.1c0,0.5,0,0.9,0,1.4l0,0c0-0.1,0.1-0.3,0.1-0.4
	c0-0.7,0.1-1.4,0.2-2.2L135.8,95.4z"/>
<path class="st1" d="M129.9,67L129.9,67c0.1,0,0.1-0.1,0.1-0.1C129.9,66.9,129.9,66.9,129.9,67z"/>
<path class="st1" d="M134.6,102c0.1-1.7,0.2-3.3,0.5-5c0-0.2,0-0.5,0-0.7C134.6,98.1,134.5,100,134.6,102z"/>
<path class="st1" d="M147.2,71L147.2,71c0,0,0.1,0,0.1-0.1c-0.1-0.7-0.1-1.3,0-2c0,0,0-0.1,0-0.1c-5,3.9-12.1,4.7-18.3,3v0.1h-0.1
	c-0.1,0-0.1,0-0.2,0c0.1,1-0.2,1.9-0.7,2.8L128,75c0.3,0,0.6-0.1,0.9-0.1c2.8-0.3,5.5-0.2,8.3-0.7c2.5-0.4,5-1,7.4-1.8
	C145.5,72,146.4,71.5,147.2,71z"/>
<path d="M154.1,118.8L154.1,118.8c0-0.7,0-1.2-0.1-1.8c0-0.7-0.1-1.5-0.3-2.2c-0.2-0.6-0.4-1.2-0.6-1.8c-0.8-1.5-1.7-2.9-2.8-4.2
	c-1-1.2-1.7-2.7-2-4.2c-0.2-0.7-0.4-1.4-0.5-2.1c0,0,0-0.1,0-0.2c-0.4-2.5,0.4-5.2,1.6-8c0.3-1.7,0.9-3.3,1.8-4.8
	c0.1-0.1,0.1-0.3,0.1-0.4c0.7-1.3,1.3-2.7,1.6-4.1c0.5-1.5,0.7-3.1,0.7-4.7c-0.1-1.2-0.3-2.5-0.7-3.6c-0.2-0.5-0.4-1.1-0.7-1.6
	c-0.5-1.2-1.2-2.2-2.2-3c-0.4-0.5-1-0.8-1.6-0.8l0,0c-0.2-0.9-0.3-1.8-0.4-2.8c0.9-0.8,1.8-1.7,2.5-2.7c3-4.2,2.6-10.6-2-13.1
	c0.7-1.7,1.3-3.4,0.8-5.3c-0.2-1.1-0.9-2-1.8-2.7c-0.8-0.9-2.2-1-3.2-0.4c1.1-1.7,1.9-3.6,2.5-5.5c0.4,0.3,1,0.2,1.3-0.2
	c0.8-0.7,1.1-1.8,0.9-2.9c-0.1-0.4-0.3-0.8-0.6-1.1c-0.1,0-0.2-0.1-0.3-0.2c-0.3-0.2-0.6-0.4-0.9-0.6c-0.5-1.1-1.3-2.2-1.3-3.4
	c2.5,0.9,5.1-1,6.2-3.1c1.6-2.8,1.4-6,1.1-9.1l0,0l0,0c0-0.1-0.1-0.2-0.1-0.3c0-0.9-0.1-2.5-1-2.7c-1-0.3-1,1.7-1,2.4
	c-0.1,0-0.3,0.1-0.3,0.3c0.5,2.4-0.7,8.1-3.6,8.6c-1.5,0.2-2.9-1-4.1,0c0-0.2,0-0.3,0-0.5c0-0.1,0-0.2,0-0.3c-0.1-0.7-0.3-1.3-0.6-2
	c0.7-0.5,1.2-1.1,1.5-1.9c0.4-1.2,0.4-2.4,0-3.5l0,0c0-0.1,0-0.2-0.1-0.2c0-0.3-0.1-0.6-0.2-0.7c-0.5-1.6-2.2-2.4-3.8-1.9
	c-1.6,0.6-2.1,2.2-2.1,3.7c-0.4,1.6,0.1,3.2,1.1,4.5c0.2,0.2,0.5,0.4,0.8,0.6c-0.2,0.6-0.4,1.3-0.4,2c0,0.1,0,0.2,0,0.3
	c-0.9-0.4-1.7-0.7-2.3,0.4c-0.8,0.8-1.2,2.1-2.6,1.5c-3.1-1.5-3.9-5.6-4.1-8.5l0,0c0.1-1.2-0.3-3.4-1.6-2.9c-0.6,0.4-1,1-0.9,1.8
	c0,0.4,0,1.2,0.4,1.5l0,0c-0.1,0.1-0.1,0.2-0.1,0.2c0.2,3,0.4,6.2,2,8.9c0.8,1.5,2,2.7,3.4,3.6c-0.5,0.2-0.8,0.7-1,1.2
	c-0.3,1-0.2,2.1,0.3,3c0.3,0.4,0.7,0.7,1.2,0.7c-1.2,2.4-1.4,5.1-0.6,7.7c-1-0.3-2.1-0.1-2.9,0.6c-0.9,0.7-1.5,1.7-1.8,2.8
	c-0.2,1.4,0.2,2.8,1,3.9c-1.2,1-2,2.2-3.5,2.8c-1.2,0.5-2.6,0.7-3.9,0.5c-0.2-0.1-0.4-0.1-0.6-0.2c-0.1-3.6-0.3-7.2-0.5-10.8
	c-0.6-12-0.9-24.1-2.3-36c0,0,0-0.1,0-0.1c0-0.4-0.1-0.7-0.2-1.1c-0.1-0.3-0.2-0.6-0.3-0.9c-0.1-0.1-0.1-0.3-0.2-0.4V6.4l-0.1-0.1
	c-1-1.5-2.8-1.4-4.5-1.3c-0.3,0-0.8,0-1.3,0.1c-9,0.8-18.1-0.1-27.1,0.1c-2.2,0.1-4.4,0.2-6.6,0.3l-2.3,0.2C75,5.8,73.6,5.9,72.1,6
	h-0.2l-2.6,0.2l-4,0.3h-0.3c-1.1,0.1-2.2,0.2-3.3,0.3c-0.8,0-1.6,0-2.3,0.2c-0.2,0.1-0.4,0.2-0.5,0.4l0,0l0,0
	c-0.1,0.3-0.2,0.6-0.1,0.9c0,0.4,0,0.8,0,1.2c0.1,5.4-0.1,10.7-0.2,16.1c0,0.4,0,0.9,0,1.3v1.9c-0.1,4.5-0.1,9-0.1,13.6
	c-1,2.9-2.6,5.6-4.7,7.9l0,0c0.4-4.4,1-11.4-2.2-14.7c-1.1-1.2-2.8-1.8-4.5-1.6c-0.7,0-1.4,0.2-2,0.5c-2.1-3.7-6.6-2.1-9.5-0.1
	c-3.6,2.6-5.3,8.1-7,12.1c0.1-0.2-0.8-1.7-0.9-2c-0.3-0.6-0.6-1.3-0.8-1.9c-0.7-1.8-1.3-3.6-2.1-5.3c0,0,0-0.1-0.1-0.1
	c0-0.2-0.1-0.4-0.1-0.6c0-0.1,0-0.2,0-0.2c-0.2-1.1-0.8-3.3-2.4-2.7c-1.2,0.5-1.3,2.5-0.8,3.5c0,0.4,0,0.9,0,1.3
	c-0.2,3.3,0.3,6.7,1.7,9.7c0.2,0.7,0.5,1.3,0.8,2s0.7,1.4,1.1,2.3c-3.6,4.2-9.3,4.4-14.5,3.8c-0.4,0-0.3,1.1-0.2,1.2
	c2,5.8,6.4,11.4,12.4,12.9c-1.1,1.2-1.9,2.5-2.5,4c-1.1,1.8-1.7,3.8-1.9,5.9c-0.3,1.2-0.6,2.4-0.8,3.7c-0.2-0.3-0.4-0.6-0.6-0.9
	s-0.2-0.4-0.3-0.7c0-0.1-0.1-0.1-0.2-0.2c-1.8-2.8-3.3-5.8-4.5-8.9c-0.1-0.2-0.2-0.2-0.5-0.2c-0.1-0.1-0.1-0.1-0.2-0.2
	c-0.5-1.1-1.7-1.8-2.9-1.8c-1.6,0.2-2.9,1.3-3.4,2.8c-0.5,1.2,0,2.5,1.2,3.1c0.4,0.2,0.9,0.2,1.3,0.2C7.7,80.1,9,83,9.7,85.2
	c1.1,3.6,2.5,7,4.3,10.3c0.7,1.4,1.7,2.7,2.9,3.8c1.2,1.1,2.8,1.6,4.4,1.4c4.1-0.6,6.5-5.9,8.4-9c1.3-2.1,2.4-4.2,3.4-6.5
	c-0.5,1.1-0.2,3.4-0.2,4.6c0,1.8-0.1,3.6,0,5.4c0.1,3.5,0.4,7,1,10.4c0.6,3.4,1.6,6.7,3,9.8c1.2,2.6,3.2,6.6,6,7.7
	c-0.3,1.1-0.3,2.4,1.1,2.9c1.8,0.6,5.3,0.2,6.7-1.2c0.9-1,1.1-2.4,0.6-3.6c-0.6-1-1.8-1.2-3.2-1.1c0.2-0.5,0.3-1,0.4-1.5
	c2.2-8.6,3-17.5,2.3-26.4c-0.4-4.4-1.1-10-3.4-14.4c-0.3-1-0.8-2-1.2-3c2.6,0.9,5.4,1.2,8.2,1c1-0.1,2.7-0.1,3.3-1
	c0.4-0.8,0.5-1.7,0.4-2.5h0.8c0.1,1.2,0.2,2.5,0.3,3.7c0,0.5,0.1,1,0.2,1.5c0.1,0.6,0.3,1.3,0.5,1.9c0,0.1,0.1,0.2,0.1,0.3
	c1.1,1.7,2.8,2.8,4.8,3.2c1.3,0.2,2.6,0.3,3.9,0.2c-0.2,0.2-0.3,0.5-0.4,0.8c-0.1,0.7,0.1,1.5,0.4,2.2l1.5,4.1
	c0.7,2.3,1.8,4.4,3.3,6.2c1.2,1.3,2.9,2.1,4.7,2.2c0.4,0,0.8-0.1,1.2-0.2c0.2,0,0.3-0.1,0.5-0.1c0.2,1.5-0.4,2.9-1.5,3.9l0,0
	c-1.1,0.8-2.5,0.8-3.8,0.9c-1.5,0.2-3,0.8-4.2,1.7c-0.9,0.6-1.6,1.3-2.2,2.1c-1.5,2.4-2.1,5.1-1.9,7.9c0.1,2.8,0.6,5.5,0.7,8.2l0,0
	c-0.8,0-1.7,0.3-2.4,0.7c-0.2,0.2-0.4,0.4-0.5,0.6c-0.7,1.2,0.5,2.9,1.9,3.2c0.5,0.1,0.9,0,1.4-0.1c0.3-0.1,0.6-0.2,0.9-0.4
	c0.1,0,0.1-0.1,0.2-0.1c0.2-0.2,0.4-0.4,0.6-0.6c0.6-1,0.9-2.1,0.9-3.2c0.3-2.9,1.1-5.7,2.4-8.3c0.9-1.8,2.3-3.4,3.9-4.7
	c0.6-0.5,1.3-0.9,2.1-1.3c1.9-0.8,4-1.1,6-0.9c1.8,0.1,3.4,0.9,4.6,2.2c1.5,1.8,1.6,4.3,1.5,6.7c-0.2,1.8-0.2,3.7,0.2,5.5
	c0.1,0.8,0.3,1.5,0.6,2.2c0,0.1,0.1,0.2,0.1,0.3c-0.4,0.7-0.2,1.7,0.4,2.2c1.4,1,3.3,1.2,4.8,0.4c0.3-0.1,0.5-0.3,0.8-0.6
	c0.5-0.5,0.6-1.4,0.2-2c0-0.1-0.1-0.2-0.1-0.3c-0.3-0.3-0.7-0.5-1.1-0.6c-0.4-0.1-0.7-0.1-1.1,0h-0.4c0.2-5.1,2.8-10.1,1.3-15.2
	c-0.3-1.1-0.7-2.1-1.2-3.1c-0.4-0.9-1-1.7-1.7-2.4c-0.7-0.9-1.6-1.7-2.7-2.2l-0.2-0.3c-0.3-0.6-0.4-1.3-0.3-1.9
	c0.1-0.4,0.4-0.8,0.8-1l0,0c0.3-0.1,0.7-0.2,1-0.4c0.5-0.3,1-0.6,1.5-1c0.4-0.3,0.7-0.6,1-1c2.9-3.2,4.1-8.8,4.1-12.9l0,0
	c0-0.1,0-0.2-0.1-0.2l0,0c0-0.1,0-0.1,0-0.2c0-0.8-0.1-2.2-1.3-2c-0.2,0-0.4,0.1-0.5,0.2c0.2-0.1,0.3-0.2,0.5-0.2
	c0.8-0.1,1.1,0.6,1.2,1.2l1.8-0.1c3.7-0.2,7.4-0.4,11.1-0.6c2-0.1,4.7,0.1,7-0.3c-0.2,0.3-0.4,0.7-0.6,1.1c-0.8,1.4-1.3,3-1.6,4.6
	c-0.8,4.4-0.2,9,0.3,13.4l0.1,1c0,0.1,0,0.3,0,0.4c0,0.1,0.1,0.2,0.1,0.3c0.1,1.4,0.3,2.9,0.4,4.3c0.7,3,0.8,6,0.4,9
	c0,0.2,0,0.4-0.1,0.6h0.1c-0.2,1.5-0.2,3.1,0,4.6c-0.2-0.2-0.5-0.3-0.8-0.4c-1.1-0.3-1.7,0.5-2.2,1.4c-0.8,1.5-1.3,3.7,0,5.1
	c2.8,3.2,10-0.5,8.1-4.7c-0.2-0.5-0.3,0.4-0.3,0.6c0.6,3-4.8,4.8-6.9,3.4c-1.7-1.1-0.7-5.4,1.6-4.4c0.4,0.2,0.7,0.4,1,0.8
	c0.2,0.4,0.5,0.7,0.9,0.8l0,0c0.3,0.1,0.6,0.1,0.9,0.1l0,0c0.2,0,0.5,0,0.7-0.1c1.5-0.5,2.4-2.1,3-3.4c0.4-0.9,0.8-1.7,1.1-2.6
	c0.5-2.2,0.9-4.5,1.3-6.8c0.9-5.2,1.3-10.8,3.5-15.1c0.2-0.4,0.5-0.8,0.7-1.2c1.7-2.8,4.6-4.8,7.9-5.3c-3.4,4.9-4.6,11-3.2,16.8
	c0.6,2.8,1.8,5.4,3.7,7.6c3.7,3.9,9.3,2.9,11.9,7.2c0,0.6,0,1.1,0.1,1.7c-1.1,0.7-1.7,1.9-1.7,3.1c0,1.4,1.1,2.5,2.4,2.5
	c0.4,0,0.7-0.1,1-0.2C155,125.6,155.1,121.8,154.1,118.8z M152,80.5L152,80.5c0-0.2,0-0.4,0-0.7c0.1,0,0.2-0.4,0.3-0.8
	c0,0.1,0,0.2,0,0.2c0.2,1.7,0,3.4-0.4,5C152.1,83,152.2,81.8,152,80.5z M151.3,79C151.3,78.9,151.3,78.9,151.3,79L151.3,79L151.3,79
	c0,0.2,0,0.3,0,0.5c-0.1,0.5-0.1,1-0.1,1.5v-0.4c0-0.2-0.1-0.4-0.2-0.6C151.1,79.6,151.2,79.3,151.3,79z M147.7,36.4
	c0.1-0.1,0.1-0.3,0.1-0.5c0.1,0,0.2,0,0.3,0.1c0.5,0.3,0.1,0.8-0.1,1.1s-1.1,0.8-1,0C147,36.8,147.5,36.5,147.7,36.4z M9.4,73.7
	c-0.6,0.1-1.1,0.3-1.5,0.7l-0.1,0.1c-0.3,0.2-0.4,0.5-0.5,0.8c0,0.3,0,0.5,0,0.8c-0.1,0-0.2,0-0.3,0c-0.3,0-1.2-0.1-1.4-0.5
	s0.3-1.2,0.5-1.4c1-1.2,2.6-1.5,4-0.8L9.4,73.7z M14.4,83.2c-0.4-0.8-0.8-1.6-1.2-2.4c0.4,0.8,0.9,1.5,1.3,2.2
	C14.5,83.1,14.4,83.1,14.4,83.2L14.4,83.2z M16.7,89.6c0.2,0.2,0.3,0.3,0.4,0.5s0,0.5,0,0.7C17,90.4,16.9,90,16.7,89.6L16.7,89.6z
	 M17.7,92.8c-0.1-0.2-0.4-0.3-0.7-0.2L17,92.4c0.2-0.3,0.3-0.7,0.3-1.1c0.1,0.1,0.1,0.2,0.2,0.2C17.6,91.9,17.7,92.4,17.7,92.8
	L17.7,92.8z M150.1,78.8c0,0.1,0.1,0.2,0.1,0.2c0.1,0.2,0.2,0.3,0.3,0.3c-0.1,0.4-0.1,0.9-0.2,1.3c-0.1-0.4-0.2-0.9-0.3-1.3
	C150,79.2,150,79,150.1,78.8L150.1,78.8z M149.7,83c-0.1,0.3-0.1,0.5-0.2,0.8c0-0.2,0-0.4,0-0.7c0-0.7,0-1.4,0-2.1
	C149.3,78,149.5,80.7,149.7,83L149.7,83z M148,47.5c0.2,0.9,0.3,1.8,0.4,2.7c-0.1,0.4-0.3,0.9-0.5,1.3
	C148.2,50.2,148.3,48.8,148,47.5L148,47.5z M144.4,55.3c0,0.4,0.1,0.9,0.1,1.3c0-0.1-0.1-0.1-0.1-0.2c-0.4-1-0.5-2-0.4-3
	C144,54,144.2,54.7,144.4,55.3L144.4,55.3z M143.8,50.2c0-0.1,0-0.2,0-0.3c0,0.1,0.1,0.2,0.1,0.3l0,0c0,0.5,0.1,0.9,0.1,1.4
	c0,0.2-0.1,0.5-0.1,0.7c0,0.3,0,0.6,0,0.8c0-0.4,0-0.8-0.1-1.2c-0.1-0.5-0.3-0.9-0.5-1.4C143.5,50.7,143.7,50.6,143.8,50.2
	L143.8,50.2z M143.3,46c-0.1-0.1-0.1-0.1-0.2-0.1c0.2-0.2,0.4-0.5,0.6-0.8c0,0.3,0.1,0.5,0.2,0.4c0.1-0.1,0.1-0.2,0.2-0.3
	c0,0.1,0.1,0.2,0.1,0.3c-0.1,0-0.3,0.3-0.3,0.6c0-0.1,0-0.1,0-0.2C143.7,45.2,143.3,45.5,143.3,46z M146.3,37.5
	c-1.8,2.9-2.9,6.4-6,8.2s-6.3-0.3-5.9-4.3c0.2-1.4,0.7-2.8,1.4-4.1c0.1-0.1,0.2-0.1,0.3-0.2c0.1-0.1,0.1-0.2,0.2-0.3
	c0.3,0,0.6-0.1,0.8-0.3c0.1,0,0.2,0.1,0.3,0.1c0.5,0,0.9-0.3,1.2-0.7c0.3,0.1,0.5,0.1,0.8,0c0.2,0.4,0.5,0.8,0.9,0.9
	c0.6,0.2,1.2,0.1,1.7-0.4c0.3,0.4,0.9,0.5,1.4,0.2c0.3,0.1,0.7,0.1,1,0c0.1,0,0.3-0.1,0.4-0.2c0,0.2,0.1,0.3,0.2,0.5
	c0.6,0.7,1.1,0.7,1.6,0.4L146.3,37.5z M140.3,53.9c-1.9,0.9-2-3.3-2.1-4.3l0,0l0.1-0.1c0-0.1,0-0.3,0-0.4c1.4-0.1,2.7-0.8,3.7-1.9
	c0,0.4-0.1,1.5-0.2,0.6c0-0.5-0.3-0.2-0.3,0.1v0.4c-0.3,0.2-0.4,0.5-0.4,0.9C141,50.4,141.6,53.4,140.3,53.9L140.3,53.9z
	 M135.8,58.1c0.1-1.2,0.2-2.3,0.1-3.5c0-0.1,0-0.3-0.1-0.4l0.1-0.8c0.1,0.6,0.1,1.1,0.2,1.7c0.1,1.1,0,2.1-0.2,3.2
	C135.8,58.2,135.8,58.2,135.8,58.1C135.8,58.1,135.7,58.1,135.8,58.1L135.8,58.1z M146.5,35.2c-0.3,0.1-0.7,0.1-1,0.1
	c0.1-0.2,0.2-0.3,0.2-0.5c0.3,0,0.5,0,0.8,0C146.4,35,146.4,35.1,146.5,35.2L146.5,35.2z M152.7,16.3c0.3,0.4,0.4,0.9,0.3,1.4
	c-0.5-0.1-1.1-0.2-1.6-0.1C151.3,16.8,151.7,15.3,152.7,16.3L152.7,16.3z M139,22c-0.3-0.5-0.5-1.1-0.6-1.7c0.9-0.5,1.4-2,1.8-3
	c0.6-0.3,1.1,0.2,1.6,0.7c0.3,0.4,0.8,0.7,1.3,0.8c0.1,0.4,0.2,0.8,0.2,1.2c0.2,1.4-0.8,2.6-2.1,2.8C140.4,22.9,139.5,22.6,139,22z
	 M140.1,24.3c0.6,0.2,1.3,0.1,1.9-0.2c-0.1,0.7,0,1.5,0.2,2.2c-0.9,0.3-1.6,0.9-2.5,0.2C139.9,25.7,140,25,140.1,24.3z M128.5,18.6
	c0.2-0.5,0.6-1.1,1.2-0.3c0.2,0.3,0.3,0.6,0.3,1c0,0,0,0-0.1,0c-0.4,0.1-0.7,0.2-1,0.4l-0.4,0.3C128.2,19.5,128.3,19,128.5,18.6
	L128.5,18.6z M130.8,29.1c-1.7-2.4-2.1-5.3-2.4-8.2c0.5-0.1,1-0.3,1.4-0.6c-0.1,3,0.9,5.9,2.9,8.1c0.7,0.8,2,1.8,3.1,1.5
	c1.5-0.4,1-3.2,3.1-2.7l0,0c0.4,0.3,0.9,0.5,1.4,0.8c0.6,0.2,1.3,0.2,1.9,0c0.3-0.2,0.6-0.4,0.7-0.7c1.4-1.2,3.1,0.6,4.7,0.4
	c1.2-0.3,2.2-1.2,2.6-2.4c0.9-2,1.8-4.9,1.3-7.2c0.5,0.2,1,0.3,1.5,0.2c0,0.1,0,0.1,0.1,0.2c0.2,2.9,0.2,6.1-1.6,8.5
	c-1.6,2.2-3.5,2.2-5.9,2.5c-0.2,0-0.2,0.6-0.1,0.8c-0.1,0.9,0,1.8,0.4,2.6c0.1,0.3,0.2,0.7,0.3,1c-0.1,0-0.3,0-0.4,0
	c0-0.4-0.2-0.7-0.5-0.9c-0.5-0.3-0.8,0.1-1,0.6l-0.2,0c-0.2-0.9-0.7-1.7-1.5-2.2c-0.2-0.1-0.3,0.1-0.4,0.2v0.1
	c-0.1-0.5-0.4-0.8-0.9-1c-0.3-0.1-0.7-0.1-1,0.2c0,0,0-0.1-0.1-0.2c-0.2,0-0.4-0.1-0.6-0.2c-0.2,0.1-0.4,0.3-0.5,0.5
	c-0.2,0.2-0.3,0.5-0.4,0.7c-0.3-0.1-0.6-0.1-0.9,0.2c-0.2-0.2-0.6-0.3-0.9-0.2c-0.3,0.1-0.5,0.3-0.6,0.6c0,0,0,0-0.1,0
	c-0.3,0-0.6,0-0.9,0.1C133.8,31.6,132.1,31,130.8,29.1L130.8,29.1z M133.5,34.5c-0.2,0.4-0.2,0.9-0.1,1.4c-0.1-0.1-0.2-0.2-0.2-0.3
	c-0.2-0.7,0.2-1.5,0.9-1.7c0.2-0.1,0.3-0.1,0.5-0.1c0,0.1,0,0.2-0.1,0.3c-0.3-0.2-0.7-0.1-0.9,0.2C133.5,34.5,133.5,34.5,133.5,34.5
	L133.5,34.5z M134.1,35.9c-0.3-0.4-0.2-1,0.3-0.8c0,0.1,0,0.2,0,0.2c-0.1,0-0.2-0.1-0.3-0.1C134.1,35.4,134.1,35.6,134.1,35.9
	L134.1,35.9z M136.1,60.4c0.2-0.3,0.3-0.7,0.4-1c0.3-1.2,0.4-2.4,0.2-3.6c-0.2-1.8,0-3.5,0.7-5.2c0-0.1,0.1-0.2,0.2-0.3
	c0,1.9,0.3,6.3,2.7,5.4c0.9-0.3,1.2-1.5,1.4-2.4c0.1-0.9,0.2-1.8,0.1-2.8c1.7,1,1.1,3.2,1.3,4.9c0.1,0.9,0.3,1.8,0.7,2.6
	c0.7,1.4,2.2,2.7,3.7,2.3c0.2,0,0.5-0.1,0.7-0.2c0.4-0.3,0.7-0.8,0.7-1.3c0-0.4,0-0.7-0.3-0.9s-0.3-0.1-0.6-0.1
	c-0.1,0-0.3,0.1-0.4,0.1c-0.4-1.4-0.3-2.8,0.3-4.1c0.9,0.3,1.7,0.9,2.3,1.6c1.1,1.8,0.6,7.6-0.6,9.4c-1.7,2.6-5.4,4.2-8.2,5.1
	c-5.5,1.8-10.9,1.2-16.3-0.7c-0.1-0.6-0.2-1.3-0.3-1.9c1.1,0.5,2.4,0.8,3.6,0.9c0.1,0.1,0.2,0.1,0.2,0c0,0,0,0,0,0
	c2.4,0.1,4.8-0.3,7.1-1c2.6-0.7,5.1-1.4,6.1-4.2c0.1-0.2-0.1-1.2-0.3-0.9c-1.9,2.9-6.1,4.2-10.2,4.6c0.6-1.2,0.9-2.5,1.1-3.8
	c0-0.1,0-0.1,0-0.2C134.1,63,135.6,61.9,136.1,60.4L136.1,60.4z M129.9,67c0-0.1,0.1-0.1,0.1-0.1C130,66.8,130,66.9,129.9,67
	L129.9,67z M131.9,63c0-0.1,0-0.2,0.1-0.2l0,0l0,0l0,0C131.9,62.7,131.9,62.8,131.9,63L131.9,63z M133.5,56.6L133.5,56.6
	c0,0.5,0,1.1,0.1,1.6c-0.1-0.8-0.3-1.5-0.5-2.2C133.2,56.1,133.3,56.3,133.5,56.6L133.5,56.6z M132.7,56.9c0.7,1.3,0.3,2.9-0.9,3.7
	c-0.3,0-0.6,0.2-0.8,0.5c-0.3,0.1-0.3,1,0,1.2l0,0c0.2,0.2,0.4,0.3,0.6,0.4c-0.1,0.3-0.2,0.8-0.3,1.1c-0.2,0.4-0.4,0.8-0.6,1.2
	c-0.3,0.7-0.7,1.4-1.1,2c0,0,0,0.1,0,0.1l-0.5-0.1c-0.4,0.1-0.9,0.1-1.4,0c-1.2-0.1-2.5-0.2-3.6-0.5l0,0c-0.1-0.1-0.2,0-0.3,0.2
	c-0.5-0.2-1-0.2-1.5,0c-0.1-0.8-0.1-1.5-0.1-2.2c0-0.4,0-0.7,0-1.1c0.3,0,0.6,0,0.8-0.1c1.4-0.1,2.8-0.4,4-1.1
	c0.4-0.2,0.7-0.4,1.1-0.6c0,0,0,0.1,0,0.1c0.1-0.2,0.3-0.3,0.5-0.5l0,0C130.1,59.9,131.4,58.4,132.7,56.9
	C132.7,56.9,132.7,56.8,132.7,56.9L132.7,56.9z M121.3,68.6c0.4-1,1.5-1.6,2.5-1.3c0,0.9,0.2,1.7,0.3,2.6
	C123.5,70,121,70,121.3,68.6z M123.4,57.6c2.8,0.2,5.9-1.2,6.8-4c0-0.1,0-0.1,0-0.2l0.2,0.3c0.6,0.7,1.2,1.5,1.7,2.3
	c0.1,0.1,0.1,0.2,0.2,0.3c-2.1,0.7-3.3,3.1-5.3,4.2c-1.2,0.7-2.6,1.1-3.9,1.3c-0.2,0-0.5,0.1-0.7,0.1c-0.1,0-0.3,0-0.4,0
	c0-1.5-0.1-3-0.2-4.5C122.4,57.6,122.9,57.6,123.4,57.6L123.4,57.6z M47.3,35.6c0.4,0,0.7,0,1.1,0.1c1,0.3,2,0.9,2.6,1.7
	c1,1.1,1.6,2.5,1.7,4c0.2,2.1,0.1,4.2-0.2,6.2c0,1.2-0.1,2.4-0.2,3.6c0,0.1,0,0.2-0.1,0.3c0,0.1,0,0.2,0,0.3c-1.1,1-2.4,1.8-3.8,2.4
	c-1.5,0.4-2.9,0.7-4.4,0.8h-0.3c-0.7-0.1-1.6-0.1-2-0.8c-0.2-0.4-0.3-0.8-0.2-1.2c0-0.5,0-1,0-1.4c0-0.1,0-0.1,0-0.2
	c1-0.8,1.8-1.9,2.2-3.2c0.7-2.5,1.4-6.6-1.1-8.4c0-0.9,0.3-1.8,0.9-2.5C44.5,36.3,45.9,35.6,47.3,35.6z M41.3,42
	c-0.1-0.1-0.1-0.1-0.2,0.1c-0.4,1.5-1.9,2.3-3.4,1.9c-0.2-0.1-0.4-0.1-0.6-0.2v-0.1c0.5-1.6,1.8-2.9,3.4-3.4c2.6-0.5,3,2.1,2.8,4.8
	c-0.5-0.1-1.1-0.1-1.5-0.5s-0.3-1.3-0.2-2C41.6,42.3,41.4,41.8,41.3,42L41.3,42z M41.1,43.6c0,0.4,0.1,0.9,0.2,1.3
	c0.3,0.8,1,1.3,1.9,1.1c-0.2,1.1-0.4,2.1-0.8,3.1c-0.4,0.7-1.1,1.3-1.9,1.6c-2.2,0.9-3.3-0.8-3.9-2.6c-0.1-1.3,0-2.6,0.3-3.8
	c0,0.1,0,0.1,0.1,0.2c1.3,0.9,3.1,0.5,3.9-0.8C41,43.7,41,43.7,41.1,43.6L41.1,43.6z M34.4,38c2-2.4,6.7-5.1,9.6-3.1
	c-1.7,0.7-2.8,2.3-3,4.1c-1.8-0.5-3.6,0.7-4.5,2.8c-1,2.5-1.3,7.5,0.7,9.6l0,0c0.3,0.3-0.2,2.5-0.3,3c0-0.1-3.1-1.5-3.3-1.6
	c-1.8-1.1-3.3-2.7-4.4-4.5C30.9,44.8,32.1,40.8,34.4,38z M21.6,36.8C21.6,36.7,21.6,36.7,21.6,36.8c0-0.9,0-1.8,1-1.8
	s1.3,0.8,1.5,1.6C23.5,36.5,21.6,37.3,21.6,36.8z M20.1,88.2h0.2c0.1,0,0.3,0,0.4,0l0.1,0.8c-0.1,0.2-0.1,0.3-0.2,0.5
	c-0.1-0.2-0.4-0.3-0.6-0.3c-0.1-0.1-0.2-0.2-0.3-0.3C19.9,88.6,20,88.4,20.1,88.2z M18.6,98c0.3,0,0.6-0.1,0.8-0.3l0.2,0.6
	c0.1,0.3,0.9,0.2,1.3,0c0.2-0.1,0.4-0.1,0.5-0.3l0,0c0,0,0.1,0.1,0.1,0.1l0,0c0.1,0.1,0.2,0.2,0.3,0.2C20.9,98.7,19.6,98.6,18.6,98z
	 M20.9,78.9c0-0.4,0.1-0.8,0.1-1.2c0-0.1,0.1-0.2,0.1-0.3c0.1,0.5,0.3,0.8,0.5,0.6s0.3-0.3,0.4-0.5l-0.1,0.2
	C21.7,78,21.3,78.4,20.9,78.9z M22.9,84.2L22.6,83c-0.2-0.6-0.4-1.2-0.5-1.9l0.2-0.3c0.4,1.9,0.9,3.9,1.6,5.7
	c0.1,0.3,0.1,0.6,0.2,0.9C23.6,86.4,23.3,85.3,22.9,84.2L22.9,84.2z M23.9,79.8c-0.1-0.3-0.4-0.4-0.8-0.4c0.2-0.4,0.5-0.8,0.7-1.1
	c0.2,1,0.3,1.9,0.4,2.9C24.1,80.7,24,80.3,23.9,79.8L23.9,79.8z M25.3,76.2l0.3-0.4c0.1,1.1,0.3,2.2,0.5,3.2
	C25.9,78.1,25.6,77.1,25.3,76.2L25.3,76.2z M24.5,74.5c0.3-0.5,0.6-1,0.9-1.5c0-0.1,0.1-0.2,0.1-0.3c0.3,0,0.6-0.1,0.9-0.1
	C25.7,73.3,25.1,73.9,24.5,74.5L24.5,74.5z M29.6,65.2c-1.8,1.6-3.6,2.7-5.2,4c-5.9-1-10.9-5-13-10.6c4.8,0.5,12.7,0.4,13.8-5.3
	c1.4,2.6,3.5,5.5,6,6.2c0,1.9-0.4,3.8-1.3,5.6C29.8,65.1,29.7,65.1,29.6,65.2L29.6,65.2z M30.3,71.2c0-0.1,0-0.1,0-0.2
	c0.1-0.2,0.1-0.3-0.1-0.4v-0.1c0.2,0.1,0.4,0.2,0.6,0.3L30.3,71.2z M35.2,99.4C35.1,98,35,96.6,35,95.2c0.1,1.4,0.2,2.7,0.4,4
	C35.3,99.2,35.3,99.3,35.2,99.4L35.2,99.4z M36.8,92.8L36.8,92.8l0.3-0.5l0.3-0.3c-0.2,0.5-0.4,1-0.6,1.5L36.8,92.8z M37.4,96.2
	c0-0.2,0-0.4,0-0.7c0.5-0.6,0.9-1.2,1.4-1.8C38.4,94.5,37.9,95.3,37.4,96.2L37.4,96.2z M38.7,86.7c0.1-0.2,0.2-0.4,0.3-0.6
	c0.7-1.1,1.4-2.2,2.2-3.2l0.5-0.7c0,0.1,0,0.3,0.1,0.4l-0.4,0.8c-0.9,1.1-1.6,2.3-2.3,3.5C38.9,86.8,38.8,86.7,38.7,86.7L38.7,86.7z
	 M39.5,107.7c0-0.2-0.1-0.4-0.1-0.6l0.4-0.4C39.6,107,39.6,107.3,39.5,107.7L39.5,107.7z M39.1,99.5c0.2-0.5,0.4-1,0.6-1.4
	c0.1-0.1,0.1-0.2,0.2-0.2c0.4-0.7,0.9-1.4,1.4-2.1l3.2-3.8c-0.7,1-1.4,2.1-2,3.1C41.4,96.5,40.3,98,39.1,99.5z M43,77.7
	c-0.1,0-0.2,0.1-0.3,0.2c0.3-0.4,0.6-0.7,0.9-1.1l0,0c0.3,0.3,0.6,0.7,0.9,1c0,0.2,0,0.3,0,0.5c-0.2,0.1-0.3,0.2-0.4,0.4
	c0-0.6-0.2-1.2-0.5-0.8l-0.2,0.3C43.3,78,43.2,77.6,43,77.7L43,77.7z M44.4,81.7c0.2-0.3,0.4-0.7,0.7-1c0.1,0.3,0.2,0.6,0.3,0.9
	c-0.5,0.6-1.3,1.7-2.2,2.9l-0.6,0.7C43.3,84,43.9,82.9,44.4,81.7L44.4,81.7z M44.1,87.9c0.2-0.3,0.3-0.7,0.4-1
	c0.5-0.8,1-1.6,1.3-2.2c0,0.3,0.1,0.5,0.1,0.8L44.1,87.9z M46.1,88.1L46.1,88.1c0.1,0.2,0.1,0.6,0.1,0.9c0-0.1-0.1-0.2-0.2-0.1
	c-0.4,0.4-0.8,0.8-1.2,1.2C45.3,89.4,45.7,88.7,46.1,88.1z M42.6,117.3l0.4-0.4c-0.1,0.4,0.1,1,0.3,0.9c0.1,0,0.2-0.1,0.2-0.1
	c0,0.1,0,0.3,0,0.4C43.2,117.8,42.9,117.6,42.6,117.3z M48.6,121.4c0.4-0.1,0.8-0.1,1.3,0c0.7,0.2,1.1,1,0.8,1.7
	c-0.1,0.3-0.3,0.5-0.5,0.7c-1,0.8-7.3,2.4-6.9-0.4c1.6,0.4,3.2-0.3,4-1.8l0,0C47.8,121.5,48.1,121.4,48.6,121.4L48.6,121.4z
	 M47.6,106.5l0.3-0.3c-0.1,0.5-0.2,1-0.2,1.4l0,0c0-0.2,0-0.5,0-0.9C47.6,106.6,47.6,106.5,47.6,106.5L47.6,106.5z M48.6,95.5
	c0,1.5,0,2.9-0.1,4.4c-0.1-0.2-0.2-0.2-0.3-0.2C48.5,98.2,48.6,96.8,48.6,95.5L48.6,95.5z M48.1,102.1c0.1-0.2,0.1-0.4,0.2-0.5
	c0-0.1,0-0.1,0-0.2l0.1-0.2c-0.1,0.7-0.1,1.5-0.2,2.2c-0.4,0.4-0.7,0.8-1.1,1.2c0.2-0.4,0.3-0.7,0.4-0.9c0.2-0.3,0.4-0.6,0.6-0.8
	C48.2,102.7,48.2,102.4,48.1,102.1z M47,86.6L47,86.6c0.1,0.2,0.1,0.3,0.2,0.3c0.2,1.6,0.3,3.1,0.4,4.7c0-0.2-0.1-0.3-0.2-0.3
	C47.2,89.7,47.1,88.1,47,86.6L47,86.6z M47,99.7l-1.9,2.8l-1.8,1.9l-0.2,0.3c0.1-0.2,0.2-0.4,0.4-0.6c0.8-1.1,1.6-2.3,2.2-3.4l1.2-2
	C47,99,47,99.3,47,99.7L47,99.7z M46.7,96.2l-4.1,4.8c0,0-0.2,0.3-0.5,0.7c1.4-2.2,3-4.3,4.6-6.4C46.7,95.6,46.8,95.9,46.7,96.2
	L46.7,96.2z M46.4,92l0.1,0.6c-0.3,0.6-0.7,1.3-1.1,2.1l-1.6,1.9c-0.6,0.6-1.2,1.3-1.8,2l0.2-0.3c0.4-0.7,0.9-1.5,1.3-2.2
	C44.5,94.8,45.5,93.4,46.4,92L46.4,92z M57.3,70.1c-0.4,0-0.3,0.9-0.3,1.1c0.7,4.3-7.8,2.4-12,1.2c-1-1.7-2.1-3.4-3.4-4.9
	c0,0-0.1-0.1-0.1-0.1c0-1.7,0-3.4,0-5.1c5.3,2.2,9.7,0.3,13.2-3.4c0.4,3,1.7,5.8,3.7,8.1c0-0.7-0.1-1.4-0.1-2.2
	c-1.5-1.9-2.5-4.1-3-6.5c0.5-0.6,1.1-1.3,1.6-2s0.9-1.4,1.4-2c0-0.7,0-1.4,0-2.1c-0.8,1.4-1.7,2.7-2.7,4c-1.3,1.7-2.9,3.1-4.7,4.2
	c-3.3,1.9-5.9,1.1-9.4,0.4c-0.2,0-0.2,0.1-0.3,0.3c0,0,0,0.1,0,0.2c-0.2,1.8-0.2,3.6-0.2,5.4c0,0.2-0.1,0.3-0.2,0.3
	c-1.8,0-3.7,0.7-5.6,0.6c-1.3-0.1-2.7-0.5-3.8-1.1c0.6-2.4,0.9-4.8,0.8-7.2l0.1-0.1c0-0.2,0.1-0.3,0.1-0.5s0.1-0.2,0.1-0.4
	C24.5,54.4,22,45.6,21.8,37.5c0.1,0,0.2,0.1,0.3,0.1c0.4,0.1,0.9,0.1,1.3,0.1c0.2,0,0.6-0.1,0.8,0.1l0.1,0.2c0.7,3.5,1.9,6.9,3.8,10
	c1.7,2.7,3.9,5.7,6.8,7.1c0.9,0.4,2.5,0.8,2.8-0.3c0.1-0.3,0.2-0.7,0.2-1c0-0.1,0.1-0.2,0.1-0.4s0-0.2,0.1-0.3c0-0.2,0-0.4,0-0.6
	c0,0,0-0.1,0-0.2c0-0.1,0-0.2,0-0.4c0.4,0.2,0.9,0.3,1.4,0.3c0.2,0,1.6-0.3,1.6-0.7c0,0.1,0,0.1,0,0.2c-0.1,0.6-0.1,1.2-0.1,1.8
	c0,0.4,0,0.7,0.1,1.1c0.3,1.3,1.9,1.7,3,1.8c1.2,0.1,2.4,0,3.5-0.4c2.1-0.7,4.1-1.9,5.7-3.4c1.7-1.6,3-3.5,4.1-5.5V47
	c0.2-0.6,0.5-1.2,0.8-1.8c0,3.2-0.1,6.4-0.2,9.6c0,0.4,0,0.8,0,1.1c0,0.9,0,1.7,0,2.6c0,0.4,0,0.7,0,1.1c0,0.2,0,0.3,0,0.4
	c0,3.4,0.2,6.8,0.5,10.2C58.2,70.2,57.7,70.1,57.3,70.1z M63.1,79.3c-0.6-0.1-1.1-0.4-1.5-0.8c-0.4-0.6-0.5-1.3-0.3-2
	c0.9-10.8-0.2-21.6-0.5-32.4c-0.1-5.8-0.2-11.6-0.2-17.4c-0.1-3.7-0.2-7.5-0.2-11.2c0-2-0.9-6.4,1.9-6.7c2.5-0.2,5,0,7.5-0.1
	c3.3-0.1,6.5-0.8,9.7-0.8C83.1,8,86.6,8,90.1,8c7,0,14-0.1,21-0.4c1.7-0.1,3.4,0,5.1,0.3c0.8,0.2,1.6,0.3,1.7,1.2
	c0.4,4.4,0.5,8.7,0.6,13.1c0.1,2.2,0.1,4.5,0.3,6.7c0.2,2.5,0.6,5.1,0.8,7.7c0.2,2.9,0.4,5.8,0.5,8.6c0.3,5.8,0.4,11.6,0.5,17.4
	c0.3,1.7,0.5,3.4,0.6,5.2c-0.4,0.6-0.5,1.3-0.2,2c0.1,0.2,0.3,0.4,0.5,0.6c0.2,1.6,0.6,4.6-0.1,6.4c-0.6,0.4-1.1,0.9-1.6,1.4
	c-0.1,0-0.3,0-0.4-0.1c-0.1,0-0.3,0.1-0.5,0.1c-0.4,0.1-0.8,0.1-1.3,0.1h-0.1c-1.3,0.1-2.7,0-4,0.2l-0.6,0.1
	c-7.6,0.3-15.1,0.5-22.7,0.6c-0.6,0-1.2,0-1.7,0.1C88.3,79.1,88.1,79,88,79c-0.1-0.8-0.6-1.5-1.4-0.7c0-0.3-0.1-0.5-0.3-0.7
	c-0.8-1.1-1.3-0.2-1.6,0.9l-0.2,0.1c0.1-0.2,0.2-0.3,0.2-0.5c0.3-1.3-0.8-2.3-1.6-1.2c-0.1-0.5-0.5-0.9-1-1.1
	c-0.8-0.2-1.3,0.4-1.6,1.2c-0.2,0.3-0.4,0.6-0.5,1c-0.3-0.2-0.8-0.2-1.1,0.1c-0.3,0.2-0.5,0.6-0.4,1c-0.5-0.1-1.1,0.2-1.2,0.8
	c-3.3,0.3-6.6,0.3-9.9,0.2c-0.8,0-1.6-0.1-2.4-0.3S63.8,79.5,63.1,79.3z M95.8,82.5L95.8,82.5c-0.1,0-0.1,0.2-0.1,0.3
	c-0.3,2.6-1.5,5-3.2,7c-0.2,0.2-0.4,0.4-0.6,0.6c-0.6,0.6-1.3,1-2,1.2c-1,0.4-2.2,0.1-3-0.7c-0.6-0.8-0.9-1.9-0.6-2.9
	c0.2-1,0.5-2,0.7-3c0-0.1,0-0.2,0-0.3l0,0c0.1,0,0.2,0,0.3,0c0.1,0,0.2,0,0.4,0c0.6,0.4,1.2,0.2,1.3-1.1c0-0.2-0.2-0.5-0.2-0.2
	c0-0.3,0-0.7-0.1-1c0.1-0.2,0.2-0.4,0.2-0.6c2.3-0.1,4.7-0.2,7-0.3c0,0.1,0,0.3,0,0.4C95.8,82.2,95.8,82.3,95.8,82.5L95.8,82.5z
	 M70.8,84.7c-0.6,0.3-1.2,0.7-1.7,1c0,0,0,0,0,0.1H69c-0.3-0.5-0.4-1.2-0.2-1.8c0.2-0.5,0.7-0.9,1.2-0.5c0.4,0.3,0.7,0.7,0.8,1.1
	l0,0C70.8,84.6,70.8,84.7,70.8,84.7L70.8,84.7z M69.8,82.5c-0.2,0-0.3,0-0.5,0.1C69.5,82.5,69.6,82.4,69.8,82.5
	c0.3,0.1,0.5,0.2,0.7,0.4c2-0.2,4.1-0.6,6.1-0.7l0,0c-0.2,0.4-0.3,0.8-0.2,1.2c0.1,0.5,0.4,0.9,0.8,1c0,0.1,0,0.1,0,0.2
	c-0.2,0.3-0.3,0.6-0.3,1c0,1.5,1.1,1.6,2,1c0.4,0,0.7-0.1,1-0.3c0.6,1.1,1.5,1.9,2.7,2.4c0.1,1.2,0,2.6-0.7,3.5
	c-0.1,0.1-0.2,0.2-0.4,0.3c-1.2,0.8-2.7,0.1-3.9-0.6c-2.8-1.9-5.1-4.6-6.4-7.7C70.9,83.4,70.5,82.6,69.8,82.5L69.8,82.5z M78.6,79.7
	L78.6,79.7C78.5,79.5,78.5,79.5,78.6,79.7L78.6,79.7z M79.6,78.5c0.2,0.4,0.4,0.8,0.4,1.2h-0.2c0,0-0.1,0-0.1,0h-0.1
	c-0.1-0.1-0.2-0.3-0.3-0.3C79.4,79,79.5,78.7,79.6,78.5L79.6,78.5z M77.3,83.1c0.1,0,0.2,0,0.2,0c0,0.1,0,0.2,0.1,0.2l-0.1,0.1
	C77.5,83.3,77.4,83.2,77.3,83.1L77.3,83.1z M81.1,86.3c-0.2-0.2-0.4-0.4-0.6-0.7c0.1-0.3,0.1-0.6,0-0.9c0-0.1-0.1-0.2-0.2-0.3
	c0.8,0.2,1.7-0.2,2-1.1c0-0.1,0.1-0.3,0.1-0.5c0-0.1-0.1-0.2-0.1-0.3v-0.2c0.4,0.3,1,0.2,1.4-0.1c0.3,0.5,0.9,0.7,1.5,0.6l0,0
	c0,0.4,0.3,0.8,0.7,1c0.1,0.2,0.3,0.4,0.4,0.5c0.1,1-0.3,2-1.1,2.6C84,88,82.1,87.2,81.1,86.3L81.1,86.3z M83.2,88.8
	c0.7,0.2,1.5,0.1,2.2-0.3c0,0.1,0,0.2,0.1,0.2c0.2,0.7,0.5,1.4,0.8,2.1c0.1,0.1,0.1,0.4,0.2,0.6c-0.1,0.1-0.3,0.2-0.5,0.3l0,0
	c-0.9,0.2-1.9,0.3-2.8,0.3C83.4,91,83.4,89.9,83.2,88.8L83.2,88.8z M68.1,108.5c-0.1,0.2-0.1,0.5-0.2,0.7l-0.1,0.2c0,0,0,0.1,0,0.1
	c-0.2,0.5-0.3,1-0.4,1.4c-0.1,0.1-0.1,0.2-0.2,0.4C67.4,110.3,67.7,109.4,68.1,108.5z M65.4,126.2c-0.3,0-0.5-0.1-0.8-0.3
	c-0.9-0.7-0.3-1.1,0.2-1.5c0.6-0.4,1.3-0.6,2.1-0.6c0,0,0,0,0.1-0.1c0.5,0.5,1.2,0.8,1.9,0.9C68.3,125.9,66.8,126.6,65.4,126.2
	L65.4,126.2z M69.2,109.1c-0.2,0.4-0.3,0.7-0.5,1.1c0-0.3,0.1-0.6,0.1-1s0.3-0.3,0.5-0.5C69.3,108.8,69.3,109,69.2,109.1z M68.5,108
	c0,0,0-0.1-0.1-0.1c0.1-0.2,0.2-0.4,0.4-0.6c0.4-0.6,0.9-1.1,1.5-1.5C69.5,106.3,68.9,107.1,68.5,108L68.5,108z M75,103.7
	c-0.9,0.2-1.7,0.4-2.5,0.7c-0.4,0.2-0.8,0.4-1.2,0.6c1.3-0.7,2.8-1.3,4.3-1.6L75,103.7z M87.7,105.2c-0.6-0.4-1.3-0.7-1.9-0.9l0,0
	c0-0.1,0-0.1,0-0.2C86.5,104.4,87.2,104.7,87.7,105.2z M86.3,102.6h1c0,0.1,0.1,0.3,0.1,0.4l1.2,1.1l-0.2-0.1
	C87.9,103.3,87.1,102.8,86.3,102.6z M92.9,112.6c0,0.2,0,0.4,0.1,0.7c0,0.6,0,1.4,0,2.2c-0.1-0.2-0.1-0.5-0.1-0.7
	C92.8,113.9,92.7,111.5,92.9,112.6L92.9,112.6z M92,118.6c0,1.1,0,2.2,0.2,3.2c-0.1-0.3-0.2-0.7-0.3-1.2s-0.1-1.1-0.1-1.7
	C91.9,119,92,118.8,92,118.6L92,118.6z M91.4,125.1c0-0.1,0-0.1,0-0.2c1.1,0.2,2.2,0.1,3.2-0.2c0.2,0,0.5,0,0.7,0
	c0.5-0.1,0.9,0,1.3,0.1c0.6,0.3,0.6,1,0.3,1.6c-0.1,0.1-0.2,0.1-0.3,0.2c-0.4,0.2-0.8,0.4-1.2,0.4C94.5,127.1,90.8,126.8,91.4,125.1
	L91.4,125.1z M90.8,112.1c0,0.2,0,0.4,0.2,0.5l0,0c0.1,0.5,0.2,1.1,0.2,1.6v1c0-0.1-0.1-0.1-0.2,0c0,0,0,0,0,0
	c0.1-1.2-0.1-2.3-0.3-3.5L90.8,112.1z M89.5,97.2c-0.1,0-0.1,0-0.1,0.1c-0.3,1.1-0.3,2.4,0.1,3.5c-0.8-0.1-1.6-0.2-2.4-0.2
	c-0.8-0.1-1.7-0.1-2.5-0.1c-1.6,0-3.1,0.4-4.6,1.1c0.5-1.2,0.6-2.4,0.4-3.6c0-0.3-0.2-0.5-0.4-0.7c-0.2-0.1-0.4-0.1-0.6,0
	c-2.6,0.3-5.2-1.3-6.8-3.4c-1.5-2.2-2.6-4.7-3.2-7.3c0.5-0.1,1.1-0.2,1.5-0.5c1.7,1.9,2.9,4.2,4.8,6s4.9,2.7,7,1.2
	c1.5,0.7,3.3,0.3,4.5-0.9c1.9,1.1,4.3,0,5.8-1.5c1.8-1.9,2.9-4.4,3-7.1c0-0.2,0-0.3,0-0.5c0.6,0.1,1.3,0.1,1.9,0
	C97.6,88.6,95.2,95.2,89.5,97.2L89.5,97.2z M97.8,82c0,0.1,0,0.2,0,0.3c0,0.1,0,0.1,0,0.2c-0.6,0-1.2,0.1-1.8,0.1c0,0,0,0,0-0.1
	c0.1-0.3,0.2-0.7,0.2-1s0.4-0.6,0.8-0.4C97.4,81.2,97.7,81.6,97.8,82z M117.7,115.4c0.1,0.1,0.1,0.2,0.2,0.2c0,0.1,0.1,0.2,0.1,0.2
	c-0.2,1.1-0.2,2.2,0.2,3.3c0,0.1,0.1,0.2,0.1,0.4C117.8,118.2,117.6,116.8,117.7,115.4z M118,110.2c0-2.6-0.2-5.1-0.6-7.7
	c0.1,0.2,0.1,0.3,0.2,0.5c0.1,0.5,0.2,1,0.3,1.5c0.1,1.1,0.3,2.3,0.4,3.4C118.2,108.7,118.1,109.4,118,110.2L118,110.2z M118.5,82.6
	c-0.1,0.2-0.2,0.5-0.3,0.7c0.3-0.9,0.6-1.8,1-2.7c0.1-0.1,0.2-0.2,0.2-0.3C119,81.1,118.7,81.9,118.5,82.6L118.5,82.6z M119.1,120.5
	c0.1-0.1,0.1-0.2,0.1-0.3c0-0.2,0-0.4,0-0.7c0.1,0.2,0.2,0.5,0.4,0.7c0.2,0.3,0.4-0.1,0.4-0.3s0-0.3,0.1-0.5c0,0.1,0.1,0.2,0.1,0.3
	c0,0.1,0.1,0.2,0.2,0.3C120,120.3,119.6,120.5,119.1,120.5L119.1,120.5z M121.4,106.4l-0.1,0.8c0-0.4,0-0.9-0.1-1.3
	c0-0.4,0.1-0.8,0.1-1.3C121.4,105.1,121.4,105.8,121.4,106.4L121.4,106.4z M121.8,118.8c0-0.3,0.1-0.5,0.1-0.8
	c0.1,0.2,0.4,0.3,0.5-0.2c0-0.1,0-0.1,0-0.2c0.1,0.1,0.2,0.1,0.4-0.1s0.4-0.8,0.5-1.2l0,0c0.2-0.3,0.3-0.6,0.4-0.9
	C123.3,116.6,122.7,117.8,121.8,118.8L121.8,118.8z M124.3,92.2c0-1,0-2.1,0-3.1l0.4-1c-0.1,0.3-0.1,0.7-0.2,1c0,0.4,0,0.7,0.1,1.1
	L124.3,92.2z M124.7,109.4c0-0.8,0-1.6,0-2.5c0.1,0,0.3-0.2,0.3-0.6l0.2-1.7l0,0C125.1,106.2,125,107.8,124.7,109.4L124.7,109.4z
	 M126,80.6l-1,1.3c0.1-0.3,0.1-0.6,0.2-1c0.3-0.3,0.6-0.6,1-0.9C126.1,80.3,126.1,80.4,126,80.6L126,80.6z M125.8,75.1L125.8,75.1
	L126,75C125.9,75.1,125.9,75.1,125.8,75.1L125.8,75.1z M125.7,74.6c-0.4,0.3-0.8,0.5-1.2,0.7c-0.6,0.1-1.2,0.4-1.8,0.7
	c0.1-0.7,0.2-1.3,0.2-2c0-1.1,0-2.1-0.1-3.2c0.4,0.1,0.9,0.1,1.3,0c0.3-0.1,0.5-0.3,0.6-0.5c0,0,0.1-0.1,0.1-0.2l0,0
	c0.1,0.1,0.1,0.1,0.2,0c0.9,0.5,1.9,0.9,2.9,1.2C127.2,72.4,126.5,73.5,125.7,74.6L125.7,74.6z M129.7,91c-0.1,0-0.2,0.1-0.2,0.2
	c0,0,0,0,0,0.1c-0.3,0.3-0.5,0.7-0.7,1.1l0.1-0.6c0.1-0.3,0.3-0.5,0.4-0.8l0.2-0.2l0.9-0.5C130.1,90.5,129.9,90.7,129.7,91z
	 M137.1,74.2c-2.8,0.5-5.5,0.4-8.3,0.7c-0.3,0.1-0.6,0.1-0.9,0.1l0.2-0.4c0.5-0.8,0.8-1.8,0.7-2.8c0.1,0,0.1,0,0.2,0h0.1v0
	c6.1,1.7,13.3,0.9,18.3-3c0,0,0,0.1,0,0.1c-0.1,0.7-0.1,1.3,0,2c-0.1,0-0.1,0-0.1,0.1s0,0,0,0c-0.9,0.5-1.8,1-2.7,1.4
	C142.1,73.2,139.6,73.8,137.1,74.2z M134.6,102c-0.1-1.9,0-3.8,0.5-5.7c0,0.2,0,0.5,0,0.7C134.8,98.6,134.6,100.3,134.6,102z
	 M135.7,97.1L135.7,97.1c0-0.5,0-0.9,0-1.4c0-0.7,0-0.1,0-0.1s0.1-0.1,0.1-0.2l0.3-0.9c-0.1,0.7-0.2,1.4-0.2,2.2
	C135.8,96.8,135.8,97,135.7,97.1L135.7,97.1z M136.9,103c0,0.6,0,1.2,0,1.8c-0.2-0.8-0.4-1.7-0.5-2.3s-0.2-1.4-0.4-2.1
	c0.2,0.4,0.4,0.2,0.6-0.1c-0.1,0.5-0.2,1-0.2,1.6S136.7,103.1,136.9,103L136.9,103z M137.2,109.8
	C137.3,109.8,137.3,109.8,137.2,109.8c0-0.2,0.1-0.4,0.1-0.5c0.1,0.4,0.3,0.9,0.5,1.3C137.7,110.3,137.4,110,137.2,109.8
	L137.2,109.8z M138,103.6c0-1.3-0.1-2.7-0.2-4.1c0-0.1,0.1-0.3,0.1-0.4c0.1,1.7,0.1,3.4,0.2,5.1L138,103.6z M139.9,98.4
	c0,0.4-0.1,0.7-0.1,1.1c0-0.5-0.1-1.1-0.1-1.8c0.1-1.5,0.1-2.9,0.2-4.4l0,0c0,0.4,0,0.8,0,1.2c0,0.3,0,0.5,0.1,0.8
	C140,96.3,139.9,97.4,139.9,98.4L139.9,98.4z M141.2,93.4c-0.1,0.5-0.1,1-0.2,1.5c0-0.3-0.1-0.6-0.1-0.9c0.1-0.7,0.2-1.3,0.3-2
	C141.2,92.4,141.1,92.9,141.2,93.4L141.2,93.4z M141.3,86.9c-0.1,0.6-0.3,1.1-0.4,1.7c0-0.4,0-0.8,0-1.2c0.1-0.3,0.1-0.6,0-0.8
	c0-0.3,0-0.6,0-0.8c0-0.2,0-0.3-0.1-0.5c0.2,0,0.4,0,0.6,0.1C141.4,85.8,141.4,86.3,141.3,86.9L141.3,86.9z M142.6,85.3
	c0.3-1,0.5-2.1,0.7-3.2c0.1-0.1,0.2-0.3,0.4-0.4c-0.1,0.3-0.1,0.6-0.2,1c-0.3,1.4-0.5,2.8-0.9,4.2L142.6,85.3z M142.8,99.9
	c0-0.4,0.1-1.7,0.2-3.1c0.4-2.1,0.8-4.2,1.2-6.3c-0.5,3.3-0.9,6.6-1.4,9.8C142.8,100.1,142.8,100,142.8,99.9L142.8,99.9z M144,114.1
	c0.1,0,0.1,0,0.2,0s0.3-0.1,0.4-0.2c0.1-0.1,0.1-0.1,0.1-0.2h0.1c0.3,0.4,0.7,0.8,1.1,1.1C145.3,114.5,144.7,114.3,144,114.1
	L144,114.1z M146,102.8c0.1-0.3,0.1-0.7,0.1-1c0.1,0.8,0.2,1.5,0.3,2.3L146,102.8z M146.6,98.3v-0.2c0.1-0.7,0.1-1.3,0.1-2
	c0.1-0.1,0.1-0.1,0.2-0.2c0.7-1.3,1.3-2.6,1.9-4c0.4-0.8,0.8-1.5,1.1-2.3c-0.1,0.2-0.2,0.5-0.3,0.7c-1.1,2.2-2.1,4.5-2.8,6.8
	C146.7,97.5,146.7,97.9,146.6,98.3L146.6,98.3z M149.6,117.6c0,0,0-0.1-0.1-0.1c-0.3-0.4-0.6-0.7-1-1.1c-0.1-0.1-0.2-0.2-0.4-0.3
	c0.1-0.1,0.1-0.2,0.2-0.3c0.4,0.3,0.9,0.6,1.3,1c0,0.1,0,0.3,0,0.4c0.1,0.3,0.1,0.5,0.2,0.8C149.8,117.9,149.7,117.7,149.6,117.6
	L149.6,117.6z M148.6,113.2c0.1,0,0.1-0.1,0.1-0.2l0.8,0.6c0.1,0.3,0.3,0.7,0.4,1C149.4,114,149,113.6,148.6,113.2L148.6,113.2z
	 M152.6,125.1c-0.6,0.5-1.5,0.8-2.3,0.7c-1.4-0.2-1.6-2-0.7-3.1c0.2-0.2,0.5-0.5,0.7-0.6c0.1,0.3,0.3,0.6,0.6,0.8
	c1.4,0.7,2.5-1.1,2.9-2.2c0,0,0-0.1,0-0.1C154.1,122.2,154.1,123.8,152.6,125.1L152.6,125.1z"/>
</svg>
